<?xml version="1.0" standalone="no"?>
<!DOCTYPE svg PUBLIC "-//W3C//DTD SVG 1.1//EN" "http://www.w3.org/Graphics/SVG/1.1/DTD/svg11.dtd" >
<svg xmlns="http://www.w3.org/2000/svg" xmlns:xlink="http://www.w3.org/1999/xlink" version="1.1">
<metadata>
Created by FontForge 20170924 at Sun Sep  4 14:06:05 2011
 By www-data
Typeface (c) CuttyFruty. 2011. All Rights Reserved
</metadata>
<defs>
<font id="JellykaDeliciousCake" horiz-adv-x="1014" >
  <font-face 
    font-family="Jellyka Delicious Cake"
    font-weight="400"
    font-stretch="normal"
    units-per-em="2048"
    panose-1="2 0 5 0 0 0 0 0 0 0"
    ascent="1638"
    descent="-410"
    x-height="670"
    cap-height="1752"
    bbox="-2382 -824 4448 2059"
    underline-thickness="150"
    underline-position="-292"
    unicode-range="U+0020-F002"
  />
<missing-glyph horiz-adv-x="1024" 
d="M100 0v1434h824v-1434h-824zM150 50h724v1334h-724v-1334zM325 1148q31 28 58 43q53 30 112 30q92 0 148 -47.5t56 -127.5q0 -49 -23 -98.5t-87 -129.5q-63 -80 -99 -132t-36 -99q0 -38 24 -133h-32q-35 97 -35 148q0 76 81.5 218t81.5 217q0 57 -33 90t-91 33
q-38 0 -69 -17q-26 -15 -56 -40v45zM389 334l57 58q11 10 20 10q10 0 22 -11l56 -60q9 -11 9 -20q0 -11 -10 -22l-56 -62q-14 -14 -21 -14q-11 0 -20 10l-61 71q-7 9 -7 18q0 10 11 22z" />
    <glyph glyph-name=".notdef" horiz-adv-x="1024" 
d="M100 0v1434h824v-1434h-824zM150 50h724v1334h-724v-1334zM325 1148q31 28 58 43q53 30 112 30q92 0 148 -47.5t56 -127.5q0 -49 -23 -98.5t-87 -129.5q-63 -80 -99 -132t-36 -99q0 -38 24 -133h-32q-35 97 -35 148q0 76 81.5 218t81.5 217q0 57 -33 90t-91 33
q-38 0 -69 -17q-26 -15 -56 -40v45zM389 334l57 58q11 10 20 10q10 0 22 -11l56 -60q9 -11 9 -20q0 -11 -10 -22l-56 -62q-14 -14 -21 -14q-11 0 -20 10l-61 71q-7 9 -7 18q0 10 11 22z" />
    <glyph glyph-name=".null" horiz-adv-x="0" 
 />
    <glyph glyph-name="nonmarkingreturn" horiz-adv-x="508" 
 />
    <glyph glyph-name="space" unicode=" " horiz-adv-x="508" 
 />
    <glyph glyph-name="space" unicode="&#xa0;" horiz-adv-x="508" 
 />
    <glyph glyph-name="exclam" unicode="!" horiz-adv-x="672" 
d="M1081 1543v-14q-24 0 -93 -107q-208 -185 -376 -441l-207 -348q-89 -206 -128 -206q-99 -64 -128 -64h-21v14q210 366 370 597l156 192l7 -7h7l43 64l-7 7v7q78 105 78 143l-7 35q97 29 192 85h14l22 -7v7q0 25 78 43zM832 1372l-21 8l-22 -29h7q15 0 15 21h14v-14l43 36
h-8zM576 1038l-50 -71h7l50 71h-7zM178 228h28q29 -15 29 -36q0 -142 -157 -192h-35q-15 0 -15 21l-7 7h-7v-14l-14 14v8h14v14h-14v7q109 171 178 171zM149 142v-7h7l8 29q-15 0 -15 -22zM114 92v-7q21 0 28 57q-28 -11 -28 -50zM78 64l7 -7l-21 -21v-8h21l15 15v21h-15
l15 21v15q-17 0 -22 -36z" />
    <glyph glyph-name="quotedbl" unicode="&#x22;" horiz-adv-x="435" 
d="M668 1463l25 -26q-19 -189 -57 -254l-83 -44h-12l-26 25q62 299 121 299h32zM363 1431q57 -6 57 -19v-6q-18 -261 -57 -261l-45 -6h-6q-57 11 -57 25q70 200 70 254zM338 1412v-19h6l6 19h-12zM369 1209l-12 -38h12l7 31v7h-7zM299 1158h19v13h-6z" />
    <glyph glyph-name="numbersign" unicode="#" horiz-adv-x="1336" 
 />
    <glyph glyph-name="dollar" unicode="$" horiz-adv-x="1151" 
d="M984 1667l8 -1l-1 -7q-4 -45 -64 -214q207 -18 234 -187l8 -77q-21 -66 -43 -64l-8 1q-49 29 -104 107q23 -2 30 81q4 50 -67 104l1 8l-53 4q-47 4 -179 -484l-58 -146q10 -39 202 -200q144 -179 133 -307q-15 -163 -349 -257l-253 -39q-44 -200 -70 -198l-7 8l1 15
q23 -2 27 43v8l-7 1l-1 -15l-15 1l2 30l18 112l-83 7q-24 25 -80 38q-157 112 -146 232l11 44l-7 9l1 7l8 7l7 -1q13 -1 20 -39l59 -13q3 30 18 29l5 -23l8 -1q2 22 17 21t13 -24l-14 -74q-10 -110 84 -159l90 -16l1 8q55 195 244 713l-7 8q-361 201 -349 341
q12 137 228 268q55 18 88 53h7l-1 -15l8 -1l261 45q57 154 74 153l-1 -8l-10 -29v-8h7l20 59l-5 23zM479 1083l-4 -46q34 -109 102 -137l61 -74l15 -1l189 597l-8 1q-121 10 -294 -164q-55 -108 -61 -176zM444 1290l-1 -7l8 -1l10 29q-15 2 -17 -21zM416 1232l-10 -29
q11 -1 25 28zM382 1189l-3 -37l5 -23l8 -1l2 23l-4 38h-8zM412 1179l-8 -82l8 -1l14 75l-7 8h-7zM347 1132l3 -46l-15 2l-2 -31l15 -1l-4 -45l20 -24l8 -1l-9 160zM383 1106l-2 -22v-76l8 -1l4 45l-3 53zM479 916l6 -23l15 -2zM665 695q-8 -82 -166 -425q-39 -76 -66 -229
l52 -12q2 21 108 21l123 103q100 102 109 210q21 244 -110 305l-7 8l-43 27v-8zM897 326l-8 -97l7 -1l9 98h-8zM911 227l-2 -30l7 -1l3 30zM847 187l-35 -58l7 -8h7l28 58l1 7zM860 156l-2 -16l25 21l1 8h-8z" />
    <glyph glyph-name="percent" unicode="%" horiz-adv-x="1320" 
d="M1291 1251h6l20 -20q-177 -156 -424 -484q-193 -247 -671 -744q-59 -66 -119 -66l-7 7h-6l-20 -7l-7 7v6q136 112 146 140l372 411l338 392q65 56 272 318zM514 1198l7 -7h7l6 7h7q99 -32 99 -120v-13q0 -266 -225 -352v-6q-219 0 -219 126v40q0 104 119 245
q107 80 199 80zM282 800q0 -67 60 -67h26q62 0 153 213l13 79l-6 60l6 20l-20 53h-40q-97 0 -185 -299zM1039 455l59 -7h7q0 -19 60 -46q39 -62 39 -127q0 -174 -212 -278h-7l-13 13l-26 -7q-119 62 -126 113l-20 67q68 202 179 252zM906 96v-13q0 -20 60 -33
q105 10 159 332l-20 26l-7 7h-40q-122 0 -152 -319z" />
    <glyph glyph-name="ampersand" unicode="&#x26;" horiz-adv-x="2153" 
d="M1312 1622l22 -7l21 7q181 0 218 -123v-80l-37 -36l-79 80l14 94q-26 43 -101 43q-163 -9 -363 -188q-65 -64 -65 -131v-14q77 -109 247 -109v-7l-8 -7h-50q-413 0 -725 -283q-124 -153 -138 -253l8 -80v-29h-15v36h-7l-7 -87v-7l7 -109h7v58h15v-7q0 -263 166 -348
q105 -87 392 -87q355 40 355 80q155 0 282 254q29 103 29 195v29q0 68 -217 87h-29q-179 0 -254 -80h-14v15q29 53 217 130l44 8l137 -37l7 8h8q387 -109 521 -109q258 0 471 181h8q-223 -211 -406 -232q-28 -14 -80 -14h-36q-80 0 -254 43l8 -7v-73q-78 -251 -254 -362
q-221 -152 -551 -152h-166q-332 0 -537 275q-38 0 -72 268h14v22h-14q0 173 152 355q81 103 348 218q80 50 312 108l21 -7q22 5 29 29h15v7q-72 0 -109 123q0 107 217 240q100 47 276 72zM232 803l-14 -50v-8h7l22 58h-15zM131 535v-72h7v72h-7zM1696 535v-7l79 -15h15v8
l-80 14h-14zM268 209v-22l8 -7h7v7l-7 22h-8z" />
    <glyph glyph-name="quotesingle" unicode="'" horiz-adv-x="346" 
d="M359 1396q50 -7 60 -91l-5 -34q-13 -95 -129 -157l-22 -17l-13 12l-1 -5l4 -6v-4l-6 -4h-5q-19 38 -16 56l1 10q17 -3 78 67q-85 20 -77 79l4 24q48 81 127 70zM454 1374l-15 -37q0 -24 11 -26l13 62zM412 1356l-3 -20h5l3 19zM397 1284v-4l4 -6l9 -1l1 5z" />
    <glyph glyph-name="parenleft" unicode="(" horiz-adv-x="630" 
d="M888 1603l23 -8l8 8h8l46 -8v-23q-41 0 -208 -184q-17 -2 -168 -207q-88 -111 -261 -507q-21 -17 -77 -269q-11 0 -31 -145l8 -31l-8 -85q0 -107 54 -268l-8 7h-7v-7q18 -54 30 -54v8l-7 38l7 -8q21 -17 39 -69h7v-23h-53l7 -7v-8h-7q-177 223 -177 537q0 335 238 714
q87 164 414 492zM197 306l-7 -31v-31h7l8 54v8h-8z" />
    <glyph glyph-name="parenright" unicode=")" horiz-adv-x="595" 
d="M337 1610h20l20 -21l-6 -7v-7q40 0 126 -336l27 -308q0 -282 -160 -566q-80 -139 -106 -147q-26 -69 -193 -252l-60 -49h-100v7q54 28 160 140q235 361 279 581q53 186 53 412v91q0 316 -80 413l-13 28v14zM477 1197v-28h7v28h-7zM470 833l-13 -56v-7h7l20 63h-14z
M231 218l-13 -21v-7h6l14 28h-7z" />
    <glyph glyph-name="asterisk" unicode="*" horiz-adv-x="282" 
d="M335 1298h6l7 -6l6 6h7q38 -4 38 -13l-16 -63h6l87 26l13 -20v-25l-125 -71l76 -90q-22 -51 -51 -51l-64 58h-6q6 -66 -29 -66l-25 -6l-32 13q-10 51 9 91h-6q-46 -12 -70 -12l-13 20v19q5 16 83 37q-45 43 -60 92q41 32 77 32l7 -6v-6l-7 -7l28 -41l19 -19q27 49 35 108
zM208 1244l7 -19h6l6 19h-19zM419 1209v-6h6l38 12v7h-12z" />
    <glyph glyph-name="plus" unicode="+" horiz-adv-x="1135" 
d="M700 749l7 -7h7l-132 -321q35 -9 35 -21l-7 -7h7l34 7l133 -27q118 0 223 125l7 -7v-7q-4 -46 -125 -174q-28 -42 -105 -42h-28q-84 19 -202 77q-35 -156 -70 -223l7 -7v-7q-57 -58 -167 -84v14l63 139h7v-14h6l70 161l-7 21l7 21h-7l-42 7h-55q-245 0 -321 -91h-7l-7 7
v7l223 153l-7 7l91 21l160 -35v7l35 195l7 35q138 49 160 70zM603 624l-7 -21v-7h7l7 21v7h-7z" />
    <glyph glyph-name="comma" unicode="," horiz-adv-x="422" 
d="M186 210q50 -7 60 -91l-5 -34q-13 -95 -129 -157l-22 -17l-13 12l-1 -5l4 -6v-4l-6 -4h-5q-19 38 -16 56l1 10q17 -3 78 67q-85 20 -77 79l4 24q48 81 127 70zM136 168l-15 -37q0 -24 11 -26l13 62zM94 150l-3 -20h5l3 19zM79 78v-4l4 -6l9 -1l1 5z" />
    <glyph glyph-name="hyphen" unicode="-" horiz-adv-x="975" 
d="M847 446l7 -6q-66 -143 -210 -229h-6l-20 6l-13 -13h-46l-336 68l-46 7v6h-33q0 -17 -59 -26l-72 -52l-6 6h-7q156 190 210 190l59 7q213 -85 284 -101q47 -26 85 -26l13 13v6h-26l-27 -6l-19 6v13q87 0 223 86zM197 377l-7 -7v-6l66 -46h13zM288 364v-7l20 -6h7v6l-20 7
h-7zM585 270v-14h7l13 14h-20z" />
    <glyph glyph-name="hyphen" unicode="&#xad;" horiz-adv-x="975" 
d="M847 446l7 -6q-66 -143 -210 -229h-6l-20 6l-13 -13h-46l-336 68l-46 7v6h-33q0 -17 -59 -26l-72 -52l-6 6h-7q156 190 210 190l59 7q213 -85 284 -101q47 -26 85 -26l13 13v6h-26l-27 -6l-19 6v13q87 0 223 86zM197 377l-7 -7v-6l66 -46h13zM288 364v-7l20 -6h7v6l-20 7
h-7zM585 270v-14h7l13 14h-20z" />
    <glyph glyph-name="period" unicode="." horiz-adv-x="505" 
d="M203 241q78 0 78 -92q0 -94 -92 -134l-28 -7h-14q-62 0 -85 85q33 148 106 148h35zM111 79q3 -15 36 -29l-7 36l14 77h-7q-36 -29 -36 -84zM154 100v-29h7v29h-7z" />
    <glyph glyph-name="slash" unicode="/" horiz-adv-x="569" 
d="M948 1424h15v15h7l8 -7h7l29 7v-15l-103 -140v8l8 7v7h-8l-66 -103l7 -29l-22 -15v15l-81 -111v-7l8 7h7v-7q-232 -325 -560 -891h-7l-8 7q0 -66 -36 -81v15h-8l-51 -104q22 0 22 -14l-8 -8l-7 8h-22l-22 -15l-96 15v14l37 15l-8 8v7l303 457v-8l-30 -51h7l192 302v7h-7
q0 -19 -59 -88v14l147 214l-7 7v8q81 145 117 169l8 -7q96 155 155 287h7v-15l-22 -51q74 118 96 118h7v15h-15l-37 -8l-7 8v7q29 22 103 22v-15zM933 1410q0 -22 -44 -89v-7h8l59 96h-23zM911 1284v-7l-14 -15v8zM749 1159v-7h8l59 95v8zM897 1262v-7l-15 -15v7zM882 1240
v-7l-15 -15v7zM867 1218v-7l-15 -15v7zM830 1159v-15q-53 -81 -66 -81v8zM558 805v-7l29 37v7zM388 643v-14l-44 -59v14q33 59 44 59zM344 570v-8q-39 -72 -51 -73v14q31 58 51 67zM204 268l-59 -96v-7h8l58 95v8h-7zM108 179l-14 -51q12 0 29 44l-7 7h-8z" />
    <glyph glyph-name="zero" unicode="0" horiz-adv-x="959" 
d="M671 1270q193 -58 193 -145q35 -31 35 -172h-7v-21l7 7h14l7 -145q-56 -290 -125 -463q-27 -10 -27 -20l7 -7v-7q-110 -211 -276 -256q-97 -20 -111 -41h-110l-14 14l-7 -7h-7q-26 24 -69 34q-138 168 -138 387q85 435 145 435q118 197 276 338q86 41 200 62zM286 635
h-15v7l15 48v7h-7l-60 -186l7 -21q-30 -109 -30 -186v-69l8 -42l-8 -34q36 -111 105 -111q97 0 187 118q83 84 112 165l-8 7v7q68 136 97 269h8l7 -7h8l37 145h-15l8 49v13h15v-20h7l8 62l-8 55q23 73 23 138q0 166 -98 166h-7q-123 -28 -291 -345q-105 -184 -105 -235z
M809 1146v-21l7 -28h7v21l-7 28h-7zM381 1070h7l62 62h-7q-38 -23 -62 -62zM298 994v-7h7l62 76v7zM450 1028q21 7 21 42q-14 0 -21 -42zM816 1056v-14l7 -55h7v28l-7 41h-7zM167 787l-7 7l-27 -111v-7h7q62 172 131 270v7q-38 -24 -97 -166h-7zM816 911v-34h7v34h-7z
M788 849l-13 -62v-7h7l13 28v41h-7zM830 849l-42 -228v-7h7q42 163 42 221v14h-7zM719 739h14l-7 -35h-13zM747 621l-21 -55v-7h7l21 55v7h-7zM830 614l-35 -110v-7h7l35 110v7h-7zM768 511l-7 -35v-14h14l7 28l-7 21h-7zM747 469l-7 -20v-14h7l7 27v7h-7zM657 373l-41 -104
q14 0 48 97v7h-7z" />
    <glyph glyph-name="one" unicode="1" horiz-adv-x="763" 
d="M822 1327q-133 -88 -281 -533l-156 -466q-140 -277 -267 -319q-38 -27 -118 -44v22q76 0 193 163q99 199 185 526q77 227 118 303v8h-7q-218 -141 -274 -141l-8 8v7q143 49 363 267q184 199 245 199h7z" />
    <glyph glyph-name="two" unicode="2" 
d="M949 1489h68q89 -23 89 -82q-33 68 -116 68v7q-194 0 -355 -246v-6l184 34q198 -29 198 -130l7 -68h7l82 205h14v-7q-94 -323 -308 -478l-519 -424q-113 -146 -150 -286h7q137 54 184 54q35 0 280 -68l34 -7q135 0 233 96l6 -7q-81 -157 -211 -157l-62 -7l-403 48
q-110 -7 -198 -28h-6l20 69v7h-7l-13 -69l-14 14q72 249 246 362q14 32 239 218q29 0 225 171q157 186 157 294v13q0 144 -109 144q-171 -26 -171 -82q-20 -45 -20 -96v-48l13 -54q-18 0 -27 68v21q0 79 34 136h-13q-99 -37 -178 -150q-14 -55 -27 -55l-7 7q0 -18 -103 -48
l-6 -7l-7 7v7q38 112 130 157q65 59 245 144q81 163 260 245zM1106 1407q16 0 21 -34h-14zM1120 1359h13v-27h-13v27zM1120 1311h13v-27h-13v27zM587 936l21 -21h-7l-14 14v7zM888 902l-14 -21h7l13 21h-6z" />
    <glyph glyph-name="three" unicode="3" 
d="M478 1293q281 -43 386 -43q145 27 158 43h7l22 -21q0 -49 -323 -316q-18 0 -107 -100h14l43 7q85 0 201 -229l14 -79q0 -390 -222 -515q-145 -65 -308 -65l-50 -7q-287 0 -287 286v8h-14q34 150 57 150q86 -81 86 -107q-64 -111 -64 -179t172 -115h64q152 31 215 100
q160 140 244 530q-41 186 -122 186h-58q-25 0 -164 -64l-7 7v7l436 387q-67 0 -293 65l-7 -8l-36 8h-29q-129 0 -229 -79v7q44 136 201 136zM728 348v-8h7q29 79 43 79v-14l-129 -215q101 123 101 150h7l7 -7h7l22 101v57zM800 376v-7l14 14v8zM836 362v-14q-22 0 -22 -15
v-7h14l15 29v7h-7zM55 326l-7 -57h7l14 14l-7 43h-7zM692 312l-14 -43q16 0 22 36v7h-8zM750 219l-7 7q-8 -32 -43 -79v-7l7 7h14v-7l-7 -7v-7h7q14 0 22 57q27 12 50 79z" />
    <glyph glyph-name="four" unicode="4" 
d="M1236 1377l7 -7v-8q-162 -86 -227 -198q-93 -105 -256 -439l-66 -103q144 0 212 -66h-15q-90 22 -197 22h-15q-108 -159 -257 -447q0 -49 -249 -161q-47 -34 -95 -44v15q186 94 286 278q144 225 212 359l-29 8q-266 -30 -410 -66l-22 7l-22 -7v7q0 288 696 769l7 -7v-7
q-402 -359 -462 -506q-51 -85 -51 -168l8 7h7v-22q163 29 278 29h22q209 402 242 440q77 157 154 176q143 106 242 139zM686 600v-7h37v7h-37z" />
    <glyph glyph-name="five" unicode="5" 
d="M1418 1275h21v-7q-131 -156 -262 -156h-35q-103 0 -269 92l-64 7l-269 -382h14l71 29l50 -8l28 8q84 0 198 -227l14 -78q0 -384 -219 -509q-143 -64 -304 -64l-50 -7q-283 0 -283 283v35q0 92 42 121q4 -25 78 -78v-21q-56 -60 -56 -163v-7q0 -85 170 -128h63
q150 31 212 100q158 138 241 523q-40 184 -120 184h-50q-44 0 -170 -64l-7 8v14q37 111 220 403q50 78 162 78q214 -57 283 -57h121q90 0 170 71zM144 320v-21h7l7 21h-14z" />
    <glyph glyph-name="six" unicode="6" horiz-adv-x="932" 
d="M966 1295h7l21 -21q-184 -58 -301 -140q-46 -7 -245 -251q-104 -164 -104 -189l-7 -7v-7l7 -7v-7q-28 -32 -84 -294v-83l7 -49l-14 -14v-42q0 -130 98 -168q174 0 237 252l7 42l-14 90l7 21h-14v35q0 56 -56 56q-40 0 -160 -119l-28 -14h-14v14q107 168 251 168h28
q161 -36 161 -251q-53 -224 -112 -224q-131 -105 -286 -105q-217 40 -217 105q-22 0 -63 147l21 118l-7 7v7q71 318 280 539q15 1 97 118q171 176 413 259zM365 883l-63 -91h7l63 91h-7zM162 428l-7 7l-28 -56l7 -7h7l-7 -35v-48l28 -7l7 48v7h-7q0 -21 -14 -21h-7v7l35 77
l-7 21h7q14 0 14 42q-14 0 -14 -28l-7 -7h-7zM672 268l21 21v21q-14 0 -21 -42zM141 282l-7 -28l7 -21h7l7 28l-7 21h-7zM155 219l-7 -28l28 -70h7v7l-21 91h-7z" />
    <glyph glyph-name="seven" unicode="7" horiz-adv-x="987" 
d="M1136 1316q0 -61 -96 -104q-55 -52 -139 -248h7l-276 -545q-130 -311 -200 -311l-235 -207l-6 7q0 15 214 283q164 257 324 642q109 199 131 269l76 62l-69 -7l-614 62q0 -17 -83 -34l-69 -55h-7l-7 20q110 126 207 159h76q307 -62 538 -62h7q62 0 221 69z" />
    <glyph glyph-name="eight" unicode="8" 
d="M655 1283l34 -14l7 7h7l21 -14l20 7v-7q124 -85 124 -172v-69q-28 -124 -69 -124q-96 -93 -96 -124l48 -41l7 7h14l55 -83q76 -165 76 -200q0 -332 -255 -427v14h14v21q-42 -55 -179 -83h-14q-193 5 -193 28l7 6h-14v-13h-7q-44 0 -110 89q-35 60 -69 186q0 188 186 393
q121 81 207 96l-7 7q-81 26 -117 97v27h13v7q0 35 -20 35q0 223 158 289zM613 1235l-6 -21l-7 7h-7q-49 0 -110 -220v-49q40 -131 103 -131q123 68 124 97q58 119 27 213q-19 97 -68 97zM510 1166l-55 -124h14q8 47 48 117v7h-7zM441 1021l-14 -82l7 -21h7v21h14v-14h7v27
q0 14 -21 14l7 35v20h-7zM448 918v-14l21 -21v7zM421 877l-7 -7v-7q10 -26 48 -55v20l21 -13h6l-20 62h-14l7 -35v-14q-14 0 -21 42zM496 815l-13 -21h41v7zM262 215q35 -148 55 -158l76 -28h48q104 0 214 131l27 83h14v-7l-7 -21h7q30 0 41 97v13h-6q0 -68 -42 -68v6
q35 111 35 159v48h13v90q-13 0 -13 34q-59 145 -124 145q-276 -118 -276 -228q-29 0 -62 -296zM737 697v-6l14 -14v7zM269 567h7q18 0 34 55q-15 -4 -41 -55zM235 436q20 0 48 89q-26 0 -48 -89zM786 422q0 -48 -21 -103v-7h7l27 110h-13zM221 367v-7h7l13 55q-16 0 -20 -48
zM221 319l-14 -49v-7h7l14 49v7h-7zM765 236l-7 -21v-7h7l7 21v7h-7zM779 133q-45 -49 -62 -49v-7h14l55 56h-7z" />
    <glyph glyph-name="nine" unicode="9" 
d="M632 1270h78q228 -38 228 -128q26 0 42 -142v-14q0 -205 -185 -512q-322 -395 -476 -441q-30 -31 -234 -85h-29l-14 14v7q1 11 185 64l156 93q268 262 334 426l-7 7v7q93 246 93 377l-8 71l15 14v43q0 138 -100 163h-14q-164 0 -228 -255l-7 -36q0 -206 93 -206
q49 0 163 71q29 -11 29 -21v-7q-67 -75 -150 -86l-35 -7l-7 7l-50 -7h-43q-163 36 -163 242v14q0 103 92 227q175 100 242 100zM419 1135l-7 -28q10 0 21 28h-14zM888 1114v-7l7 -22l-7 -35l7 -86l-21 -113l7 -7v-8l-7 -35v-7h7l42 128l-7 21l7 43q0 45 -28 128h-7zM333 986
v-22h8q0 45 49 143q-57 -60 -57 -121zM362 993l7 -22l-7 -42h7q28 0 28 -50h7v14l-7 57h-14l21 121q-19 0 -42 -78zM419 1043l-7 -29v-14h7l7 35v8h-7zM746 460l-50 -78h7l50 71v7h-7z" />
    <glyph glyph-name="colon" unicode=":" horiz-adv-x="505" 
d="M203 241q78 0 78 -92q0 -94 -92 -134l-28 -7h-14q-62 0 -85 85q33 148 106 148h35zM111 79q3 -15 36 -29l-7 36l14 77h-7q-36 -29 -36 -84zM154 100v-29h7v29h-7zM292 770q78 0 78 -92q0 -94 -92 -134l-28 -7h-14q-62 0 -85 85q33 148 106 148h35zM200 608q3 -15 36 -29
l-7 36l14 77h-7q-36 -29 -36 -84zM243 629v-29h7v29h-7z" />
    <glyph glyph-name="semicolon" unicode=";" horiz-adv-x="505" 
d="M186 210q50 -7 60 -91l-5 -34q-13 -95 -129 -157l-22 -17l-13 12l-1 -5l4 -6v-4l-6 -4h-5q-19 38 -16 56l1 10q17 -3 78 67q-85 20 -77 79l4 24q48 81 127 70zM136 168l-15 -37q0 -24 11 -26l13 62zM94 150l-3 -20h5l3 19zM79 78v-4l4 -6l9 -1l1 5zM258 750q78 0 78 -92
q0 -94 -92 -134l-28 -7h-14q-62 0 -85 85q33 148 106 148h35zM166 588q3 -15 36 -29l-7 36l14 77h-7q-36 -29 -36 -84zM209 609v-29h7v29h-7z" />
    <glyph glyph-name="semicolon" unicode="&#x37e;" horiz-adv-x="505" 
d="M186 210q50 -7 60 -91l-5 -34q-13 -95 -129 -157l-22 -17l-13 12l-1 -5l4 -6v-4l-6 -4h-5q-19 38 -16 56l1 10q17 -3 78 67q-85 20 -77 79l4 24q48 81 127 70zM136 168l-15 -37q0 -24 11 -26l13 62zM94 150l-3 -20h5l3 19zM79 78v-4l4 -6l9 -1l1 5zM258 750q78 0 78 -92
q0 -94 -92 -134l-28 -7h-14q-62 0 -85 85q33 148 106 148h35zM166 588q3 -15 36 -29l-7 36l14 77h-7q-36 -29 -36 -84zM209 609v-29h7v29h-7z" />
    <glyph glyph-name="less" unicode="&#x3c;" 
 />
    <glyph glyph-name="equal" unicode="=" 
 />
    <glyph glyph-name="greater" unicode="&#x3e;" 
 />
    <glyph glyph-name="question" unicode="?" horiz-adv-x="803" 
d="M783 1502l26 -3q248 -78 220 -276l-8 -53q-24 -171 -342 -407q-4 -29 -49 -55q-239 -251 -259 -391l-75 -3q-38 14 -37 25l8 54q25 81 360 390q211 288 226 397l7 53q31 220 -102 239q-240 34 -348 -108q-49 -59 -61 -141l-10 -73q-8 -58 -150 -149l-7 1q-17 67 -19 153
q28 112 149 237q222 145 471 110zM900 1418l-1 -7l14 -43l7 -1l11 33l-6 1l-18 16zM916 1287l-7 -47l7 -1l10 26l-4 21zM259 190q93 -13 84 -73l-3 -27l-8 -6l6 -7l-1 -7q-53 -101 -148 -88q-43 36 -35 93q34 125 105 115zM259 142l-10 -19l-2 -13l7 -1l10 26l1 6zM201 116
l-30 -63l4 -21l13 -2l-5 7l3 20l20 52l1 6zM219 100l-13 -39l-2 -20l6 -1l15 53v6z" />
    <glyph glyph-name="at" unicode="@" horiz-adv-x="2082" 
d="M1350 1328q449 -120 449 -187q178 -119 178 -288q0 -253 -271 -516q0 -46 -271 -161l-136 -26q-103 0 -254 85q-25 34 -25 102q-203 -187 -280 -187q-33 -16 -93 -16h-17q-110 10 -110 93v67q0 216 466 424l118 42q246 0 246 -135l-25 -17q-85 8 -85 25h8q-28 76 -152 76
q-243 -59 -390 -245q-33 0 -42 -161q0 -93 51 -110h25q169 41 381 347l85 17h9v-17l25 -8q-93 -136 -93 -204q0 -91 110 -127l59 -8q184 0 373 212q70 69 110 423l-34 152v9h9v-17h8v8l-8 34l-9 -8h-17q0 79 -203 212l-136 50l-118 9q-624 0 -788 -280q-217 -258 -296 -533
v-17h17l-26 -186q0 -344 263 -525q100 -68 203 -68h51v-17l59 8q461 0 635 127h9q51 -20 51 -34v-8l-136 -59q-206 -60 -466 -85l-42 8h-76q-332 0 -593 314q-144 188 -144 440v9q0 372 364 660q315 228 635 280l237 8h17l85 -8v17zM1816 1014v-8l8 -26h9v9l-9 25h-8z
M402 921l-60 -85v-8h9l59 93h-8zM308 913l-84 -119h8l93 119h-17zM1850 887v-59l8 -59h9v59l-9 59h-8zM232 853q-154 -206 -161 -288v-8h9q31 119 161 296h-9zM148 616q67 76 67 119q-67 -50 -67 -119zM1858 599l-8 -25v-9h8l9 26v8h-9zM1232 565h8l17 -16l-9 -9h-8l-8 9v16
zM97 523l-26 -169v-17h9l25 110l-8 8l8 43v25h-8zM1189 498l-17 -34v-9h9l17 34v9h-9zM114 303v-51h8v51h-8zM88 294l-8 -33l25 -111h9v9l-17 135h-9zM164 261v-60h9v60h-9zM54 201v-8l34 -119h9v9l-34 118h-9z" />
    <glyph glyph-name="A" unicode="A" horiz-adv-x="2772" 
d="M2702 1620h20v-14q-61 0 -61 -34l-7 7h-7l-103 -55q-67 -5 -390 -322q-33 -15 -199 -233q-94 -128 -308 -376l48 6h123l110 -13q190 327 390 548q302 296 302 411h7l13 -21v-34h-13v-7l6 -27l-6 -21l-7 7h-7l-41 -75h13v-7q-280 -371 -280 -391q-206 -272 -206 -376
l-34 -35v-13q56 0 178 -48l144 -14h185q40 0 68 27l14 -13h7q94 0 192 48l6 -7v-7q-113 -69 -212 -69q-24 -48 -185 -48h-27q-217 0 -391 89h-6q-52 -39 -137 -287v-7h-14v34h-7l-89 -185h7q183 35 281 35q325 0 431 -247l21 -123q-16 -2 -62 -158q-20 0 -103 -116
q-205 -157 -493 -172q-261 0 -281 233l7 213q14 0 14 20q0 98 20 240h-6q-30 -21 -151 -55q-351 -179 -569 -322l7 -7l-445 -198q-210 -62 -322 -62v14h55v13h27q59 0 137 35l7 -7h7q240 52 1034 527q37 0 233 110q89 254 240 493l14 14v7q-160 34 -274 34
q-177 -181 -288 -247q-227 -171 -302 -171q-271 -158 -568 -158q-243 0 -397 281l6 7v7l-6 27l89 -157q128 -130 253 -130h34v13h76l61 14v-7q218 76 528 247q194 113 651 596l54 75l-7 7v14l28 7l-7 6v7q252 310 329 350q213 158 315 185h7l7 -7q173 75 212 75zM1202 1572
q282 0 363 -240l14 -75q0 -282 -411 -603q-141 -89 -172 -89q203 109 336 267q135 143 158 315v21q27 0 27 103l-21 82h14q0 62 -55 89q0 27 -34 27q41 -68 69 -150l-7 -41h-14v20q-33 247 -247 247h-48q-200 0 -411 -130l-6 6h-7l-69 -34v-7h7l62 35h7l-7 -7v-7h13v-14
q-51 -4 -102 -48l-7 7h-7q-27 -7 -123 -96l7 7h20q-73 -36 -226 -212v6l7 7v7h-14l206 206h-7q-266 -228 -349 -418q-103 -150 -103 -308h-14l-7 -117h14v-7l14 -89l-7 -27q-41 27 -48 219q0 459 671 897q281 151 514 151zM647 1339v-7l-27 -27h-7zM599 1298h7l-14 -14h-7z
M1476 1250h14v-27h-14v27zM1496 1113l-6 -20v-14h6l7 27v7h-7zM325 1045v-7l-14 -14v7zM2188 928l-20 -41v-7h7l20 41v7h-7zM168 908l-83 -158h14q0 25 75 151v7h-6zM2140 846l-7 -7v-14h7l7 21h-7zM2106 812l-14 -28v-7h7l14 28v7h-7zM1681 757l-20 -27h7l20 27h-7zM44 593
v-28h7v28h-7zM1901 380l-7 -20h7l6 7v13h-6zM1195 257q0 -14 -21 -14v-7h14q0 14 21 14v7h-14zM147 216l55 -55h-7l-48 48v7zM2017 72v-14h-7q-233 0 -233 -41q-123 -298 -123 -500q20 -181 150 -213l69 -6q135 20 254 41v7h-21q0 14 34 14q145 43 219 191q35 60 69 172h7
v96q-28 0 -28 68q-72 171 -260 171l-41 7v7h-89zM2394 -31v-7q41 -57 41 -75h7v7q0 34 -48 75zM1640 -72v-34h7l7 34h-14zM2476 -161v-7l7 -75h7v48l-7 34h-7zM2455 -181v-96h7v96h-7zM2448 -284v-28h7v28h-7zM2442 -318v-28h6v28h-6zM2435 -353l-14 -48v-7h7l14 48v7h-7z
M10 -647h82l34 -7v-7l-48 -7l-68 7v14z" />
    <glyph glyph-name="B" unicode="B" horiz-adv-x="2208" 
d="M1716 1549h6v-6q-81 -91 -109 -91v-12q142 -18 188 -55v-18l-31 6q14 -29 49 -54l18 12q79 -105 79 -158v-24q0 -137 -249 -285l-6 6h-6q-52 -24 -103 -31l-6 7q0 -13 -24 -13v-6h12l6 6h6q249 -70 436 -315q55 -97 55 -188q0 -259 -412 -406l-128 -31l-24 6
q0 -18 -24 -18l-12 12q-118 -24 -200 -24l-219 18v-6q0 -107 -164 -291q-226 -200 -479 -200q-306 0 -406 224l-18 97q0 85 61 176v-12q-43 -74 -43 -151v-25q0 -193 255 -273l133 -12h24q296 0 540 304q44 80 67 169q-262 43 -419 128q-66 48 -66 60h-6q-155 -72 -249 -72
l-109 12l-18 -6l6 6v6l-49 12v12l170 -12q115 0 218 91q0 42 -24 42v12q16 0 43 79q60 41 169 85l73 97l-12 49q0 137 206 279q80 205 267 400q11 0 115 121l85 79l-255 24v12q127 7 170 25q219 -21 219 -43l-31 -24q0 -23 -54 -42q-109 -115 -340 -473h12l24 24l25 -6l6 6
l30 -6q152 0 285 30l-6 6v12q115 0 200 91q54 81 67 152l-6 6h12v-6q0 -71 -73 -170h6q87 56 115 146l19 6q-19 128 -116 224q-209 91 -430 91l-43 6h-285l-54 6l-279 -30v-6h48l243 12h85l42 -6v-12h-145q-267 0 -425 -49v-6h-6l-18 6q-181 -18 -291 -54v12h18v6h-12
q-263 -39 -582 -249q-109 -79 -158 -170l-6 6q-36 -64 -36 -85l12 -133h6l12 170h12l-12 -158q0 -185 158 -224v-6l-6 -6v-6q191 -73 418 -73l42 6l-6 61v66h13v-54l12 -73q262 0 400 170q42 68 42 151v31h12v-31l-6 -66v-6h6l25 127q-28 139 -128 139l-36 6h-18l-91 -18
q7 24 97 31h36q138 0 158 -170v-12q0 -137 -140 -285v12h-6q-172 -122 -218 -122v13q38 0 79 36h-6q-84 -30 -170 -30v-6l6 -6v-7h-6l-18 13h-6q127 -207 321 -207h73v-12h-73q-219 0 -333 219h-37l-42 -6q-273 0 -479 115q-109 87 -109 109h-6v-6l18 -30v-7q-67 51 -67 194
q0 352 776 607q370 109 619 109l382 24l85 -6h79l36 -6l6 6l249 -24q97 39 182 91zM1036 1452h67v-12h-67v12zM236 1373v-6h18l291 36v7h-48zM800 1410v-13h6l121 6v-12l-73 -12l-127 6l-97 -12h-6v12h6zM521 1379h91v-12h-91v12zM1825 1306v-6l18 -18v6zM1879 1240v-6
l13 -97q-14 0 -43 -91q23 5 55 103v18l-19 73h-6zM1831 1185v-6l6 -18h6v18l-6 6h-6zM1273 1149l-55 -73h6l55 67v6h-6zM1024 906v-6h6q32 62 116 170v6h-6q-72 -84 -116 -170zM1782 1058l-12 -24v-7h6l12 25v6h-6zM800 391q55 -37 79 -37v-12q-55 14 -85 37l-18 -31v-6
q36 -6 36 -18h-6l-36 6l-37 -42v-6q137 0 261 -201q30 -72 30 -157l49 -6q563 0 685 230q57 61 79 176v67q-18 0 -18 79q-49 212 -134 272q-129 85 -248 85l-134 -6l-127 18q-116 0 -170 -145q-101 -162 -206 -303zM-649 815l-7 -30q0 -111 43 -188h6v6q-36 49 -36 212h-6z
M733 470h12l134 242q-146 -106 -146 -242zM1801 658v-7l66 -84h6q-45 73 -72 91zM1855 621v-6l73 -73v6zM30 609v-18h-12v6zM1873 542l6 -6h6v18zM1861 542v-6q14 -97 31 -97l-7 -36l7 -103h6l6 103v42q-12 12 -19 73zM-437 488h24v-12h-24v12zM381 476v-13l-18 -18v6z
M1940 445v-6l6 -24h12l-12 30h-6zM339 415v-6l-12 -12v6zM1940 391v-25h12v7l-6 18h-6zM145 373v-13l-49 -6v12zM66 366h18v-12h-6zM1940 342l-6 -36v-6h6l6 36v6h-6zM582 288h12q31 0 36 18v6q-48 -11 -48 -24zM1867 288l-6 -37v-6h6l6 24v19h-6zM503 209v-12l6 -6l-6 -6
v-7l6 -18l30 25l-6 6v12q27 0 67 66h-18q-79 -7 -79 -60zM709 263l-158 -176q17 -37 115 -72v-6l-6 -6q258 -79 328 -79v42q0 159 -188 273zM1952 245v-6l12 12v6zM1922 154v-6h6q14 0 18 30zM1898 106h6l12 18v6zM109 3h6l-85 -91v6q0 15 79 85zM1558 -34v-6h12l18 6v6h-6z
" />
    <glyph glyph-name="C" unicode="C" horiz-adv-x="1447" 
d="M1389 1532l102 -32l32 7h12l83 -77l-7 -6q23 -57 39 -57v-19q0 -130 -242 -146l-146 -6q-152 0 -514 50q-242 -207 -387 -450q-63 -163 -63 -292v-152h12q0 22 210 234l184 115q212 82 304 82h58q195 0 266 -171l13 -57v-51q0 -113 -76 -241q-42 -97 -191 -191
q-256 -133 -552 -133l-95 19h-6v-6q38 -7 38 -19h-7l-70 6v13h13v6q-67 0 -158 133q-13 0 -13 -19q0 -14 76 -82h-6l-77 63h-6l-44 -203v-76q0 -110 108 -222l-7 -7v-6q20 -82 260 -82h20q145 0 336 63q0 -34 -298 -76l-77 -6q-346 0 -406 304l-6 70q0 127 76 324
q-70 190 -70 330v63q3 129 102 349q159 248 387 394q-147 44 -413 44v-12h-19l-31 6q-159 -22 -318 -95q-412 -213 -520 -514q-32 -140 -32 -216q0 -171 114 -254l51 -6q244 0 489 253q82 112 82 172v32q0 108 -127 139h-6v13h6q159 -35 159 -178q0 -74 -57 -152
q-13 0 -13 -32q-277 -279 -539 -279q-44 0 -114 38l-7 -6q-95 99 -95 209v6q0 519 704 832q127 38 337 70q117 0 381 -51q335 208 514 222l95 13h19l25 -7zM780 1259q325 -44 476 -44h70q229 0 260 133l6 19q0 133 -241 133q-246 0 -571 -235v-6zM431 1107v-7l13 13v6z
M386 986h13q64 52 76 108q-81 -78 -89 -108zM310 288v-13q0 -34 89 -152l-6 -6v-7l70 -50q101 -40 101 -51h45l177 12l26 -6q63 0 355 152l32 39v6h-6q0 -12 -70 -64h-7v7q140 127 140 171l6 26l7 6h6v-13h6l7 19v7h-7v-13h-6v13q32 96 32 139v32h12v-13h7v13l-26 95l-6 -6
h-6q0 112 -254 133h-6q-228 0 -508 -216q0 -21 -76 -76q-75 -81 -134 -184zM234 643l-6 -19v-6h6l7 19v6h-7zM-750 624l-6 -44v-6h6l7 25v25h-7zM1300 586h13v-19h-13v19zM-699 282v-7l19 -12v6zM164 212v-13l19 -51h7v19l-19 45h-7zM2227 123h19q298 0 394 -241l6 -57v-19
h-13q-32 158 -89 158q-80 134 -317 134h-32q-375 0 -730 -223q158 147 515 223q99 25 247 25zM355 2v-6l57 -19q0 17 -51 25h-6zM488 2v-6l70 -13h19v7l-76 12h-13zM748 -4v-6h26v6h-26zM590 -17v-6h38l44 6v7h-25zM704 -10v-7h38v7h-38zM342 -36h13l12 -12h-12zM221 -429
v-13l45 -38v6q-22 45 -32 45l-6 -6zM279 -455h6q53 -38 70 -38v-12q-70 27 -76 50zM907 -467h13l-13 -13h-13z" />
    <glyph glyph-name="D" unicode="D" horiz-adv-x="1944" 
d="M510 1760q37 -16 75 -94l54 -87h60q211 0 436 -68q131 81 268 94l7 -6l87 13l108 -13v-14l-34 7h-74q-123 0 -281 -87v-27q145 -29 362 -215q0 -27 27 -27q852 336 1542 336q608 0 1033 -235q192 -129 262 -349v-13h-14q-57 217 -261 342q-75 50 -316 127
q-315 94 -643 94q-182 0 -477 -40v13h-26v-6h13v-14h-20v14h-7l-329 -54v-7h7l134 21v-14q-56 0 -208 -40v13l61 14v6h-14q-325 -80 -590 -174l7 -7v-6h-7l-20 6l7 -6v-7h-7l-20 7l7 -7v-7h-7l-20 7l6 -7v-7l-20 -6l-20 6v-13l-6 7h-14q0 -20 -20 -20q0 -14 87 -114
q134 -191 134 -396v-34q0 -405 -530 -617l-295 -73l-6 6q-126 -20 -336 -20q-99 0 -335 40l7 -6v-7h-7q-74 15 -74 34l-20 -7l-40 7q-75 -77 -268 -141l-54 -7h-14q-114 22 -114 40v14l182 -7q72 14 194 141q-119 40 -141 67v7h7l147 -68q186 163 389 631v7
q-168 -94 -187 -94v13h13v7h-13q0 -15 -61 -47l-13 -13v-7l-7 7h-7q-149 -94 -301 -94q-224 0 -275 214l-7 54q0 238 188 463q109 198 362 295q213 67 329 67h53q0 90 -95 188zM-253 801h-14v-41l7 7h7l6 -7v-47q35 -201 195 -201q297 0 583 416q81 160 81 208l-7 -7h-6v7
q46 184 46 241l-26 168h-114q-175 0 -369 -101q-389 -315 -389 -643zM666 1545q0 -94 33 -94l-7 -47v-53l14 -14q-34 -346 -94 -389l-101 -161l-73 -74l-54 -47v-6h7q194 86 194 141q148 263 295 462v-13l-20 -34v-6h7l53 94l-6 6v7q133 161 167 161q0 30 -335 67h-80z
M706 1505l13 -47h-13l-14 13v20zM2651 1491v-20h-14l-80 -6v13zM2517 1471h27v-13h-27v13zM833 928l7 -20q-15 0 -20 -34q247 139 724 336q-59 70 -167 134l6 7q-119 60 -134 80l-47 13q-220 -112 -369 -516zM907 1304v-7l-20 -27v13zM243 56v-13l262 -41l26 7l141 -13
q299 0 456 60l-6 -7v-6h6l88 26v7h-7l-74 -20q30 34 54 34v-7q141 34 228 121q54 24 100 80v7h-6l-61 -54l-6 7q-88 -61 -88 -87l-6 6h-7q0 36 101 88q35 42 87 67q41 36 114 214q38 0 74 329q-39 217 -128 308l-27 21q-219 -81 -275 -128q-223 -67 -496 -228l-188 -308
q-121 -268 -362 -470zM961 1129v-7l-20 -20v7zM-220 1035l-13 -47v-6h7l13 47v6h-7zM753 962v-7h7l40 80zM853 1029l-6 -21v-6h6l7 20v7h-7zM4435 955h13v-27h-13v27zM820 941l-7 -20v-13h7l7 27v6h-7zM-267 935l-20 -101h14l13 94v7h-7zM1745 921v-13h14v-7l-7 -20
q20 0 20 -87l14 13q-15 114 -41 114zM1745 847v-6l7 -101h7l7 47l-14 60h-7zM1779 780l-7 -47v-6h7l7 33v20h-7zM-273 747v-14l20 -100h6l-20 114h-6zM1719 747v-54h6v54h-6zM545 626v-7h7l26 54v7q-10 0 -33 -54zM1745 666l-13 -73v-7h7l13 60v20h-7zM531 526l-13 -34v-7h7
l13 34v7h-7zM1645 485l-27 -60v-7h7l27 61v6h-7zM1645 311l-40 -47h6l41 47h-7zM1538 244l-7 -7v-7l20 7v7h-13zM350 -11h21v-13h-7z" />
    <glyph glyph-name="E" unicode="E" horiz-adv-x="1450" 
d="M870 1750v-7q-4 -71 -49 -181h7q59 -39 140 -63q78 103 322 160l139 21q231 -38 231 -167v-14h-7q-42 -59 -140 -98l-42 -7h-49q-129 0 -335 56l-14 -77q11 -84 35 -84l7 7q24 -77 105 -77l35 -7v-14l-147 21l-7 7l-21 7v-7q0 -14 -21 -14q-357 -75 -503 -230
q-42 -44 -42 -63l-21 14q-131 -110 -195 -280q-5 -55 -21 -55l14 -28l-21 -91q0 -269 132 -342q110 -84 210 -84l63 7v-14h-21v-7h14q79 7 98 21l21 -7q314 81 501 207l150 136l18 -7q-108 -133 -257 -231v-7h14q0 -21 -28 -21l-7 7h-14v-7h14q0 -21 -196 -98l-161 -28v14
h-20l7 -7v-14h-14v14l-140 -35l-35 -7l-161 28h-7q0 21 -42 21h-7v-7h14v-14h-7q-123 34 -216 119v7h7l7 -7h7v7l-42 21v7l7 7v6q-48 14 -84 84q-30 39 -63 189h14l7 -49h7q0 340 266 538l90 91v7l-63 35q-128 -104 -405 -259l-104 -70l-21 7q-404 -247 -678 -475
q-405 -361 -405 -566q0 -170 202 -216l126 -14h70v-14l-140 -7h-14l-7 7l-42 -14l-139 35h-21v7l7 7v7l-98 49v7l7 -7h7v7q-28 31 -28 126h-7v-28h-14v7q0 224 489 656q272 196 719 475h-6q-233 -77 -413 -77h-56q-106 0 -125 91v14q0 161 433 321l7 -7q97 21 279 35
q201 0 350 -76q331 245 426 433l28 49q0 12 -91 90l-7 84q71 125 188 7zM717 1673q35 -65 70 -76q71 147 3 161.5t-73 -85.5zM1101 1471v-14l91 -21l7 7h7l84 -14h27v-14h77q182 19 182 91l7 21q-16 97 -119 97l-56 7v14h35v7h-42q-230 -43 -230 -104q-37 -25 -70 -77z
M1108 1562h7l49 28v7h-7q-45 -19 -49 -35zM1017 1492v-7h7l70 70h-7q-63 -45 -70 -63zM815 1548q0 -49 -154 -252q-62 -40 -147 -133l-84 -41l7 -7v-7l-63 -42v-7l56 -35h7q284 178 580 216q-77 66 -77 98h14v14l-7 -7h-7l-7 7v84l28 49zM975 1478l-21 -84l7 -21h7l35 98
l-21 -14h-7l7 7v14h-7zM1038 1415l-7 -21l7 -49h7v70h-7zM668 1345l-56 -63h7l56 63h-7zM472 1163q41 19 98 84h-7zM1031 1226v-7h28v7h-28zM724 1135v-7h7l56 21v7h-7zM-652 919l-7 7h-7l-56 -77v-7h7q5 35 21 35h7v-7l-21 -56v-42q26 -49 111 -49h21q445 0 888 343v7
q-115 69 -287 69h-63q-332 0 -517 -146q-23 0 -97 -77zM549 1073q0 -14 -21 -14v-7h14q0 14 21 14v7h-14zM298 877h7l132 119h-7q-88 -65 -132 -119zM479 975h7l14 14h-7zM353 856v-7l119 112v7q-53 0 -119 -112zM298 856l-91 -91l7 -7v-14q-91 -188 -91 -335v-21l7 -35h7
l-7 35v7q1 70 14 70l-7 21q58 177 147 321h-7l-14 -14v7l42 56h-7zM-729 835v-49h7v49h-7zM326 765l-35 -84v-7h7l35 84v7h-7zM179 723l-49 -111v-7h7l49 111v7h-7zM186 346v-28h7v28h-7zM109 290v-14q10 -29 35 -42v7q-24 49 -35 49zM1303 220v-7l-13 -14h-7zM1276 199h7
l-21 -21h-7zM-1037 137l-14 -21h7l14 21h-7zM416 81v-7l21 -7h7v7l-21 7h-7zM542 4v-7l84 -7h21l35 7v7h-140zM-1246 -122l-14 -28h14l7 21v7h-7zM-1302 -394v-28q23 -49 56 -49l7 7v7l-35 35v-7l7 -21h-7q-21 4 -21 56h-7zM-848 -527h21v-14h-21v14z" />
    <glyph glyph-name="F" unicode="F" horiz-adv-x="1390" 
d="M-82 1818l34 2q132 4 208 -158q22 -44 24 -108l1 -27h-14l-1 20q-3 80 -53 174h-7v-7q36 -37 71 -268l-5 -75l1 -27h-13l1 -14h13l1 -40h-6l-7 7l-7 -1l1 -34l15 -13h6q166 121 293 126l48 1q143 -13 144 -35q35 -14 83 -65l-1 34h14v-13l46 -168l-5 -20l28 -26v-7h-7
l-7 6h-7q1 -28 -19 -49l-7 7h-13l1 -27l7 7h6v-14h7q1 -111 -59 -239l20 15v-7q-161 -209 -270 -213h-14q-102 -4 -199 60q-29 -1 -58 141l10 67l14 1l-5 -67q59 -181 204 -176l40 1q46 2 139 72l39 62l-8 21q50 62 68 219l-7 6l-1 7q13 31 11 89l-41 12l-34 -1l-81 -10v13
l94 18l55 -12l12 21l-15 60l6 21q-40 96 -65 99l1 -13l-91 70l13 1v7h-7l-6 -8h-7l-48 12q-136 -4 -294 -118q-66 -40 -58 -253l-3 -122v-13l18 -102h-14l-25 141l5 244l-8 20l7 7h-7l-13 -20l8 -7v-7q-199 -321 -189 -623l1 -20q8 -231 183 -394q103 -52 165 -68l1 -14
q-155 26 -277 153q-128 184 -132 307l-14 -1q5 238 47 395q63 138 159 290v7h7l7 -7l7 1l45 62l7 -5l6 20v13h-7v-20l-14 -1q30 135 26 258l-1 14l-16 88l7 7l-1 7q-36 177 -107 174q-44 39 -75 38l-41 -2q-41 -1 -121 -31q43 42 127 45zM1267 1768l7 1l35 -26l7 7l20 1
q27 -20 239 -74q122 -50 254 -72l20 1q170 115 294 119q95 -4 96 -31l-27 5q-143 -5 -233 -116q-21 -1 -21 -14q352 -62 613 -53q411 14 947 236q-40 -48 -394 -170q-56 -2 -228 -62v-6h7l121 32q0 -14 -21 -15l1 -7h7l67 16l1 -14l-397 -94l-1 14l-7 -1l-148 -12l-6 -7v-7
l61 2l33 8v-14l-60 -22l-182 -6q-131 -5 -354 21h-6v-7l41 -5v-13l-20 -1q-20 -1 -55 25l-21 -1v-7l21 1l1 -13l-48 4l-40 -1l-28 20l-14 -1q-41 -1 -156 -175q-126 -155 -259 -361l1 -13l88 -11l27 1l1 -13l40 1q0 -14 21 -13l-13 -14l-21 13q-46 -13 -46 -29l-143 15
l-134 -235l-272 -361v7l25 40v7q-200 -203 -257 -205l-268 -77l-14 -1l-1 14l27 1v6l-115 -4l-34 -7l-6 6v7l-34 -8h-7l-14 13l6 7l48 2q380 13 753 562l180 263q-1 32 -160 130l-6 -7h-14q-38 30 -97 43v14l27 7q198 -94 281 -91l7 -7l7 1l271 388h-7l-7 -6v6l79 91l-7 -1
l-26 -28l-1 7l59 57v14q-138 51 -145 76v7l110 -51l-7 6l-1 7l7 7q-14 0 -15 34l-199 81l7 7l-1 6q-81 24 -82 52l-110 16l-7 -7h-6l-82 11h-6l-136 -12l1 -14h-7q-162 -6 -354 -154l-6 -1q212 204 487 213l163 -7zM1250 1687h7l123 -30v-14q-112 21 -130 44zM1971 1617v-7
h13q-1 16 33 22v7l-7 -1zM2109 1514l1 -7q170 -42 482 -32l223 36v6h-7l-163 -19l-142 -5q-202 -7 -387 21h-7zM1888 1472q0 -14 20 -13h7v7zM1969 1454l1 -6l88 -18h14v7l-96 17h-7zM1763 1358v-6l7 1l32 62q-11 -1 -39 -57zM2411 1422v-7l41 2v7zM2640 1437l21 1l1 -14
l-21 -1zM605 1339v-7q18 1 69 -39l7 1q-24 32 -69 45h-7zM1648 1334l-13 -20v-7h7l13 28zM709 1282v-7l36 -87h7l-1 20q-1 45 -42 74zM1609 1286l-38 -62h6l39 62h-7zM774 1162l2 -61h6l-2 61h-6zM-5 952q12 0 57 110q-40 -37 -57 -110zM857 1090h20l1 -13h-20zM425 1028
q1 -17 -65 -37l-1 14zM947 1039l35 -6v-13l-34 6zM759 998v-6l21 1l-1 13zM-20 965q-69 -164 -73 -227v-7l7 1q-1 31 74 226l-1 7h-7zM748 931l6 -7h7l13 48q-27 -8 -26 -41zM286 948h7v-6q-51 -71 -50 -97h-14q29 102 57 103zM1270 915l14 -14l6 1l-13 13h-7zM736 882
q-13 -110 -56 -158h-7l1 -13q34 1 76 165l-7 7zM1300 821l-51 -83h7l51 76v7h-7zM-99 718l1 -27h7l-1 27h-7zM-108 603l2 -55h7l-2 55h-7zM862 195q42 23 72 64q-16 -3 -72 -64zM663 80v-7h6l47 23v6h-7z" />
    <glyph glyph-name="G" unicode="G" horiz-adv-x="1765" 
d="M1269 1543v-13l-25 -6v-6h82l51 6q152 -11 152 -32l-7 -6v-6q68 0 140 -140l6 -38h-6q-13 0 -13 19h-6v-6l12 -51v-31q0 -101 -120 -228l-25 -7l95 127l-7 6l7 38h12l-6 -25v-6h6l19 69v26q0 163 -120 202l-158 32h-7v-13h-19q-199 0 -462 -120l-6 -6v-7l-19 7
q-272 -150 -380 -361q-21 -2 -51 -76l6 -19q-15 0 -19 -51h-12v6l6 7v12h-6l-57 -171l-6 -126v-7q0 -198 75 -284q100 -235 488 -235q111 7 127 38h-26v13h38q192 63 431 329q15 0 51 76h-7q-99 -25 -234 -32l-241 -38h-50q-33 0 -38 19v7l38 -13h19v6l-57 13l-7 -6l-6 6v19
h32l-7 -6v-7l45 -6l50 6v7l-31 6h-57v13l25 6l51 -6q182 0 449 107q74 49 133 108h13v-19l32 13l12 -19l-6 -38l6 6h13l-19 -25l6 -32q-17 0 -31 -57l6 -19q-74 -156 -158 -285v13l6 19l-152 -158h6l121 107v-6q-43 -52 -209 -190q-41 -58 -57 -63v6l12 19v6l-234 -196
q-171 -226 -171 -367v-13q0 -131 158 -184l70 -6h57q46 0 146 38h6q-79 -57 -177 -57h-19q-190 0 -254 146l-6 25v120q18 0 25 51v6h-6q-4 -44 -19 -44v6q33 121 57 121v-7l-6 -6v-13h6l51 95v7h-7q0 -19 -12 -19v6l6 19l-51 -51v7q16 31 102 120v6q-201 -144 -349 -272
q-199 -140 -291 -165v13q95 10 424 279h-6l-443 -260q-312 -146 -526 -146q-122 0 -253 51l-13 -13q-93 83 -107 83q-152 43 -152 278v45l-13 25q63 191 133 285l247 260h6l-44 -57v-7q30 0 203 184q210 223 329 462h6l7 -6v-7q-144 -244 -209 -329l-64 -70h7q56 29 209 279
q145 264 145 380l-6 19l6 57v25q0 112 -95 159q0 23 -88 38h-83v12h108l6 -6l7 6h6q74 -18 139 -101l26 -63v-57l6 -45h-19v-12q0 -249 -336 -691q-119 -139 -158 -139l108 101h-7l-114 -107l7 -6h6v6l6 -6h7q97 44 120 44l-196 -95l-165 -120l-89 -133q-82 -165 -82 -292
q54 -335 184 -335q0 -13 25 -13v-6l-6 -7v-6q123 -38 209 -38h63q137 0 367 82v7h-12v12q411 182 677 393q195 151 412 348h-7q-117 -57 -291 -95v7l-6 -7h-89q-123 0 -323 51q0 -13 -19 -13q-23 0 -114 57h-19l76 -76h-6q-13 0 -108 95h-6v7l6 6v6q-38 32 -57 32
q0 -13 19 -13l7 -6v-6h-13q-165 147 -165 373q0 271 235 576q9 45 158 190h6l-82 -107h6l101 82l-31 -13q237 188 665 266zM1795 1492h6l32 -31v-7zM756 1372v-6h6l171 63v6h-12zM712 1283q25 10 25 19h-6zM553 1233l83 44v6h-7q-58 -25 -76 -50zM1934 1277l13 -13v-6h-13
v19zM1940 1245h13l6 -44v-6h-12v19zM1611 1220h13v-25h-13v25zM357 973l7 6h6l6 -6q0 41 133 184l25 38h-6q-171 -147 -171 -222zM1947 1131h12v-6q0 -327 -956 -545l-89 -25v13q694 173 830 291q177 100 177 196q26 11 26 76zM439 1030l-94 -184v-6h6q46 107 95 184v6h-7z
M288 922l-19 -63v-6h12l13 63v6h-6zM338 834q-31 -73 -31 -102v-6h6q0 29 32 101v7h-7zM212 650l-7 -44v-76h7q3 82 12 82l-6 38h-6zM1624 606h6l13 12h-7zM1617 580v-6h13v19zM1427 485v-6h19q76 15 76 32h-6zM1402 315q15 0 57 50v6zM212 321v-6q12 -46 50 -70v6
q-33 70 -50 70zM-143 315h13l-13 -13h-13zM1269 182v-7h13q107 75 107 95h-6zM364 232v-6q16 -48 31 -51v7l-25 50h-6zM1117 93v-6h6l121 63v13h-7zM345 118l12 -12h7l-13 12h-6zM1041 55v-6h6l38 12v7h-12zM838 68h64v-13h-64v13zM1218 -8h7l57 57h-7zM-599 17
q-51 -62 -51 -82v-7h7q0 18 50 89h-6zM959 -211v-6l31 31h-6zM921 -274l-7 -7v-12h7l6 19h-6zM876 -344v-6l-12 -13v6zM-751 -420v-6q0 -127 114 -209h6q-114 174 -114 215h-6zM1282 -737h12l-12 -12h-13z" />
    <glyph glyph-name="H" unicode="H" horiz-adv-x="1777" 
d="M1564 1745h27l-14 -20h14v13h6v-20q-120 -74 -201 -282q-154 -251 -315 -611l-121 -221v-13l67 13v-13l114 13l-7 7v13h20v-13q95 2 215 60h27q289 593 383 752q54 73 288 228l94 34v-14q-32 0 -60 -54h-7l-7 7h-6q-47 -35 -47 -67l7 7h6v-7q-192 -242 -201 -329
q-91 -132 -242 -470l-40 -67h7q481 79 584 148q108 0 221 127q148 116 148 222v40l-7 34q27 0 27 47l13 -14v-33l-6 -81h6l7 7h7v-7q-100 -201 -175 -235q-118 -136 -389 -208l-470 -94q-133 -206 -170 -294.5t-37 -152.5q0 -100 94 -100h61q85 21 287 310l7 -7v-13l-34 -47
l-7 6l-6 -6v-7l6 -7h7l7 7v-14q-195 -289 -308 -289q0 -14 -120 -34q-93 17 -135 74l-6 74q0 192 119 346v-14h7l20 47l-7 7v7l27 54v6q-443 -58 -443 -80q-91 -204 -309 -396q-73 -74 -134 -74l-7 7q-87 -47 -161 -47h-33q-163 0 -195 154q0 67 121 174h-13v7
q197 142 503 195l33 13l7 -6q61 4 309 469q192 324 228 457h-7l-295 -81h-7q0 14 -20 14q-715 -81 -1027 -235q-112 -50 -302 -255l-27 -168q19 -110 68 -148l-7 -6v-7q96 -61 208 -61q172 0 597 175q-351 -188 -611 -188h-33q-73 0 -128 27l-20 -7v7q0 15 -33 20l6 -7v-6
h-6q-101 84 -101 187v21q0 219 403 449q235 108 550 168q718 82 718 141l67 27l7 -7h7q58 15 134 87h-13q12 25 40 34l20 -7zM1309 1577h13l-13 -13h-14zM2014 1557l-20 -40h6l20 33v7h-6zM1269 1550h6l-13 -13h-7zM1262 1470v-20h7l6 20h-13zM1953 1470l-13 -27h7l13 27h-7
zM3034 1470h54v-14h-54v14zM1839 1436l-33 -60v-7h6l34 61v6h-7zM2336 1416h20v-13h-20v13zM2403 1416h20v-13h-20v13zM2437 1409h6l14 -13h-20v13zM2470 1389h14q38 -28 53 -60v-14zM2819 1389q-58 -47 -87 -47q42 43 87 47zM2718 1342h14l-108 -94h-6v7zM2537 1255v-34h7
v34h-7zM1027 960l-27 -54h14l20 47v7h-7zM1618 866l-61 -128v-7h7l60 128v7h-6zM-443 846l-7 -34l7 -47h7v81h-7zM960 839l-74 -155v-6h7l74 154v7h-7zM-430 644q13 -30 27 -33h7zM859 644l-20 -60q13 0 27 53v7h-7zM604 463h-7l-13 13q-66 0 -175 -47l7 -6v-7
q-155 -42 -195 -107q-73 -121 -73 -168v-7q6 -107 100 -107h7q142 0 342 248l7 -7q34 58 54 128q36 30 60 87h-7zM618 194l-27 -33h6l27 33h-6z" />
    <glyph glyph-name="I" unicode="I" horiz-adv-x="2403" 
d="M2440 1752q224 0 354 -89l-7 -7q-77 22 -273 44l-59 -7l-52 7l7 -7v-7l-7 -8h-15l-52 8v-15l-7 7h-15q0 -22 -74 -37q-260 -199 -361 -480l-45 -81l207 -59l7 7v-14h8l7 7h8q353 -103 516 -103h15v-8l-7 -7v-8l221 -22q300 0 436 148q66 94 66 155h15v-7q0 -37 -37 -111
h8q37 60 37 125l-8 37l8 23l-23 103q60 -76 60 -163q0 -132 -96 -228h-15q0 11 29 22l8 7v22h-8l-103 -81h7l30 7q-1 -12 -177 -73l-15 14l-207 -22h-7q-329 0 -1004 207l-296 -591q-35 -26 -74 -140q-37 -54 -118 -244l310 30q436 0 739 -133l37 -30h-15q-198 89 -473 89
q-399 0 -886 -111l-317 -22v7q0 10 -59 15h-15v-7h37v-15q-261 0 -554 266q-96 125 -96 347q0 282 229 465q125 157 436 251q194 37 273 37q171 0 686 -148l23 8l-8 -8v-7h8q20 0 133 244q45 51 155 229h-8q-417 -67 -531 -67q-222 9 -222 30v7h59v15l89 -8q86 0 199 30v-15
q305 59 687 155l74 8h81zM2019 1590h7l15 14h-7zM1347 1553v-8h59v8h-59zM3274 1412l15 -14v-8l-15 15v7zM1827 1287l-81 -163v-14q14 0 88 169v8h-7zM845 1250v-7h52v7h-52zM978 1235v-7q165 -49 258 -177q87 -163 89 -222q-24 -35 -30 -81l8 -8v-7q-10 -47 -104 -207h-7
l-7 8h-8q-5 -52 -88 -111v7q162 195 162 436v7q0 159 -192 296q-81 37 -140 37h-52q-377 0 -657 -451q-67 -156 -67 -280v-23q0 -417 539 -509l59 7l52 -7q236 0 451 317q0 18 59 82l81 118q45 130 184 362h-7l-133 -215h-7l266 480v8q-155 29 -355 96l-7 -8v15l-30 -7
q-215 44 -310 44h-7zM1642 1147h15l15 -15h-15zM143 822l-37 -111v-8h8l37 111v8h-8zM70 622l-8 -51v-30h8l7 66v15h-7zM1399 578h22l-15 -15l-7 8v7zM99 534v-45l7 -51h8v14l-8 82h-7zM1620 91v-8h67v8h-67z" />
    <glyph glyph-name="J" unicode="J" horiz-adv-x="1872" 
d="M2536 1836h22q-153 -99 -223 -223l-433 -707q0 -41 -200.5 -352t-289.5 -448q330 -467 764 -613q264 -72 346 -72h101l101 -7q333 0 663 144q-273 -166 -627 -166h-224q-250 0 -670 202v7h14l-158 116v-8l115 -93h-14q-55 17 -188 173v-8l29 -36l-7 -7q58 -100 58 -180
q0 -206 -159 -339l-43 -7v14q134 0 180 310l-14 72l7 8l-7 21h-8l8 8v7l-29 79h-7v-14h-15l-79 158l7 22l-58 58v-15h-14q0 55 -123 115q-177 -274 -547 -418l-44 -7v15l101 36v7h-7l-101 -43v14h-14q0 -22 -15 -22v15h-14v-15l-123 -7h-115l-65 7l-22 -7q-148 36 -201 108
q-14 33 -29 36v-7l29 -43l-22 -7q-137 179 -137 331q0 256 267 476l122 43l173 51q87 12 87 21q314 0 569 -295q1 -36 80 -101l57 86l7 8q24 77 173 274l-7 7v7q87 121 87 144h7v-14h7l29 57l-7 8v7q165 254 216 367l224 390h-8l-122 -15l-317 36v15l-116 7l-86 -7v14h-7
q-101 0 -426 -86q-323 -182 -353 -231h7l7 7v-7q-86 -63 -115 -159l-29 -101q37 -201 87 -201v-8h-29q-130 84 -130 202q0 226 454 490q146 73 404 116l180 21l7 -7l36 7h29l310 -14h36v-14h80q324 46 324 108zM2140 1584l-7 -8v-14h7l7 22h-7zM936 1526v-7h7l22 7v7h-7z
M741 1353h8l-15 -14h-7zM1981 1310l-28 -65v-7h7l29 65v7h-8zM525 993v-15l7 -21h8v7l-8 29h-7zM1801 892l-7 -8v-14h7l7 22h-7zM1780 762l-51 -94v-7h7l51 94v7h-7zM655 618q0 -26 -137 -51q-22 0 -202 -130q-144 -150 -144 -230q-22 -46 -22 -216v-36q0 -99 80 -210
q40 -86 216 -86h79q126 6 274 86l22 -7q0 15 21 15v7h-14v7q150 56 469 440v21q-16 76 -231 267l-22 -7q-16 27 -130 86l-7 -7h-7l-151 44l-29 -8h-15v15h-50zM381 531v-14l36 14v7h-7zM100 250l-15 -50v-8h8l14 51v7h-7zM1239 70h7q55 42 79 94h-7zM1390 70v-7l15 -15v7z
M129 -132v-7q14 -43 29 -43v7q-17 43 -29 43zM1599 -182v-8l22 -21v7zM821 -240h7l-14 -15h-8zM1844 -384h8l14 -15h-7z" />
    <glyph glyph-name="K" unicode="K" horiz-adv-x="2976" 
d="M2347 1847l-1 -15q-242 17 -471 -141l-32 -34l-1 -15q106 -55 155 -200l7 -1l8 7l7 -1l17 -169q-15 -218 -243 -458l-32 -20l-6 7q-104 -79 -465 -267l-157 -158l1 15q166 204 378 281q224 110 300 213l-7 1l-121 -51l-7 9l1 7l-9 -7l-50 4q-131 9 -119 183l5 65
q15 218 301 543q-40 61 -358 113q-382 -18 -384 -53l-37 -13l-7 8h-8q-328 -85 -582 -376v-7q336 283 439 320l14 -1l-276 -192q-394 -297 -427 -760l-4 -66l5 -38l-22 2l7 95l-16 -13l-2 -22q16 -190 69 -276l-1 -15q-36 8 -34 47h-7l-1 -22q27 -76 58 -106l8 6
q171 -253 573 -281q283 -55 471 40q22 19 98 37q216 113 300 206h-8l-77 -52h-7q173 125 228 226l7 -1l-1 -15q128 113 370 589l281 393q76 143 243 240q228 80 314 87l13 -23q-135 -41 -259 -142q-239 -240 -358 -447l-180 -287l6 -8q27 21 119 21l7 7l1 8l-7 7l1 7
q127 -9 324 248q245 289 249 353l7 -1l8 -8l6 -1q6 77 407 264q138 57 201 52l36 -2q46 -3 56 -48l7 -1l-2 -29l-34 54l-35 9q-140 10 -379 -193q-222 -225 -384 -495q-110 -170 -323 -234l-133 -20q-1 -12 90 -57l-1 -15q61 -5 143 -164l-10 -35l-1 -15l15 -1l-113 -299
l-16 -123v-7q-6 -73 89 -79q60 -5 241 159l163 181q1 19 38 27l-1 -8q-203 -292 -369 -373q-53 -32 -141 -26q-114 25 -110 81q-34 56 -28 133l3 44q7 47 74 368q13 189 -212 204q-209 -422 -370 -573q-399 -367 -828 -337l-88 6q-481 80 -574 164q-336 207 -305 651
q18 261 292 615l125 109q453 349 958 314q220 -16 365 -114h7l228 140q225 46 297 41zM3654 1644l15 -1l-1 -7l-16 -14zM3588 1531l-1 -7l-16 -14l1 8zM1820 1637q-263 -310 -272 -450q-12 1 -34 -173q5 -68 71 -129l-7 1l-29 16l-1 -7l43 -25l8 -1v7l-15 1l1 8h7l65 -13
l29 6l7 -8l8 -1q65 -5 163 143q88 102 99 271l7 94l15 -1l2 29l-8 1l-1 -15l-14 1l-4 44l14 -1l-1 -14h7l1 7q-27 119 -153 208zM936 1661q-8 -20 -44 -18q8 21 44 18zM550 1470l-188 -178l7 -7l-1 -15q-25 2 -98 -147v-8h7q108 206 281 354zM1984 1369l-2 -29l7 -1l2 30h-7
zM2721 1025h7l32 34v7zM252 1074l-35 -79v-7l7 -1l35 78l1 8zM2499 667l-1 -7l10 -59l-17 -43l-5 -80l-18 -138l-1 -7h8l48 172l15 -1l-3 -51l7 -1l10 51l-11 45l14 -1l2 22l-8 -8l-22 2l-21 103zM149 751l-3 -44h7l3 44h-7zM2056 618l-8 -22l-1 -7h7l9 21v7zM1951 472
q15 -1 32 48q-14 1 -32 -48zM1864 500v-7l-15 -14v7zM124 606l-4 -50l5 -52h7l2 29l-2 73h-8zM139 510l-2 -29l17 -74l7 -1l1 22l-15 82h-8zM1842 377q-1 -17 -144 -165l8 -1l141 137l2 29h-7zM1125 376l-1 -15q-13 -28 -24 -27l1 15zM1582 220q-17 -29 -46 -27q17 29 46 27
zM1498 174h8l-16 -14l-7 1zM1467 155l8 -1l-16 -14l-7 1zM1437 135l7 -1l-15 -14l-8 1zM1387 50l15 -1q34 11 61 47q-74 -33 -76 -46z" />
    <glyph glyph-name="L" unicode="L" horiz-adv-x="1500" 
d="M674 1846h91v-13h-91v13zM662 1840v-13l-52 -13v13zM778 1840q207 -44 207 -208l7 -38q-30 0 -52 -117q15 0 32 84h13v-6q-13 -88 -155 -285q-247 -245 -402 -304q-132 -65 -304 -117v-6q163 0 330 -143h-6q-176 116 -259 123l-6 -6h-7l-91 13l-155 -26v6
q-155 -65 -155 -233q0 -86 103 -116l46 -13h25q318 48 965 576q295 257 362 421l188 97l7 -7h6l130 46h84q58 -13 58 -33v-6q-24 19 -45 19h-7q-162 0 -356 -304q-149 -201 -628 -926q-103 -135 -226 -226h6l214 32q267 0 479 -97q241 -125 343 -194q146 -91 291 -110l45 -7
h78q226 0 453 253v-13q-71 -142 -246 -214l-97 -45l-6 6h-7q-33 -19 -64 -19h-7v13h-19v-13l-33 6l-64 -6q-228 0 -719 265q-169 102 -479 143q-137 0 -349 -71l-91 -20l-20 7v6q87 35 285 246q135 161 279 382h6v-6l-6 -7v-6h6l7 6v7l-7 19q82 92 194 285l-6 19
q41 21 58 52h-6q-233 -149 -246 -175h-7l-6 7h-7q0 -13 -175 -123l-25 -33l-7 7h-6q0 -29 -98 -65q-320 -214 -517 -214q-139 0 -188 123l-13 59q0 85 110 174q169 72 207 72l26 -7l-6 7v13h13v-13h12l-6 6v7l188 45l19 -7v7l220 97q453 303 453 615v13q0 151 -155 188h-13
v13zM428 1723h7l-13 -13h-6zM1432 1451l-20 -26h7l19 26h-6zM1315 1361v-7h7l26 39v6q-24 -12 -33 -38zM1335 1328l-20 -26v-6l26 32h-6zM1115 1056l-110 -162v-6h6l110 168h-6zM869 914h13l-52 -39h-13zM810 869q0 -17 -58 -39q0 16 58 39zM746 823l-39 -32h-13
q29 32 52 32zM875 791l-71 -97h6l72 97h-7zM687 784q-13 -25 -38 -25q13 25 38 25zM746 590l-59 -77h7l58 77h-6zM189 21h6v-7l-77 -26v13z" />
    <glyph glyph-name="M" unicode="M" horiz-adv-x="3715" 
d="M3598 1517l124 12q63 0 124 -43h-7l-92 18h-7l-99 -12l7 -19q0 -267 -112 -390q-54 -90 -161 -210q-260 -377 -260 -588v-87q0 -117 74 -173l25 6l44 -6q164 0 438 346l12 37h31v-6q-29 -91 -296 -346l-111 -50v-6h-124l-25 6l-18 -6q-105 54 -137 136q-27 29 -49 149
q0 126 87 371h6v-12l-6 -6v-13h6q38 99 285 452q278 306 278 402l-6 7q-309 -118 -768 -527h7l12 13h6l-316 -272l-68 -75v-6l106 93v-6q-694 -644 -737 -644q66 68 80 68v6h-12l-87 -74l7 -6v-6q-44 -38 -87 -38l-31 19l99 124q60 76 142 247q118 198 186 452
q43 167 105 335q0 15 68 92q0 17 149 168h-6q-346 -230 -576 -582q-145 -181 -409 -452q0 -12 -123 -143h-7v7l81 92v7q-171 -191 -223 -205q-22 -24 -93 -62l-6 7h-6q-83 -24 -99 -50q-172 -43 -334 -43q-214 0 -403 111q-77 24 -130 105q-136 189 -136 329v30
q0 310 402 564q280 148 520 148q316 0 421 -253l13 -69q0 -145 -50 -185l6 -6v-7q-69 -100 -198 -192q-86 -49 -111 -49q101 57 167 118q124 151 124 309v37q0 44 -13 68l7 6v7l-19 37l6 6q-105 142 -285 142h-43q-143 0 -278 -49v6l-7 6l-167 -62l6 -6v-6
q-169 -61 -241 -198q-149 -225 -149 -409v-62q0 -132 124 -297q84 -68 112 -68q20 -45 340 -56l19 7l6 -7h6l31 13l6 -6h6l19 6l-6 6v6l6 6h-6l-44 -18v6q0 16 106 37q183 53 489 334q444 417 495 520q11 58 279 304q353 192 420 192h7l37 -7v-12q-28 0 -50 -43
q-121 -102 -173 -297l-198 -551q-109 -241 -155 -310h6q170 152 322 328q17 0 204 205h7l-7 -7v-12l149 136l-6 6v7q68 79 105 99l25 24l6 -6h6q79 74 93 74v7h-12q226 191 334 247q114 83 316 143l43 12v-12zM3431 1449q0 -10 -93 -56v-6h6l99 55v7h-12zM3295 1368v-6h6
l18 6v6h-6zM3059 1176h7q141 118 167 118v6h-6q-97 -49 -168 -124zM2286 1145l-13 -37v-6h6l13 37v6h-6zM2868 1102h6l-19 -19v6zM2793 984l62 50h-6zM1976 984l-74 -86h6l74 86h-6zM2905 990v-6l-13 -12h-6zM2731 972l-12 -19h6l13 19h-7zM1729 829h6l111 130v7h-6z
M119 854v-6q45 62 56 62v12q-29 -18 -56 -68zM1332 860l-6 -24v-7h6l7 25v6h-7zM119 811h12q15 0 19 31h-6zM1599 687q29 0 130 124q-17 0 -130 -124zM100 792l-12 -31v-6h6l13 31v6h-7zM100 749l-18 -49v-7h6l19 50v6h-7zM1759 718l-86 -99h6l87 99h-7zM3103 712h6l-19 -19
v7zM100 681l-6 -37v-13h6l7 38v12h-7zM51 607v-7l6 -74h6v93zM2447 582l-50 -56h6l50 56h-6zM70 532v-18l6 -31h-13v-6q0 -61 56 -124v6l-37 99l6 6v6q-6 62 -18 62zM1419 495l-74 -86h6q56 44 74 86h-6zM3041 347v-68h6l6 61l-6 7h-6zM1159 229h6q48 18 99 81
q-31 -13 -105 -81zM3078 260v-6l6 -81h6v56l-6 31h-6zM986 173v-6h12l25 19h-6zM899 99v-6h6l25 6v6h-12z" />
    <glyph glyph-name="N" unicode="N" horiz-adv-x="2428" 
d="M4034 1838h123q281 -33 281 -185l7 -48q0 -184 -405 -453q-404 -225 -548 -267q48 34 267 130q239 130 425 281q145 203 145 384v14q0 67 -124 82l-219 42q-262 -42 -481 -158q-330 -146 -405 -233l-295 -268q-210 -178 -377 -384l7 -7v-7q-29 0 -165 -185
q-80 -79 -103 -144q-280 -390 -315 -419l-144 -82h-21v7q22 36 103 89q44 0 117 439l27 199l-7 7v7q0 31 83 274v7q-162 -212 -487 -514q-229 -181 -426 -302h-14q0 10 55 34v7h-6q-61 -26 -62 -41h13v-7q-113 -68 -260 -96l-7 -7h-14l-20 7v-7q0 -21 -213 -21
q-494 0 -494 261q0 356 645 741q242 114 412 123q134 0 219 -61h-7q-157 48 -212 48q-320 -52 -488 -179q-218 -131 -322 -308l-75 -158l-42 -137q23 -224 83 -234v-6h-21l21 -21h20l-7 7v7h14q79 -39 130 -42h186q59 0 398 145q314 225 404 308q509 516 536 638
q206 285 288 446l157 83l199 96v-7q-232 -201 -247 -295q-106 -127 -267 -535q-21 -46 -21 -96l7 -7v-7q-20 0 -55 -206q-34 -81 -61 -274v-7h6q207 330 597 748q331 291 625 466q537 288 837 288zM2709 1811v-14l-75 -34l-7 7v6q31 35 82 35zM4370 1708v-41l13 -14l7 34
l-7 21h-13zM4363 1529l-14 -48v-6h7l14 48v6h-7zM2346 1488l-48 -75q34 32 55 75h-7zM4315 1481l-14 -48v-6h7l14 48v6h-7zM4239 1351v-7l21 21h-7zM2181 1358l-75 -110v-7h7l75 110v7h-7zM2037 1166l-7 -7v-14h7l7 21h-7zM2003 1118l-165 -206h7l165 206h-7zM1365 1070h14
l13 -14h-13zM3485 885q0 -16 -55 -28v14zM1824 809l-68 -82v-7h7l68 89h-7zM445 775h7v-7l-61 -69v7zM1680 734l-109 -117h6l110 117h-7zM384 693v-7l-14 -14v7zM1468 432h7q46 48 61 48v14zM157 480l-41 -131l7 7l7 -7h14l13 42v7h-7q0 -21 -13 -21v14q27 47 27 82v7h-7z
M109 274v-7q0 -64 55 -116h7l-34 75q0 55 27 55v20l-41 -27h-14zM1083 185v-7h7l35 14v7h-7zM768 82v-7h14l27 7v7h-14z" />
    <glyph glyph-name="O" unicode="O" horiz-adv-x="2173" 
d="M1428 1812h134q582 -30 637 -149q58 -70 92 -198q42 -100 42 -134q330 85 467 85q398 0 573 -219v-15q-84 119 -354 184l-162 14h-71l-106 -7v-7h240v-14h-162q-120 0 -213 -21v14h-28v-7h14v-14h-21v14h-28v-7h14v-14h-21v14h-29v-7h15v-14q-121 -14 -121 -36l-14 -247
q-18 0 -28 -92q-80 -238 -234 -410q0 -20 -99 -128q-170 -198 -198 -198l7 -7v-7q-69 -57 -91 -57v8l7 7v7h-15v7q-81 -57 -374 -135l-135 -21h-35q-240 0 -297 191q-29 66 -29 120v29q0 138 29 233l-29 -21h-7v14h-7l-35 -7l-7 7v7q71 0 71 85q58 246 304 594
q346 333 452 347q132 85 389 134v7h-21l-7 -7v14h-21v-14h-7q-21 0 -21 21h-14v-14h-15l-14 14l7 7h-28v-14q-205 29 -460 29q-326 0 -622 -128q-205 -66 -354 -170l-85 -56l7 -7v-14q-109 -33 -254 -297q-50 -95 -50 -220v-35q0 -92 64 -219q111 -85 191 -99v-7l-7 -7
l134 -15l99 7v-14l-141 -7h-57q262 -226 262 -396q-50 -198 -156 -198h-7v14q40 0 92 106l14 106v50l7 7v7q-16 0 -49 106q-18 0 -85 99l-113 92h14v7h-7l-21 -7l-198 78q-156 117 -156 283q0 393 714 792q458 177 828 177zM1965 1713v-7l57 -7h28v7l-70 7h-15zM989 666h7
l290 163q420 258 920 459q35 0 35 92v64q0 30 -28 71q0 153 -255 177h-7q-90 0 -212 -99q-113 -49 -410 -375q-138 -165 -219 -333q-121 -171 -121 -219zM1400 1409h7l78 70q-48 -21 -85 -70zM1378 1465l-42 -42h7l50 35v7h-15zM1110 1175h7l162 191h-7q-151 -151 -162 -191
zM1230 1239h7l99 113v7q-91 -80 -106 -120zM2963 1359h42v-14h-42v14zM2206 1246v-14h-7l-7 7h-7l-446 -198v7q-21 0 -21 -21l-7 7l-651 -375l-49 -14l-22 7l7 -7v-7q-44 0 -91 -283v-85q0 -61 28 -142l-7 -7v-7l7 -21h7v14l-7 7h7q72 -77 155 -77q384 0 708 374h-7l-43 -35
h-7q161 165 318 474q163 328 163 396h-21zM2277 1211l-7 -57v-35h7l7 78v14h-7zM3380 1175l14 -14v-14l-14 14v14zM2227 1161l-7 -35v-21h7l7 49v7h-7zM1230 1147l-28 -50h7l28 50h-7zM975 949h-7v14h-7l-49 -113h14l-21 -42v-8h7q98 190 191 319v7q-26 0 -128 -177z
M-22 1076l-14 -35v-7h7l14 35v7h-7zM1088 1034q-106 -163 -106 -191v-7h7q26 68 106 191v7h-7zM1060 942l-14 -28v-7h7l14 28v7h-7zM-43 928l-7 -36v-21l14 14v43h-7zM2206 928l-64 -142q14 0 71 135v7h-7zM968 751v-14h7l21 63q-11 0 -28 -49zM954 793l-28 -92v-7h7l28 92
v7h-7zM-72 779v-14l8 -42h7v14l-7 42h-8zM883 758l-21 -71v-7h7l21 71v7h-7zM2093 631h7q71 95 71 113q-13 -3 -78 -113zM-1 659v-7l14 -35l7 7h7l22 -15v15l-36 49zM890 595l-42 -177l14 -91h7v148l28 113v7h-7zM84 581v-14l57 -21l-50 35h-7zM2050 539l-70 -92h7l70 92h-7
zM791 532h14v-36h-14v36zM530 100v-42h-7l-8 7h-7v-21h15l-8 -7v-15h8l14 50v28h-7zM480 -27l-7 -7v-14h7l7 21h-7zM438 -70v-7l21 22h-7zM317 -98h57v-14h-57v14z" />
    <glyph glyph-name="P" unicode="P" horiz-adv-x="2067" 
d="M1789 1792l170 -14l49 7q240 -35 381 -78q130 64 205 64h7v-14q-60 -11 -120 -64h-7l7 7v7h-7l-28 -21h21l-7 -7v-7q174 -48 261 -170q78 -104 78 -190q0 -186 -261 -353l-7 7q-253 -120 -396 -120h-21q-162 0 -162 21v7h-15v-14h-7q0 22 -127 49q-28 -56 -179 -275l-7 7
q-252 -381 -339 -466q-141 -127 -212 -127l7 -7v-7l-183 -64l-43 7v14q53 3 177 113q148 160 261 339q168 189 539 770l269 332q176 120 205 120q0 18 -276 71v7h-14v-15l-71 8h-113v14h57v7h-113v-14h-21l-318 -7v14h7q120 0 120 35h113zM1422 1785h21v-14h-21v14z
M1380 1743h35v-15h-35v15zM1330 1736h28v-15h-28v15zM1316 1728v-14h-7q-184 0 -699 -254q-117 -56 -269 -233q-107 -120 -155 -374h-14v-21h14v-43l-7 -28l21 -99l-7 -7v-7l28 -71l7 7h15l35 -56v-7l-7 7h-7v-7q45 -32 148 -57l7 7l35 -7h92q351 0 714 297h7
q-179 -165 -283 -198q-232 -127 -438 -127h-77q-328 0 -410 283v98q0 315 508 650l142 71v7h-14l14 14h7v-14h7q0 21 176 78l-7 7v7h7l22 -7v7q0 25 339 84zM1832 930q84 -28 211 -28h50q73 0 268 57q262 166 262 501q0 88 -156 184l-28 7q-85 0 -141 -85l-212 -290
q-262 -330 -262 -346h8zM2566 1601l85 -70h7q-28 40 -85 70h-7zM2623 1517v-7l14 -36h7v21q-14 0 -14 22h-7zM2686 1439l7 -35v-7l-7 7h-7v-113l7 7h21v-14h7v21h14l-21 -78v-7h7l21 71v56h-14v50zM2637 1397v-50h7v50h-7zM2750 1389v-14l7 -70h7v49l-7 35h-7zM2693 1389
l14 -14v-7h-14v21zM2658 1199l-7 -21h14v21h-7zM228 1142v-7l22 21v7zM172 1072l-7 -22h14v22h-7zM193 1001l-21 -71v-14h7l21 78v7h-7zM137 832l-7 -36q14 0 14 21v15h-7zM87 747v-7q0 -71 64 -134v7q-50 73 -50 134h-14zM158 740v-28l14 -50h7v7l-14 71h-7z" />
    <glyph glyph-name="Q" unicode="Q" horiz-adv-x="1472" 
d="M1064 1478q130 -43 202 -170q114 -208 114 -448q-33 -241 -64 -310q-131 -320 -586 -517v-6q196 -87 233 -114q345 -202 644 -202q255 0 410 95v-7q-105 -124 -227 -189h-13v6l-44 -6h-82q-201 0 -448 152q-299 157 -360 157q-107 32 -259 57q-244 -31 -302 -57v7l69 50
v6q-139 0 -252 209q-32 89 -32 151v13q0 408 454 871l114 94q259 145 429 158zM1089 1446v-6l19 -6h7v6l-19 6h-7zM982 1428h-13q-128 -15 -284 -146q-84 -107 -94 -107v6l19 26h-7l-63 -76h7l44 44v-6q-234 -259 -278 -505q-50 -194 -50 -309q32 -293 164 -328
q30 22 151 50l70 -13q155 36 214 120q0 24 101 101l32 44h-7q-58 -31 -132 -37l-76 6v-13q-201 0 -265 215l-6 50h12q46 -239 202 -239h57q171 0 316 176q101 188 101 360q25 138 25 265v69q0 88 -82 196h19q-75 63 -177 63v-12zM572 1226v-7l69 70q-17 0 -69 -63z
M1247 1282v-12q19 -31 19 -70h6v26l-19 56h-6zM1285 1194v-32l13 13l-7 19h-6zM1298 1144v-64h12v19l-6 45h-6zM288 904l-6 -19v-7h6l6 19v7h-6zM635 891h6l-75 -76v7zM1323 860v-95l-7 -25l7 -26l-7 -6h19l7 44v19l-13 89h-6zM1272 803l-6 -38v-6h6l7 31v13h-7zM553 796v-6
l-6 -31h-13q6 37 19 37zM212 778l-12 -32v-6h6l12 31v7h-6zM263 746l-57 -158v-6h6q25 101 57 158v6h-6zM200 677v-19h6l6 31zM168 683l-51 -171v-6h7l50 171v6h-6zM1241 664l-7 -32l13 13v19h-6zM187 658l-6 -26v-19h6l6 38v7h-6zM509 664h12v-19h-12v19zM502 626h13v-57
h-13v57zM275 607l-6 -38v-12h6l7 38v12h-7zM1304 607l-63 -132v-7h6l63 133v6h-6zM162 601l-26 -89v-6h7l25 89v6h-6zM263 550v-25h6v25h-6zM155 512q0 -42 -19 -50l-12 -57l6 -44h6v19l-6 19l13 13v31q19 0 19 51v18h-7zM1216 449q0 -22 -45 -50l-25 -51q57 57 82 101h-12z
M105 355l6 -32l-6 -44l6 -32h6l7 57h-13l6 7v56zM162 361v-44h6v44h-6zM1001 241l-13 -25h7q12 0 12 19v6h-6zM117 235v-6l7 -19h6v19l-6 6h-7zM244 216v-25h6v25h-6zM168 184v-6q16 -40 32 -44v6q-17 41 -32 44zM856 134h6l25 25h-6zM218 121v-25l32 -38v6q-25 37 -25 57
h-7zM313 115v-19q13 0 13 -19h6v6l-13 32h-6zM704 71v-7h7l25 7v6h-13zM408 14v-6l19 -7l19 7v6h-38zM1783 -314v-13l57 19v6h-6zM1714 -314v-7h38v7h-38zM1607 -339v-7h31v7h-31z" />
    <glyph glyph-name="R" unicode="R" horiz-adv-x="2549" 
d="M1677 1634l34 -7h14l185 -7l95 7q129 -13 260 -55q126 62 199 62h6v-14q-58 -10 -116 -61h-7l7 7v6h-7l-27 -20h21l-7 -7v-7q109 -33 109 -61l-7 -7v-7q164 -92 164 -260v-41l-20 -27l7 -28q-117 -228 -246 -280q-197 -89 -342 -89q13 -22 88 -62q89 -111 89 -150
q0 -57 -136 -349l-7 -96v-48q9 -27 54 -27q138 0 456 404v6h14v-6q-218 -358 -415 -445v14l-89 -14q-157 35 -157 157v14q0 90 164 404l14 54q-45 92 -164 137l-158 55l-54 14q-28 -55 -117 -158l-7 7q-243 -369 -328 -451q-137 -124 -205 -124l7 -6v-7l-178 -62l-41 7v14
q50 2 171 109q144 155 253 328q162 183 465 637l260 321q170 116 198 116q0 25 -266 62l-144 7h-55l-102 -7v14h-7l-253 -7v14l301 13h13v-13h21l-7 6v14zM1294 1607h27v-14h-27v14zM1246 1600h21v-14h-21v14zM1226 1593v-14h-7q-302 -39 -725 -273q-203 -148 -281 -308
q-89 -193 -89 -342q0 -127 123 -226l117 -34v-14h-7l-41 7h-7v-7q41 -5 41 -13l7 6l34 -6h7l34 6l41 -6h7q328 0 643 260q80 83 171 246h7v-14l20 21l-7 6v7q55 87 55 158q-15 102 -89 102h-95v14h34l41 7q130 -15 130 -130q0 -156 -185 -383q-211 -170 -335 -219
q-213 -103 -390 -103h-75q-318 0 -397 274v96q0 304 492 629l137 68v7h-13l13 14h7v-14h7q0 21 171 75l-7 7v7h7l21 -7v7q0 24 328 82zM1725 820q81 -27 205 -27q213 33 301 95q164 177 164 288h14v41h-14v7l7 47h14v-41l13 14v27q0 101 -82 199q-20 0 -20 14h14l54 -35v14
q-27 0 -27 21h14q0 17 -55 27h-75q-113 -101 -274 -349l-260 -328v-14h7zM2450 1422v-7l27 -34v7zM2498 1374v-7l7 -20h7v20l-7 7h-7zM2388 1333h21v-48h-14zM2546 1278v-20q0 -27 -62 -171l7 7h7l7 -7l27 89h7l7 -7h7l13 20v89h-20zM2450 1210v-27h7v27h-7zM1143 1162h21
v-14h-21v14zM1123 1155h7v-13h-21zM227 1094l-21 -41v-7h7l28 41v7h-14zM2525 1080l-7 -21h14v21h-7zM152 991v-7l41 55v7zM2388 1046l-6 -21h6l7 7v14h-7zM138 957q-37 -81 -68 -96v-14h-7l-7 7h-7l-7 -34v-7h14l-7 -34v-62l14 -95l-7 -7h-7l-7 7v-28l7 7h7l7 -7v-7h-14
v-13q14 0 14 -34q48 -7 48 -41h6v6l-27 151l7 48l-7 75q21 110 55 178h-7zM1253 772q18 0 48 82q-16 0 -48 -82zM131 526v-21q24 -68 41 -68v14q-34 49 -34 75h-7zM179 457v-6l7 -21h7v7l-7 20h-7zM234 416q13 -27 41 -27h7v7l-41 20h-7zM1930 129q9 -48 21 -48l6 55z
M1964 88l-7 -27l7 -21h14l-7 48h-7z" />
    <glyph glyph-name="S" unicode="S" horiz-adv-x="1738" 
d="M841 1799h6l20 -20v-6zM1770 1773l7 -7h6l27 7q132 -13 132 -106l6 -33v-59q-44 -181 -184 -297l-218 -198v-6l-7 6h-6l-7 -39l7 -40v-26h13v-46l40 -323q0 -214 -192 -429l7 -6q-79 -72 -165 -99l-198 -66l-33 7l7 -7v-7l-7 -6h-26l-7 6q-124 -26 -276 -26
q-115 0 -277 46v7l6 6h14q95 -26 303 -33q239 41 441 231q277 243 277 494v33h13v40h-13v224l-263 -198l-7 7h-7q-191 -130 -309 -251h-7l20 33q-48 -34 -125 -65q-148 -113 -165 -113q20 36 356 258q46 83 72 184h7v79q-63 172 -158 172q-3 18 -145 26q-139 0 -317 -145
q-53 0 -165 -204l-6 6q-93 -194 -93 -349v-106q14 -178 93 -191l-13 -20q88 -66 197 -105v-7l-26 -6q-169 69 -191 105l-40 -13v7l13 19q-138 169 -138 317v33q0 213 237 468q54 53 376 250q223 235 244 468l-7 60l7 6h13v-6l7 -79q-25 -119 -93 -258l-72 -138l-92 -99l59 7
q289 0 343 -231v-20q0 -55 -60 -191l337 237l-7 7l125 99v46l7 20l-7 33v79h-13v184q0 273 244 317zM1533 1364v-79l-7 -40l7 -20l-7 -46l7 -59q125 81 250 257q106 207 106 290q0 66 -60 66q-33 3 -33 20q-90 0 -184 -139q-79 -135 -79 -250zM1506 1423v-13h7l13 66
q-15 0 -20 -53zM1803 1384q17 0 33 52q-33 -29 -33 -52zM1012 962h13v-73h-13v73zM221 843v-13q15 0 20 33zM1500 678v-26h6v26h-6zM129 645v-26h6v26h-6zM1520 626v-27h6v27h-6zM89 619v-26h7v26h-7zM122 612v-26h7v26h-7zM1513 593l-7 -27v-6h7l7 19v14h-7zM109 520v-26h7
v26h-7zM83 454v-33h6v33h-6zM1355 401l-13 -26h6l13 26h-6zM544 382h7l-14 -13h-6zM373 256h6l-13 -13h-7zM1322 223v-6h6q31 13 33 26zM340 237h13l-99 -73h-13q0 13 39 27v6h-13l20 20l20 -7z" />
    <glyph glyph-name="T" unicode="T" horiz-adv-x="1597" 
d="M807 1771h33q331 0 980 -217l33 -7q38 30 152 46v-13l-60 -66q277 -66 487 -66h7q165 0 395 79q-38 -35 -355 -177l-7 6h-7l-46 -26q-105 -20 -177 -20q-87 0 -408 119h-7q-180 -257 -410.5 -777.5t-430.5 -624.5q-90 -33 -217 -53q-117 0 -204 53v13h7q59 -33 138 -33
h33q46 0 72 13l20 -6l33 6v7h-20v13q38 0 79 72q108 89 184 244l178 388q51 71 51 125q143 220 217 388q31 31 112 172l59 59l-368 138q-85 57 -395 99l-139 6l-85 -13l-20 7v-13q-59 0 -303 -93l-6 7h-7l-92 -53l-6 7q-131 -62 -191 -184l-125 -211q-86 -168 -86 -329
l-7 -59q0 -132 119 -277q97 -59 138 -59h66l20 -13h33v-13h-119q-162 0 -303 171q-72 135 -72 250q0 357 395 704q305 211 632 211zM484 1679v-7h7l158 46v7h-13q-72 -4 -152 -46zM339 1633v-7h7l119 46v7h-7zM280 1600v-7h7q39 16 39 26h-6zM405 1619h7l-13 -13h-7z
M267 1527h7l-14 -13h-6zM234 1501h7l-13 -13h-7zM188 1461h7l-20 -19h-7zM1847 1448v-6l59 -20h6v7l-59 19h-6zM24 1297v-7l13 14v6zM912 1277h20q41 -41 46 -85v-40q-15 -163 -145 -349l-7 -6q-13 0 -13 -40l-184 -171q-151 -99 -178 -99q339 202 441 468q53 115 53 191v59
q0 23 -33 66v6zM-174 974l7 -19q0 -40 -20 -40v-125l53 -158h13l-27 92h14v7l-7 46h-7v-13h-13v26h-6v-20h-14v106h14v6l13 106h-7zM1373 882l-27 -59v-7h7l33 66h-13zM-62 599v-13q13 0 26 -39h7v13q-13 0 -26 39h-7zM445 487q-73 -46 -158 -46v13h6q40 0 152 33zM1197 507
l-33 -72v-7h6l33 73v6h-6z" />
    <glyph glyph-name="U" unicode="U" horiz-adv-x="1347" 
d="M438 1795q260 0 366 -155q12 -24 12 -68v-50q0 -102 -173 -291q-39 -69 -112 -117q-327 -395 -371 -744v-148q11 -137 86 -137l62 -18h19v12h6q140 0 297 143q106 65 174 204l62 124q56 62 56 130l272 427q19 68 130 199q84 167 192 167l6 6h7l6 -6h6l37 12h13l18 -18
q-91 -139 -272 -372q-116 -196 -372 -688q-22 0 -68 -260v-31q0 -52 37 -74h43q86 0 350 325l19 -13q-257 -374 -424 -374q-109 0 -143 50l-31 99v43l6 74q-356 -260 -532 -260q-254 0 -254 260q0 391 582 1016q161 228 161 347q0 108 -136 155l-68 6h-62v-12h-31l-69 -19
l-18 6q0 -12 -130 -49q-406 -167 -570 -471q-68 -131 -68 -279q28 -136 74 -167q35 -37 50 -37v-12h-7l-68 43q-35 0 -93 105l-12 81q0 117 81 260q0 32 192 241q26 43 247 180q142 91 415 155zM730 1634v-68h12v-6l-6 -25v-6h6l6 31v18h-12l6 37l-6 19h-6zM723 1473
l-24 -56v-6h6l25 56v6h-7zM668 1399l-7 -19v-6h7l6 18v7h-6zM1324 1231v-6h6q0 12 50 62v6q-41 -31 -56 -62zM1361 1219v-6l38 43v6q-12 0 -38 -43zM1343 1200q-112 -163 -112 -192v-6h6l112 198h-6zM1268 1163l-12 -31v-6h6l19 37h-13zM1219 1095l-25 -56h6q14 0 25 50v6
h-6zM519 1070v-6l-19 -19v7zM-466 1014v-43h6v43h-6zM476 1021v-7l-13 -12v6zM451 990v-6l-13 -13v6zM-460 953v-44l6 -43l-6 -19l6 6h7q14 -37 24 -37v6q-31 60 -31 131h-6zM426 959v-6l-12 -13v6zM197 730l-6 -19v-6h6l6 18v7h-6zM160 581l-13 -43v-7h6l13 44v6h-6z
M934 469l-19 -55v-7h7l18 56v6h-6zM141 451l-6 -56v-25h6l6 62v19h-6zM872 414l-25 -69v-6h6l25 68v7h-6zM54 407l-6 -55v-7h6l7 38v24h-7zM816 228v-6h6l25 99q-20 0 -31 -93zM1367 414h6v-6l-25 -25h-6v6zM878 215v-24h6v24h-6zM11 191v-44h6v44h-6zM122 191v-25l7 -25h6
v6l-6 44h-7zM841 184l-12 -37l6 -31h6l6 56v12h-6zM23 135v-19l13 -12v12l-6 19h-7zM73 116v-12l6 -19h6v7l-6 24h-6zM67 85v-6q8 -25 31 -37h6l-31 43h-6zM853 61v-19l25 -25v6q-12 38 -25 38zM314 48v-12h13l25 12v6h-7zM847 30v-19h19zM228 23v-6h25v6h-25z" />
    <glyph glyph-name="V" unicode="V" horiz-adv-x="1484" 
d="M2246 1837h8q140 -95 83 -262.5t-298 -167.5l-43 -7l-59 7v-7q0 -276 -181 -531q-78 -110 -211 -203q-73 -83 -415 -240q-263 -145 -489 -227t-390 -195h-7v15q109 80 610 312q186 91 596 422q276 281 335 465l43 204h-7q-171 0 -429 73q-87 42 -87 116q0 131 138 211
q0 17 167 29q122 -25 182 -80q73 -97 73 -116l7 7h7q58 -124 58 -218h102q240 19 285.5 152.5t-78.5 240.5zM1399 1625v-29q0 -90 102 -109q164 -29 335 -36l7 94q0 231 -218 284h-51q-155 0 -175 -204zM425 1691v-22h-160q-494 -45 -908 -334q-349 -282 -349 -480
q-37 -126 -37 -291q48 -269 153 -269q17 -20 211 -29q171 0 312 51q169 24 451 276q175 179 175 240h14q-69 -205 -371 -429q-177 -109 -232 -109l-7 7h-8q-84 -72 -487 -72q-145 14 -283 160q-73 115 -73 210v59q0 253 334 581q160 156 589 349q246 102 676 102zM440 1684
q61 0 211 -80l116 -138h-7q34 -66 58 -248q0 -176 -327 -588l-160 -269q-135 -222 -146 -371l8 -7v-8l-8 -7h-29q-18 0 -58 131q0 220 102 334q104 175 131 189l7 -7l36 51l-7 7v7q137 164 291 487q51 134 51 189v73q0 74 -73 131q-51 70 -196 109v15zM1581 797l-14 -22v-7
l36 21v8h-22zM353 659h7l-22 -22v7zM-1109 608v-37h8v37h-8z" />
    <glyph glyph-name="W" unicode="W" horiz-adv-x="2368" 
d="M1597 1794h6q102 -2 102 -13l7 6h7q192 -49 244 -149q20 -7 20 -41v-20q367 -78 367 -244q54 -136 54 -218v-101q0 -60 -54 -224q113 92 251 142q325 177 611 177h13q154 -25 211 -75q88 -93 88 -176q0 -329 -590 -564l251 136q258 171 258 353v47q-37 258 -238 258h-27
q-169 0 -394 -95v-7l-7 7h-13l7 -7v-6h-7l-20 6l6 -6v-7q-47 -11 -47 -20l-7 6h-14l7 -6v-7q-195 -77 -366 -258q-82 -95 -177 -238q-274 -279 -536 -400q-51 -38 -251 -102q-148 -61 -312 -61q-127 0 -265 81q-122 88 -122 238l7 7v7l-7 6l20 123q-411 -340 -556 -340h-14
q-36 0 -47 27v48q0 107 421 719l-7 21q129 158 230 319l95 190q-317 -161 -909 -258q-282 -57 -421 -170q-167 -120 -237 -360l-14 -122v-41q0 -79 102 -176q73 -44 149 -61l27 7l75 -7l48 7v-7q103 16 285 149h6v-7q-171 -176 -414 -176q-95 0 -244 81q-141 148 -156 326
q0 280 421 475q105 68 868 217q302 65 435 204q47 110 47 156v75l-13 20v7h13q95 -109 95 -204q-15 -201 -217 -461l-278 -373q-197 -286 -197 -381q0 -66 88 -81q98 51 360 292q79 79 156 183h14l40 -34l-108 -237q-41 -115 -41 -177v-34l-7 -7q15 -110 68 -156
q90 -67 204 -67q405 0 862 434q209 288 237 421q55 156 55 298v21l6 6l-6 7v54q0 271 -204 360h-14q0 -213 -258 -495q-224 -244 -393 -299l-68 -13q-143 0 -143 196q30 206 231 442q54 49 88 61q0 28 265 129q40 13 231 20v7q-30 98 -115 142q-91 55 -224 55v13zM1542 1787
h27v-13h-27v13zM1155 925v-54q0 -129 102 -129q129 13 326 177q360 326 360 624l-55 14q-285 0 -549 -258q-184 -225 -184 -374zM823 1190l-7 -20v-7h7l7 20v7h-7zM531 885l-41 -61v-7l48 61v7h-7zM-860 518l-7 -34v-27h7l7 54v7h-7zM2872 281h14l-14 -14h-13zM2832 267h20
l-13 -14h-7v14z" />
    <glyph glyph-name="X" unicode="X" horiz-adv-x="1041" 
d="M340 1838h24v-12h-24v12zM376 1832h6q111 -5 217 -109q41 -127 61 -127q158 0 322 -140q47 -77 67 -140v-12l-49 -231q104 26 164 110q236 279 474 279h134l12 -12l-19 -12h-12q-185 0 -267 -85l-140 -146v-6q99 42 413 121v-12h13l-7 6v6l207 43v6h79q214 0 322 -122
v-12q-51 54 -122 61q-81 24 -133 24h-12q-355 0 -790 -152l-340 -376q-140 -128 -140 -589q3 -59 73 -219q97 -134 170 -134h67q90 0 213 116q48 92 48 212v67q-23 152 -152 152h-12q-69 -11 -194 -121v6q125 133 231 133q57 0 139 -60q73 -80 73 -158q0 -148 -140 -274
q-134 -91 -236 -91q-25 -18 -104 -18q-180 0 -267 237q-36 62 -36 170v146l6 103l-128 -158q0 -26 -182 -176q0 -70 -255 -128l-146 -12l-12 18l146 37q131 74 401 376q236 242 236 365l67 194q-411 -164 -601 -164q-75 10 -164 91q-55 139 -55 274q0 129 195 297
q59 55 267 103l85 13v24q-8 145 -59 145q-82 47 -134 49v12zM83 1067l6 -30h-12v-12h12v-13q25 -151 152 -151q94 0 219 151q127 256 127 517l-12 54q-206 0 -395 -188q-97 -149 -97 -328zM648 1583l12 -91v-67q0 -81 -42 -206h-6v18h-7l-6 -24l6 -6v-6q-30 -106 -218 -292
q-102 -58 -152 -60v-7h73q140 3 546 177q73 232 73 321v25q0 181 -279 218zM2008 1359v-6h49v6h-49zM1261 1134l-66 -79h6l66 79h-6zM958 952q23 15 103 121h-6q-79 -14 -79 -79q-8 0 -18 -42z" />
    <glyph glyph-name="Y" unicode="Y" horiz-adv-x="1233" 
d="M1750 1749l7 -7v-7q-134 -55 -166 -104q-62 0 -180 -270q-70 -109 -160 -437v-14h-14v-7l7 -21h-7q-107 -374 -263 -645q-106 -205 -139 -242l-7 7h-7q-80 -149 -312 -306q-71 -41 -152 -41h-111v-14q-246 33 -326 104q-79 93 -97 166v21q131 -242 374 -242
q249 0 416 242q217 297 291 527q39 68 70 174q-211 -139 -354 -139q-249 56 -249 111l-35 48q0 152 173 382q208 289 208 527q-24 138 -138 138l-91 7h-27q-310 0 -701 -221l-138 -111q-175 -170 -243 -451l-7 -70q0 -163 125 -228l69 -7h42q304 0 659 333q117 149 117 215
h14l7 -21q-55 -174 -312 -375q-288 -180 -506 -180q-244 0 -312 194l-7 56q0 225 305 527l-7 7l243 173q41 0 48 35l7 -7h7q248 152 534 152h90q335 0 382 -194q0 -209 -326 -652l-56 -187h-7q0 -124 125 -153h28q374 63 374 202q47 116 111 346l132 333q16 0 28 63
q70 141 360 249zM398 1319h14v-7l-7 -132h-14zM384 -324v-7h14l28 7v7h-14z" />
    <glyph glyph-name="Z" unicode="Z" horiz-adv-x="2219" 
d="M859 1842v-7l-7 -7v-7l28 -7l64 14q170 -54 333 -156l7 7q0 -19 50 -28q101 -88 196 -93q213 -57 311 -57h29q346 0 538 206q78 45 78 127h14q0 -148 -28 -198l7 -7v-7q-17 -91 -128 -192l-531 -276q-352 -181 -871 -524q-170 -118 -566 -502l-7 -7v-7l255 21l35 -7
l113 7q152 0 850 -99h64q215 0 354 63v-7q-39 -37 -213 -99q-194 -106 -255 -106h-7q-157 0 -262 64l-219 71q-170 42 -255 42h-57q-379 0 -566 -78l-7 7h-7q-187 -56 -241 -106h-7v14q77 171 566 595q471 322 631 403v8h-15v7q31 0 64 35q23 0 71 43q399 195 765 431h-199
v15h14v7h-35v-15h-21q-110 43 -198 43l-282 114q-324 78 -453 78h-64q-224 0 -453 -149v7q318 284 397 284v14l7 -7h14q0 28 99 28zM810 1807v-7l85 -15q0 19 -64 29zM781 1792l-14 -21h57v14zM746 1750l35 -7h14v7q-21 0 -21 14h-14zM923 1757v-7l35 -7h7v7l-28 7h-14z
M696 1722h7l15 14h-8zM640 1686v-7h21l7 7v7h-7zM710 1686v-7h29l28 7v7h-7zM555 1665v-7h7l28 7v14zM1041 857h7l-14 -14h-7zM886 616h7l155 114q-155 -95 -162 -114zM645 616h7l-14 -14h-7zM411 276q26 0 305 262h-7q-81 -44 -298 -262zM369 227l-128 -121l22 -14h21
l35 22l-7 7v14q21 0 21 49l43 43h-7zM206 99v-7l28 14v15zM121 78h7l28 21l7 7v8h-7zM355 92v-7h21l92 14v7h-21zM482 85v-7h42l22 7v7h-7zM673 92v-7h36v7h-36zM886 92v-7h28v7h-28zM928 85v-7h28v7h-28zM319 57v-7h36v7h-36zM1204 50v-7q28 0 220 -106l-7 -22h56v7h-35v15
h14v7l35 -7q142 18 142 49h7l14 -14v-7h-14v-7h14q40 28 71 28v7l-142 7h-7v-7h29v-14l-43 -7l-141 14v14q-43 -4 -43 -21q-37 28 -163 71h-7zM220 36v-7h7l36 7v7h-22zM15 -42v-7h7l78 35v7h-7zM1516 -92q56 7 56 21h-7q-49 -7 -49 -21z" />
    <glyph glyph-name="bracketleft" unicode="[" horiz-adv-x="758" 
 />
    <glyph glyph-name="backslash" unicode="\" horiz-adv-x="569" 
 />
    <glyph glyph-name="bracketright" unicode="]" horiz-adv-x="758" 
 />
    <glyph glyph-name="asciicircum" unicode="^" horiz-adv-x="638" 
d="M315 1137q46 0 46 -46q33 -193 119 -297l33 -33v-13l-125 13l-27 -6q-32 0 -46 256q-68 -79 -158 -131l-6 6l-33 -6h-20v6q217 170 217 251z" />
    <glyph glyph-name="underscore" unicode="_" horiz-adv-x="1024" 
 />
    <glyph glyph-name="grave" unicode="`" horiz-adv-x="357" 
d="M103 1110h7l100 -247l54 -60l-20 -34h26l-13 -13h-47q-45 0 -73 47l-7 6v7h-7l-6 -7h-7l-20 127z" />
    <glyph glyph-name="a" unicode="a" horiz-adv-x="1067" 
d="M508 703q102 0 165 -55q13 37 27 37h9q67 0 109 -55l-45 -55q45 -52 45 -91h-18l-36 73q-81 -75 -192 -346l-9 -64q7 -31 55 -55h9q219 35 219 91q30 0 218 222h9v-9q-120 -252 -346 -368q-39 0 -54 -27q-210 11 -210 82l-9 45v64l-19 19q-257 -198 -355 -210l-9 -9v-10
l-46 10h-9l27 -37l-9 -9h-9q-137 89 -137 128l-9 100q12 49 100 173q0 85 265 292q160 55 264 64zM299 621l9 -9v-9l-9 -9h9q140 63 200 63v10l-36 9q-49 0 -173 -55zM508 630v-18h-36q-145 0 -338 -219l-73 -110l-36 -127q0 -44 46 -91h27q57 0 255 173v-9
q-132 -137 -164 -137v-9h9q61 0 301 292q52 121 137 246v9h-128zM61 448h10l100 109v9q-110 -97 -110 -118zM517 448h10v-9l-28 -28h-9v9zM554 384l-9 -28v-9h9l9 28v9h-9zM426 238h19v18q27 0 27 18v9zM499 229l-18 -73l27 -37h9l-9 110h-9zM-21 211q0 -28 -18 -28v-45
l9 -64h9v45l-9 46h18v46h-9zM508 74l19 -19h9l-19 19h-9z" />
    <glyph glyph-name="b" unicode="b" horiz-adv-x="811" 
d="M-428 1802q115 0 307 -85h8v8q-25 0 -25 17h17q320 -206 527 -391l59 -34h9q102 159 153 204q56 99 315 170h8q105 0 281 -136l8 8l60 -127h-17v-17h17v-9q-26 -187 -77 -187l9 -8v-9q-23 -59 -77 -59q-71 -51 -187 -68l9 -9v-8h-17q-279 63 -400 144l-9 9h-8
q-112 -169 -315 -536v-17h9v25h17l-17 -59h8q127 76 247 76q196 0 196 -246q0 -185 -256 -357q-248 -102 -433 -102h-34v17h17v8l-128 17v17h26q-9 26 -51 26q-8 -40 -154 -94l-8 26q437 553 476 739l315 528l-417 314q-213 144 -493 171q-423 0 -578 -264l-26 -77v-25h-17
v8q0 206 323 332q87 31 323 60zM559 1257q223 -136 408 -136h17q111 0 238 162l26 127q-75 179 -111 179q-104 51 -136 51l-34 8q-197 -53 -297 -221q-111 -145 -111 -170zM-1074 1376h17v-25h-17v25zM1188 1198q0 -17 -25 -17l-9 -9v-8h9l34 34h-9zM389 1019l-51 -93v-9h8
l51 94v8h-8zM-130 109v-8l179 -34q348 86 348 170q148 140 187 255q0 144 -102 161l-34 9q-200 -56 -272 -170q-60 -150 -238 -315zM542 381q0 -20 -119 -153h8q98 100 119 145v8h-8z" />
    <glyph glyph-name="c" unicode="c" horiz-adv-x="748" 
d="M528 700q80 -9 80 -35h-18v-18h18q0 -84 -168 -160l-9 9l17 53q0 80 -62 80q0 -19 -71 -35v9l-132 -71v-9h17q0 13 36 26v-8q-169 -163 -169 -266h-17v17h-9q0 -53 -18 -53q34 -186 151 -186h88q168 0 445 296q12 37 44 53l18 -18q-148 -194 -356 -340l-239 -44l-98 27
l-9 -9h-9q-159 67 -159 177v18q0 195 416 425q153 62 213 62zM510 673v-8h36v8h-36zM537 567h9l35 44v9q-32 -16 -44 -53z" />
    <glyph glyph-name="d" unicode="d" horiz-adv-x="1073" 
d="M1027 1783h28v-18l-18 -18h-37q-413 -76 -413 -395q0 -191 191 -191l246 36l18 -18q182 295 182 437q0 106 -105 131v9q147 -31 160 -112l27 -119v-45q0 -106 -73 -228h9l1027 334q526 118 846 118q399 0 647 -191h-9q-258 146 -583 146h-45q-625 0 -1537 -343l-391 -119
q-69 -108 -215 -335q-76 -122 -173 -219q-46 -73 -46 -100q-66 0 -200 -346l-9 -55q7 -31 55 -54h27q18 18 127 27q136 96 304 290h10v-9q-145 -267 -359 -372q-39 0 -55 -27l-45 9h-119q-69 0 -82 91v54l10 46q-279 -200 -383 -200h-100q-73 25 -73 91l9 27l-18 55
q51 161 109 245l9 -9q73 121 119 164v-18l-9 -27q203 173 409 173q91 0 155 -46l379 500v9h-9l-210 -27h-54q-147 0 -192 145q-36 37 -36 101v27q96 290 404 358zM1073 1774h9l18 -18h-27v18zM3771 1504h9l27 -27h-9zM1206 1398l-55 -128v-9h9l55 128v9h-9zM1087 1179
l-27 -64v-9h9l37 73h-19zM499 625v-18h-36q-142 0 -337 -219l-73 -109l-27 -137v-9q11 -68 36 -73h9q119 0 419 328l-9 9v18q41 34 128 173v10l-28 27h-82zM308 179h9l18 18v9z" />
    <glyph glyph-name="e" unicode="e" horiz-adv-x="675" 
d="M451 750q97 -9 119 -37q0 -130 -156 -219l-137 -110l-212 -120l-17 -99q0 -83 129 -101q202 0 484 320l9 -9v-9q-146 -241 -411 -348l-82 -18q-210 31 -266 110l-18 36q0 327 494 586q64 0 64 18zM469 732l-9 -9v-10q15 0 37 -54h9l9 9v27q-4 19 -46 37zM75 328l257 148
q85 50 119 137l-9 9v9l9 9q-12 55 -28 55q-161 -59 -320 -283zM12 366l-37 -101v-64h9q10 98 37 156v9h-9z" />
    <glyph glyph-name="f" unicode="f" horiz-adv-x="403" 
d="M1677 1737h-15v-7l53 -33l8 -1q0 16 -23 17l-8 8l1 7h15q83 -65 81 -143l-1 -23q-7 -182 -346 -329q-106 -28 -342 -35l-279 33q-92 -206 -139 -205q-1 -19 -41 -61l8 -8l-1 -7q-212 -275 -460 -504l109 11v-7q-2 -64 -167 -111l-191 -358l366 26l-1 -24l-8 1
q-365 -9 -366 -42q-84 -177 -244 -317q-157 -142 -432 -133q-108 13 -106 81l1 16q8 228 665 373l84 168l-8 8q14 -1 68 160q15 0 17 39l8 7l-8 8q-23 1 -22 16q103 107 131 213q12 2 143 321l147 422l25 30v16q-452 140 -709 149l-54 2l-171 -2v16l195 8q167 -13 386 -60
l39 7l138 -36l8 7h8l192 -61q171 250 471 372q515 99 775 -35zM1275 1782v-16l-8 1q-224 7 -422 -87l-1 -7q60 -64 59 -96l-9 -46l6 -54q-19 -142 -54 -216q154 -13 154 -29l23 7v-15l93 -3q377 -14 536 245l18 69q7 186 -102 190q2 39 -238 55zM799 1698l-1 -8l16 -1l47 14
v8h-15zM1707 1681l-1 -7l15 -16l8 -1v8l-15 16h-7zM805 1643l-1 -15l23 -17v16l-15 16h-7zM1735 1603l-10 -70l-1 -8h8l10 46l1 32h-8zM538 1357q137 -67 223 -70v8q51 127 54 208l2 39q2 76 -52 87q-97 -33 -176 -149zM1723 1487l-17 -31h8l17 23v7zM1547 1330v-8h15
q51 18 56 36v8l-16 1zM1412 1257v-8h15l103 35v8h-8q-76 -36 -110 -35zM513 1312l-316 -828q312 284 463 582q84 171 85 199h-8zM375 1122l-1 -38l7 -1l2 39h-8zM317 1016l-9 -23v-16h7l9 31l1 7zM291 947l-8 -23l-1 -8h8l9 23v7zM174 702l-26 -61v-8h8l25 61l1 8h-8z
M132 611l-17 -39l-1 -15h8l17 46l1 7zM121 533l-34 -99v-8h7q1 23 17 22l-1 -15l8 -1l8 23l1 8h-8l-1 -15h-7v16l18 61v8h-8zM52 326q-1 -23 -16 -23v16h-8l-33 -69v-7l8 -1v16h8l-1 -24l-33 -61v-7l7 -1l76 153v8h-8zM405 -12l23 -1v-16l-23 1v16zM-756 -352l-2 -55
q19 -78 52 -79l23 -1q236 -8 473 418l-8 1q-532 -121 -538 -284z" />
    <glyph glyph-name="g" unicode="g" horiz-adv-x="873" 
d="M476 706q97 0 157 -53l26 35h9q63 0 104 -52q-83 -79 -192 -288l-96 -131v-9l79 88v-18l-79 -104v-9q191 83 392 248v-18q-150 -178 -418 -291q-145 -61 -497 -541q147 -135 25 -341q1 11 31 128q-8 103 -46 136t-54 33h-8q-253 -261 -376 -261l-148 -18
q-122 68 -122 140q0 159 314 375l340 166l114 43v18q0 17 -53 17q-69 69 -69 192v52q0 126 270 376q188 87 297 87zM301 645v-18h9l44 18l8 -9h9l79 26v18zM476 636v-17h-35q-139 0 -323 -210l-70 -105l-35 -122q0 -67 88 -104h26q75 0 357 340q13 64 114 209v9h-122z
M676 636v-26h9l9 26h-18zM641 610l-52 -70v-9h9l52 79h-9zM48 461h9l96 105v9q-105 -93 -105 -114zM598 523q0 -32 -44 -70q0 26 -17 26v-9l8 -9v-8l-69 -87v-9l8 -9v-9h-8l8 -8v-9l-26 -61h18q0 26 122 200l17 44v18h-17zM484 461h9v-8l-17 -35l-18 17zM554 453v-18
q-35 -63 -61 -69h-9zM-30 226l-18 -18v-43l9 -61h9v43l-9 44h17v35h-8zM197 51h8l70 35v18h-9zM-536 -376l8 -9l-43 -17v-9h8l62 17l-9 9v9l87 17v-8l-9 -9v-9h9q59 44 148 44l114 -18v9q279 295 279 314h-9q-261 -100 -645 -331v-9zM-693 -585v-62q0 -34 130 -43
q95 0 341 270l-78 31l-132 -13q-213 0 -261 -183zM-231 -559v-9q100 83 105 105v17z" />
    <glyph glyph-name="h" unicode="h" horiz-adv-x="970" 
d="M-444 1797q211 0 537 -264q200 -205 427 -282l34 -9q309 487 537 487h85q74 0 94 -111q0 -173 -196 -299q-197 -136 -409 -136l8 -9v-8q-45 -21 -196 -273l-188 -282v-8h9q148 102 247 102h26q119 -36 119 -111v-34q0 -45 -188 -281l-34 -120v-26q0 -62 26 -68h26l59 17
v-8q67 0 403 337l9 -9v-8q-301 -388 -506 -388q-145 4 -145 127q0 160 248 461v26q0 46 -34 59q-290 0 -521 -477q-111 -158 -290 -196l-25 -9q-34 13 -34 26q203 185 273 332l187 299q350 478 350 503l8 26h-8q-197 53 -563 401q-5 27 -171 128l-8 -9h-9q-109 68 -247 68
q-186 0 -401 -68q140 94 461 94zM-922 1703h17l-17 -17h-17zM707 1234h34q188 0 393 247q59 96 59 145v26q-16 31 -51 43q-140 0 -435 -461zM-990 1652h8l-34 -34v8zM59 1490q18 -36 111 -85v8l-103 77h-8zM212 1362v-9l52 -25h8v8l-51 26h-9zM426 1242v-8l25 -9h9v9l-26 8
h-8zM793 1183h25l-25 -17v17zM16 364l-25 -51v-9h8l26 51v9h-9zM-43 279l-26 -52h8l35 52h-17zM-146 91h9q108 84 145 153v9h-9zM-52 227l-9 -8v-17h9l9 25h-9zM-95 202l-111 -120v-8q88 75 120 128h-9z" />
    <glyph glyph-name="i" unicode="i" horiz-adv-x="446" 
d="M454 1049l26 -52q-61 -167 -113 -167q-105 23 -105 62q0 157 192 157zM428 1023v-35l17 17v18h-17zM159 688l8 -8l39 8h16q46 -5 46 -23v-8l-62 16q0 -16 47 -16q0 -25 -203 -369q-13 -124 -24 -124h-8v-55l8 8h8q18 -47 62 -47q138 69 317 301q23 0 23 23l8 8h16
q-200 -311 -387 -386l-47 -8l-23 8v-16q-75 0 -117 109v47h16v-16h7v31h-15q0 83 250 509l8 8h7zM-5 320l-8 -32v-7h8l8 23v16h-8zM-44 140l8 -46h16v23zM-20 70q7 -23 46 -23h8v8q-31 0 -31 31h-8z" />
    <glyph glyph-name="j" unicode="j" horiz-adv-x="299" 
d="M283 1173h58q0 -52 -22 -65l7 -7v-22q-14 0 -86 -129l-108 -65l-7 7v7l50 180h7q15 0 15 -21l-8 -36q46 20 87 93q0 15 -22 15l-7 7v14q36 0 36 22zM247 1159v-8l-14 -14h-8l-14 14l7 8h29zM312 1151l-7 -21h14l7 21h-14zM218 1029l-21 -29v-7l28 36h-7zM189 943h8l14 14
h-7zM139 914v-7l29 28h-7zM175 698h14l-14 -29l7 -7v-8l-57 -172q82 123 86 194v7l-7 7v8h14l15 -15q-71 -230 -253 -569v15h-7q-82 -192 -115 -209v7l14 29v7h-7q0 -21 -115 -187v-8q14 0 14 22h15v-14q0 -19 -166 -166h-7l7 7v7q-165 -72 -202 -72h-14q0 29 -65 29
l-122 15h-15v-8l65 -14v-14h-7q-338 118 -720 324q-176 108 -332 108h-93v-15h-43q-237 0 -382 -309h-15v7q34 76 123 187v7q-159 -124 -159 -273v-58h-14v43q0 252 331 396q84 29 188 29h64q193 0 577 -223l21 -7h7v7q-158 74 -158 86h14q454 -223 785 -223q141 0 231 195
q317 468 317 583q21 34 65 180q14 0 14 22l7 7h8v-7l-22 -94v-7h7q0 98 101 173zM117 604v-7h8l14 50q-14 0 -22 -43zM31 395l-7 -21v-8h7l7 22v7h-7zM24 316l-22 -58h14l15 51v7h-7zM-120 129l-44 -87v-7h8l43 86v8h-7zM-214 -37l36 43v7q-36 -21 -36 -50zM-279 -116
l-29 -51v-7l36 36v22h-7zM-1150 -232q93 -98 417 -151h8l7 7h7l7 -7h7l22 7l22 -7l57 7v8q-194 0 -554 136zM-372 -311q-32 -36 -51 -36v-7h15l43 43h-7zM-725 -433h21v-15h-21v15z" />
    <glyph glyph-name="k" unicode="k" horiz-adv-x="656" 
d="M-634 1671h29v-15h-29v15zM-540 1664h36v-15h-36v15zM-439 1656h22v-14h-22v14zM-677 1642q204 0 368 -43l22 7v-15l21 8l29 -8h8v8l-44 7v14l304 -115q514 -188 553 -188q100 190 412 382l144 22q133 10 238 -137l22 -22v-65q0 -31 -61 -151l36 21v-7
q-108 -116 -340 -116h-108l-181 8v-15l-50 7l-248 -351h22l79 21q132 0 152 -123v-14q0 -104 -152 -166q0 -31 -166 -58v-7q123 -58 123 -167q0 -98 -28 -227q-29 -82 -29 -174v-43q39 -123 108 -123h36q145 41 145 79l7 -7h15l14 72l14 -28q-54 -145 -231 -145
q-87 0 -173 116q-44 88 -44 173q0 109 14 170q44 80 44 159l-7 7v8l7 29q-17 56 -116 108h-58q-71 -183 -282 -412q-139 -137 -419 -137v14h29q64 0 260 123l217 325q407 620 526 815h7v14q-36 0 -141 43l-7 -7h-7l-362 145q-434 144 -701 144h-79q-247 0 -549 -144
q253 166 607 166zM-338 1635h22v-15h-22v15zM960 1663v-7h7l80 21v8h-22zM732 1288q37 -15 166 -15h43l8 -7l7 7h108q272 8 264 217v7l-8 65l8 29l-8 7h-7v-14h-7q0 50 -122 86h-58q-120 0 -329 -274q0 -21 -65 -108zM1349 1584v-8l7 -21h8v21l-8 8h-7zM-1292 1468l-43 -36
h-7q21 36 50 36zM717 1411h8l28 29q-33 -14 -36 -29zM-1357 1425h7l-79 -79v7zM638 1396l-7 -21h7l7 7v14h-7zM761 1244h43v-14h-43v14zM826 1237h50v-14h-50v14zM253 589h7q159 29 268 108l50 73l8 -8l7 51v15q0 57 -58 57h-29q-90 0 -173 -166q-34 -30 -80 -130zM528 676
l-15 -22h8l14 22h-7zM318 553v-7l22 -8h7v8l-22 7h-7zM-520 11h29v-15h-29v15zM405 101l-14 -72v-15h7l15 80v7h-8z" />
    <glyph glyph-name="l" unicode="l" horiz-adv-x="527" 
d="M885 1695l10 8l17 -1l26 -20l27 7q48 -81 42 -163q-11 -156 -157 -327l-25 20q-92 -136 -152 -186l1 9l202 271q-2 -27 16 -28l11 26l-8 9v9l41 69l-7 27q22 -2 42 95l5 71l-16 36l-44 3q-111 -67 -203 -235q-25 -7 -78 -92l9 -9l-1 -9q-268 -342 -492 -793l111 128
l-1 -18l-150 -188q-57 -171 -61 -236l-1 -8q-9 -124 35 -127l91 20l9 -1l-10 -8v-9h9l18 16l-8 9l1 9q150 105 338 326l8 -9v-9q-272 -411 -459 -398l1 18l-9 1l-71 -4q-65 92 -62 129l5 71q18 240 351 820l98 136l1 9h-9q-55 -101 -108 -144l1 18q307 425 535 657
q40 24 73 21zM827 1628l-9 -9l-2 -17l9 -1l11 26zM557 1335l-109 -161v-9l9 -1l109 162v9h-9zM455 1138l-1 -9l9 -1l20 34l1 9q-14 1 -29 -33zM392 1133l-100 -162l-1 -18l17 -1l92 172l1 9h-9zM345 967q66 59 69 93q-67 -62 -69 -93zM239 975l-2 -18l-19 -16l2 17z" />
    <glyph glyph-name="m" unicode="m" horiz-adv-x="1269" 
d="M247 760h9v-9q-9 -55 -28 -55l-9 9l-18 -46v-9h9l9 36h18v-9l-44 -114q103 104 210 114l37 -55v-74l-9 -92q238 235 377 258q147 0 147 -101v-9q0 -158 -146 -459l-10 9h-9v-55l37 -18q155 0 367 210l89 109h10l-1 -26q-302 -388 -483 -385h-19q-147 0 -147 110v55
q156 332 156 385l9 55q-15 46 -55 46q-157 -37 -378 -395l-27 -111l-28 -55v19h-9q0 -90 -159 -117l-9 9v37q186 358 186 503v9q-19 37 -46 37v9h19v9h-9q-123 0 -249 -377q-80 -221 -165 -221q-28 0 -74 -7l-9 9v9l64 127q69 96 166 378l18 18l-9 9v9l-74 -46h-27zM900 650
v-56h18v10l-9 46h-9zM311 309v-9h9l28 74q-15 0 -37 -65z" />
    <glyph glyph-name="n" unicode="n" horiz-adv-x="917" 
d="M314 776h9v-9q-126 -136 -126 -198q179 144 270 144q86 0 144 -135v-36q-18 -170 -72 -234q-63 -107 -78 -207l54 -27h27q96 0 376 334h18q-285 -442 -529 -415h-9q-90 12 -90 81v18q0 97 97 247l53 167q-11 112 -54 153v9h27q5 -36 27 -36v9l-9 9v9l9 27h-9
q-37 0 -90 -36q-234 -110 -234 -261l-27 -27v18l9 9v18h-9q-120 -231 -238 -407l-134 -16l-9 9v9q96 117 210 297q24 0 81 144l-9 36q36 9 36 54l-126 -36q187 102 315 225zM485 686v-9l9 -27h9l9 27l-9 9h-18zM548 650v-144h9l9 99l-9 45h-9z" />
    <glyph glyph-name="o" unicode="o" horiz-adv-x="788" 
d="M358 703q169 -45 248 -180l17 -60v-69q0 -226 -171 -325q-77 -69 -197 -69h-112q-188 37 -188 171l-9 60q0 255 326 446zM212 514h8q-8 -37 -43 -42l-68 -181l-17 -68l8 -69h-17v-34l9 9h8l35 -60l-9 -9l51 -26q173 0 292 283l26 180v26q0 86 -26 86l-51 25
q-88 0 -206 -120zM220 574h9l34 18v17q-39 -17 -43 -35zM503 592l9 -69h8v43l-8 26h-9zM-11 247q0 -100 43 -161l7 7h7l7 -7h7v7l-7 24l-7 -8h-14l-22 77v54q22 0 22 69q14 0 14 23l7 8h7v-16l-21 -77v-15h7l43 139l-8 -8h-7v15l57 93v7l-42 -46h-8v8l50 62v7
q-75 -46 -142 -262zM520 334q-11 -111 -51 -111v-9l17 -17l43 112v25h-9zM340 51h9q46 0 86 69v9q-77 -49 -95 -78z" />
    <glyph glyph-name="p" unicode="p" horiz-adv-x="936" 
d="M442 761l9 -9v-9q-56 0 -169 -169v-9h9q155 115 232 115v-17l-54 -9v-9h27l89 27l-9 8v9l9 9h53q52 0 80 -151v-9q0 -161 -151 -356l-142 -107h17q69 0 205 80l9 -9h9q41 18 45 36l-45 -27h-9l262 220l24 28l9 -9q-145 -185 -357 -319q-152 -71 -276 -89h-9v18h-89v-18
h-9q-62 0 -62 18l-9 -9h-36v18h-18v-18h-8v18h-98l-18 18l9 9l-27 9q-56 -162 -305 -495v-18q543 -160 864 -160l258 9v-18l-338 -18q-179 0 -846 125q-282 -285 -498 -285q-196 24 -196 80q-16 0 -18 45v26h18q0 -66 27 -80l26 9l9 -9v-9h-18v-9h9l9 9h9l53 -9
q181 0 410 267l-62 9h-36l-45 -9l-53 9h-27l-178 -35q0 21 63 26l9 9q62 6 62 27l53 -9l54 9l178 -18l17 27h-17v18h9l26 -9q157 223 376 557q204 418 223 418q229 203 373 223zM407 618v-9h9l26 9v9h-8zM33 173l-9 9l-62 -107l9 -9l124 -26q222 50 276 142q182 202 223 392
q0 38 -80 53q-61 0 -321 -169q-133 -217 -133 -249zM674 458l-36 -98v-9h9l36 98v9h-9zM1339 -295v-9l-8 -9v-8l8 -27q-80 -80 -97 -80v-9l8 -9v-9l259 62l8 -9v-8l-17 -18l-36 9l-9 -9v-9l-9 9h-9q-180 -36 -400 -143l-134 -35v9l-9 -9h-17v18q79 0 382 186q0 24 80 107z
M1704 -375h178v-18h-178v18zM1607 -384h44v-18h-44v18zM1918 -384h80v-18h-80v18zM1535 -393h36v-17h-36v17zM2016 -393h9q294 -39 294 -142v-45h-18v36q0 104 -276 134h-9v17zM-396 -482v-17l178 -36h9v9l-161 53zM832 -597h27v-18h-27v18zM788 -606h26v-18h-26v18z" />
    <glyph glyph-name="q" unicode="q" horiz-adv-x="842" 
d="M427 668q102 0 102 -173l-8 -24h8q28 0 157 134l71 32l8 -8v-16q-165 -223 -228 -347q-16 0 -16 -23q-35 0 -39 -71q-23 -19 -229 -386q174 -31 174 -94l7 -8h16l8 126q-13 134 -39 134l-8 -8l-16 47v39h24v-15q119 40 405 342q0 24 39 47v-16q-127 -204 -247 -271
l-126 -142l15 -110l-39 -378v-8q-18 0 -39 -94q-120 -150 -205 -150q-71 0 -110 55q-32 0 -32 39l-16 16l8 32v23h-8v-39q-27 0 -31 173v47q29 0 39 134l-8 8l16 16h-63v-8h24v-16h-32v16h-23v-16q-87 0 -630 -228q-365 -165 -717 -165q-173 0 -402 110l-94 102v8
q82 -123 354 -181l111 -16h15l40 8l39 -8q335 0 851 260l7 -8q61 53 520 181q21 0 55 111l134 181h-8q-122 -63 -299 -63q-72 31 -87 63v8l8 -8h8v8q-13 47 -31 47q0 208 315 464q149 56 149 71zM466 637q18 -48 31 -48v16l-15 32h-16zM348 613q-307 -189 -307 -339l-24 -86
l8 -32h-8l8 -8v-55q59 -31 102 -31q116 40 181 126q111 55 111 141l8 8h7l8 -8q32 72 32 158h-16v39q-34 87 -87 87h-23zM474 314v-8h8l15 31v8zM-62 235l-8 -24v-8h8l8 24v8h-8zM-70 156l-7 -39q15 0 15 23v16h-8zM308 77l-15 -39h8l23 39h-16zM-7 70v-16l24 -24h16z
M190 -505q0 -205 79 -205q118 48 118 142l8 8l32 86l-8 8l8 55v16q0 142 -150 142h-32q-55 -100 -55 -252zM458 -356v-31h8v31h-8zM56 -442v-32h8v32h-8zM96 -450l-8 -40v-7h8l8 39v8h-8zM56 -497v-63h8v63h-8zM387 -616v-7h8l8 31q-16 0 -16 -24z" />
    <glyph glyph-name="r" unicode="r" horiz-adv-x="685" 
d="M247 805q34 -49 34 -87l-26 -60h9l69 -26q165 40 260 86v-8l9 -26l-200 -208l-103 -164l-61 -78l-43 -113q0 -75 95 -78q66 0 112 70q124 85 294 306h9v-9l-9 -29q-129 -208 -164 -217q-133 -164 -216 -164h-69q-41 0 -61 26l-9 -9h-17l-26 173q43 206 234 399v8
q-34 -17 -95 -17h-18l-43 9q-288 -342 -360 -351q239 263 239 333q54 55 60 113l-8 34q10 28 52 70zM281 390l-8 -26h8l9 8v18h-9zM264 312l-17 -35v-9h8l18 35v9h-9zM480 156l-69 -69q21 0 78 69h-9z" />
    <glyph glyph-name="s" unicode="s" horiz-adv-x="615" 
d="M362 879h42l21 -21v-21q0 -65 -147 -188l-10 -73q28 0 52 -168q18 0 42 -105v-115l-11 -10v-11h11q39 0 265 245h11q-43 -133 -339 -360q-69 -42 -178 -52q-251 61 -251 105v42h10l63 -53h21q209 0 209 189q32 71 42 198l-10 126l-267 -324h-11l84 94l-52 -31h-11
q0 25 257 324q0 98 157 209zM257 733v-32q60 44 84 94v21h-11q-39 -23 -73 -83zM310 377v-21l20 -63h11v21l-21 63h-10zM289 356q0 -84 -21 -84l-21 21l-32 -136h21v-42l-21 -31v-11l84 94h11v21l-11 -10h-10v10l10 115v53h-10zM-93 272h10l-42 -41v10zM79 52v-10h11l42 10
v11h-21z" />
    <glyph glyph-name="t" unicode="t" horiz-adv-x="337" 
d="M983 1767v-8l8 8h24q-204 -118 -304 -353q-48 -52 -48 -72h-8v16h-8l-24 -48v-8h8q0 24 16 24v-16l-8 -8v-8h136v-8l-8 -8v-8q576 -64 817 -64h56q661 0 897 384q22 0 40 48h8v-16q-115 -192 -256 -272v-8h16l288 120l8 -8h8l88 48l8 -8h8q518 185 729 185q65 24 184 24
h8q210 0 312 -137q24 -42 24 -96h-16v16q0 131 -240 185h-144q-146 0 -433 -73l-40 8l8 -8v-8h-8l-32 8l8 -8v-8h-8l-8 8h-8l-40 -8l8 -8v-8h-8l-32 8l8 -8v-8h-8l-24 8v-8l-224 -88l-24 8v-16l-24 8q-677 -296 -953 -296l-232 -8v-8h192l240 24v-16q-168 -24 -480 -40h-16
v16h-64v-16h-16q-67 0 -625 104h-88v8l8 8v8l-64 8l-64 -104q-424 -792 -578 -1033q-74 -92 -328 -184v16h16v8l-24 8l-8 -8h-24q0 20 80 32q187 103 304 392l161 257l-8 8v8q101 161 321 592q-236 -16 -424 -48q0 16 296 88q0 22 128 32v-16h40q153 344 248 344
q153 113 224 113zM359 1294v-8h8l88 8v8h-56zM2024 1198h24v-16h-24v16zM1256 1182v-8h48v8h-48zM1984 1190h24v-16h-24v16zM1328 1174v-8h112v8h-112zM1272 1158v-8l80 -8h40v8l-96 8h-24zM-419 -35h32v-8l-32 -8v16z" />
    <glyph glyph-name="u" unicode="u" horiz-adv-x="834" 
d="M313 699v-9q-294 -364 -294 -500v-69q0 -49 61 -61q195 118 354 363q93 204 164 267l8 -8l9 8h78l17 -17q-268 -362 -268 -535q0 -52 61 -52q89 32 314 324h8l9 -9h8q-268 -392 -426 -392q-86 33 -86 129l26 121q-204 -221 -337 -259h-25q-104 0 -104 129q0 177 224 492
q58 78 199 78zM218 656l-52 -61h9l52 61h-9zM-24 293l-26 -112v-8q18 -20 18 -61h8v43l-8 43h17l-9 52l9 35v8h-9z" />
    <glyph glyph-name="v" unicode="v" horiz-adv-x="759" 
d="M614 742h9l34 -35v-34q0 -76 -155 -259l-86 -129q56 -40 94 -40h9q101 15 252 165l9 -8v-17q-157 -168 -287 -183q-112 3 -112 31l-190 -173q-112 -60 -181 -60h-9q-60 38 -60 121q0 281 173 552l43 34h26l8 -8l9 8l43 -8l43 8l9 -8q-217 -346 -242 -595q17 -40 35 -44
q98 0 259 233l-9 43v35q0 246 241 362zM234 682v-26l26 26v8zM424 544v17h-8v-9l8 -26h-8l-26 -51l8 -9l-8 -60v-35h17l172 311v8h-8q-53 0 -147 -146zM114 535l-18 -86v-9h9l26 86l-9 9h-8z" />
    <glyph glyph-name="w" unicode="w" horiz-adv-x="1061" 
d="M901 805q77 0 105 -140q-83 -224 -218 -455l8 -9h18q67 4 154 95t87 109h17v-9q-67 -151 -223 -221h-53l-43 9q-147 -175 -350 -175l-9 -9h-9q-114 23 -114 88l-8 52q-132 -122 -228 -122h-17q-88 20 -88 87q0 332 210 586l61 18q57 0 88 -44q-219 -315 -219 -525
q0 -44 44 -52q54 0 61 43q47 12 158 210l35 27q78 -11 78 -35v-9l-61 -184v-26q0 -70 70 -70h9q79 0 175 105q52 90 52 122l-17 114q41 301 184 403zM893 779q0 -23 -44 -26q-131 -119 -131 -315l8 -97h18l122 228l44 166v18l-9 8v9l9 9h-17zM910 665l-26 -87v-9h9l26 87v9
h-9zM123 543v-9h8l18 52q-15 0 -26 -43zM44 333v-35h9v35h-9zM-26 149v-18l26 -8v35z" />
    <glyph glyph-name="x" unicode="x" horiz-adv-x="482" 
d="M-109 750h10q209 0 181 -219q245 219 379 219l38 -9v-19q-161 0 -354 -323l-57 -124h-9v-38q25 0 22 -152l28 -38h-19v-9h10l38 9v-9q97 0 321 352h9l10 -9q-173 -372 -312 -372v10h-19v-19h-28q-171 0 -171 161v19h-29q-63 -25 -114 -76h-9v10l19 28h-19v19
q142 156 180 285q28 285 -105 285v19z" />
    <glyph glyph-name="y" unicode="y" horiz-adv-x="803" 
d="M220 746l100 -17l9 9l8 -9v-8q-320 -435 -320 -581v-34q0 -67 51 -84l8 9h25l9 -9q155 53 243 227q255 402 261 489h8l126 8v-8l8 8h9l16 -17q-22 -15 -117 -218q-274 -533 -514 -999q-172 -302 -319 -302l-76 -25v8l-92 -17q-183 46 -318 185q-142 133 -253.5 302.5
t-281.5 201.5h-8q0 23 -59 33q-165 0 -327 -75q-27 -34 -92 -34l-25 -25l8 -8q-106 -61 -260 -227v17q244 377 830 377q224 -8 439.5 -345.5t262.5 -342.5l67 -17h93q122 89 201 218q203 300 329 586l8 34h-8l-126 -50l-67 -9h-25q-147 0 -168 109q0 170 236 523
q41 41 75 109zM605 654v-25l34 33v9zM344 98l-16 -50v-9h8l17 42v17h-9zM7 -480l-25 -42v-8h8l25 50h-8zM-77 -648v-8h9q0 17 41 50v17z" />
    <glyph glyph-name="z" unicode="z" horiz-adv-x="674" 
d="M319 670q133 0 133 -133q0 -69 -191 -325l8 -8l-8 -9l58 9h75q21 0 257 183l33 9v-9l-157 -158q0 -15 -50 -25l-8 -34q45 0 67 -108q0 -218 -384 -650q-195 -229 -305 -229h-34q-25 0 -33 67q0 293 325 674l22 46q17 0 200 159v8l-8 8v9l-158 -17l-9 8v17
q159 193 159 341q0 92 -84 92v8q-41 0 -223 -226h-17v8q113 208 290 277zM-95 -667q0 -75 58 -75q200 181 306 371q92 150 125 350l-25 108h-8l-25 -17h-9l9 9v8h-9q-313 -255 -364 -479q-58 -120 -58 -275z" />
    <glyph glyph-name="braceleft" unicode="{" 
 />
    <glyph glyph-name="bar" unicode="|" 
 />
    <glyph glyph-name="braceright" unicode="}" 
 />
    <glyph glyph-name="asciitilde" unicode="~" 
d="M325 572h7q65 0 178 -140q91 -69 178 -69h8q58 0 239 178l8 -8v-8q-38 -115 -209 -263q-30 -15 -85 -15h-31q-42 0 -185 155l-101 38q-139 0 -231 -100l-62 -54l-8 7v8l116 155q27 54 170 108z" />
    <glyph glyph-name="exclamdown" unicode="&#xa1;" horiz-adv-x="672" 
d="M-521 -773v14q24 0 93 107q208 185 376 441l207 348q89 206 128 206q99 64 128 64h21v-14q-210 -366 -370 -597l-156 -192l-7 7h-7l-43 -64l7 -7v-7q-78 -105 -78 -143l7 -35q-97 -29 -192 -85h-14l-22 7v-7q0 -25 -78 -43zM-272 -602l21 -8l22 29h-7q-15 0 -15 -21h-14
v14l-43 -36h8zM-16 -268l50 71h-7l-50 -71h7zM382 542h-28q-29 15 -29 36q0 142 157 192h35q15 0 15 -21l7 -7h7v14l14 -14v-8h-14v-14h14v-7q-109 -171 -178 -171zM411 628v7h-7l-8 -29q15 0 15 22zM446 678v7q-21 0 -28 -57q28 11 28 50zM482 706l-7 7l21 21v8h-21
l-15 -15v-21h15l-15 -21v-15q17 0 22 36z" />
    <glyph glyph-name="cent" unicode="&#xa2;" horiz-adv-x="959" 
d="M721 700q80 -9 80 -35h-18v-18h18q0 -84 -168 -160l-9 9l17 53q0 80 -62 80q0 -19 -71 -35v9l-132 -71v-9h17q0 13 36 26v-8q-169 -163 -169 -266h-17v17h-9q0 -53 -18 -53q34 -186 151 -186h88q168 0 445 296q12 37 44 53l18 -18q-148 -194 -356 -340l-239 -44l-98 27
l-9 -9h-9q-159 67 -159 177v18q0 195 416 425q153 62 213 62zM703 673v-8h36v8h-36zM730 567h9l35 44v9q-32 -16 -44 -53zM1014 1221h15v15h7l8 -7h7l29 7v-15l-103 -140v8l8 7v7h-8l-66 -103l7 -29l-22 -15v15l-81 -111v-7l8 7h7v-7q-232 -325 -560 -891h-7l-8 7
q0 -66 -36 -81v15h-8l-51 -104q22 0 22 -14l-8 -8l-7 8h-22l-22 -15l-96 15v14l37 15l-8 8v7l303 457v-8l-30 -51h7l192 302v7h-7q0 -19 -59 -88v14l147 214l-7 7v8q81 145 117 169l8 -7q96 155 155 287h7v-15l-22 -51q74 118 96 118h7v15h-15l-37 -8l-7 8v7q29 22 103 22
v-15zM999 1207q0 -22 -44 -89v-7h8l59 96h-23zM977 1081v-7l-14 -15v8zM815 956v-7h8l59 95v8zM963 1059v-7l-15 -15v7zM948 1037v-7l-15 -15v7zM933 1015v-7l-15 -15v7zM896 956v-15q-53 -81 -66 -81v8zM624 602v-7l29 37v7zM454 440v-14l-44 -59v14q33 59 44 59zM410 367
v-8q-39 -72 -51 -73v14q31 58 51 67zM270 65l-59 -96v-7h8l58 95v8h-7zM174 -24l-14 -51q12 0 29 44l-7 7h-8z" />
    <glyph glyph-name="sterling" unicode="&#xa3;" horiz-adv-x="1166" 
d="M647 1423h106l42 -7l21 7v-7q154 -40 154 -155v-7q-5 -70 -42 -70q-62 0 -77 35l14 106q-37 70 -77 70h-35q-177 0 -338 -204q-63 -147 -63 -225l28 -393l-21 -105h14l197 -35q25 3 56 42h7v-21q-29 -92 -161 -92l-85 42l-42 15l-84 -162q-28 -63 -134 -169h7
q147 99 225 99v14q372 -127 506 -127l63 -7q36 0 141 106h7v-7q0 -60 -190 -190l-7 7h-7l-42 -14q-110 0 -330 119l-127 21h-21l-42 -7l-35 15l-225 -120h-14q-16 0 -21 35q239 228 239 415h-56l-50 -7v14q29 0 29 28l84 21v161q0 91 -77 260v7q0 211 182 380
q150 78 281 112zM436 390v-7l50 -7h28v7l-64 7h-14z" />
    <glyph glyph-name="currency" unicode="&#xa4;" 
 />
    <glyph glyph-name="yen" unicode="&#xa5;" horiz-adv-x="1262" 
d="M1338 1783q-243 -200 -304 -356l-356 -563q-28 -17 -163 -245v-7q198 25 237 52l8 -8l7 8h8q14 0 14 -37h15q-69 -82 -333 -82q-82 -151 -82 -200l126 -15h59q9 15 149 30h15v-7q-27 -82 -171 -82l-81 -7l-134 14v-7q-81 -230 -81 -541h-15l-74 296l89 260h-52l-67 -15
v22l104 60l44 -8l45 97l7 -8l8 22l-8 23q26 59 37 59l8 -8v15l-119 15l-37 -7h-22v15l118 59h23l51 -15q141 266 141 385v119q0 359 -141 437v15q49 51 149 104q111 -128 111 -356q0 -52 -89 -378v-7h7l349 556q49 145 281 244zM1116 1620h7l22 30v7q-15 -3 -29 -37z
M500 1501l8 -22h7v22h-15zM574 1353v-30h8v30h-8z" />
    <glyph glyph-name="brokenbar" unicode="&#xa6;" 
 />
    <glyph glyph-name="section" unicode="&#xa7;" 
 />
    <glyph glyph-name="dieresis" unicode="&#xa8;" horiz-adv-x="684" 
d="M169 1005h35q41 -31 41 -71q-15 -94 -82 -94h-12q-46 0 -59 71q25 94 77 94zM451 993h6q52 0 59 -76q0 -60 -88 -83h-24q-35 21 -35 59q32 100 82 100z" />
    <glyph glyph-name="copyright" unicode="&#xa9;" horiz-adv-x="1674" 
 />
    <glyph glyph-name="ordfeminine" unicode="&#xaa;" horiz-adv-x="648" 
 />
    <glyph glyph-name="guillemotleft" unicode="&#xab;" horiz-adv-x="1276" 
d="M567 745h30v-8q-225 -238 -370 -324h-15l38 37q-53 -25 -53 -37h15v-8q-28 -2 -45 -30v-8q142 -102 287 -309q75 -42 75 -91h-7l-98 15h-53q-91 122 -151 174q-11 36 -113 136q-86 51 -91 91l362 264q0 42 114 60zM900 737v-22q0 -15 -23 -15l-8 -23l8 -30
q-62 -94 -257 -295q272 -279 272 -370h-8v-7q0 -23 31 -23l-15 -15q-6 25 -136 53v15h-8l-8 -8h-7q-85 154 -249 302v16h15l-8 37h8q86 76 257 280q25 0 136 105zM522 692l-15 -23h7l15 23h-7zM439 617v-8l23 23h-8zM39 367l15 -15h7l-15 15h-7zM552 352v-7l23 -23
q-12 30 -23 30zM537 330l23 -23l-8 23h-15z" />
    <glyph glyph-name="logicalnot" unicode="&#xac;" 
 />
    <glyph glyph-name="registered" unicode="&#xae;" horiz-adv-x="1674" 
 />
    <glyph glyph-name="macron" unicode="&#xaf;" horiz-adv-x="670" 
 />
    <glyph glyph-name="degree" unicode="&#xb0;" horiz-adv-x="474" 
d="M305 1129q98 -57 87 -134l1 -34l-1 -5q-21 -148 -126 -187l-91 -15q-152 21 -121 238q90 159 213 142zM144 915l-7 -51q-7 -51 55 -71h5q93 14 117 188q9 61 -23 87l-19 8l1 5l5 4l1 5l-5 1q-91 13 -130 -176zM396 1041l-1 -12l3 -19l6 -1l2 12l-4 19zM408 946l-6 -42
l6 -1l6 42zM279 740h7l19 3l1 12l-6 1z" />
    <glyph glyph-name="plusminus" unicode="&#xb1;" 
 />
    <glyph glyph-name="uni00B2" unicode="&#xb2;" 
 />
    <glyph glyph-name="uni00B3" unicode="&#xb3;" 
 />
    <glyph glyph-name="acute" unicode="&#xb4;" horiz-adv-x="399" 
d="M262 982h6q21 0 38 -89v-6q0 -80 -108 -108l-6 6h-6l-64 -6v13h-63q6 17 82 44q87 91 121 146z" />
    <glyph glyph-name="mu" unicode="&#xb5;" horiz-adv-x="1180" 
 />
    <glyph glyph-name="paragraph" unicode="&#xb6;" horiz-adv-x="1024" 
 />
    <glyph glyph-name="periodcentered" unicode="&#xb7;" horiz-adv-x="508" 
 />
    <glyph glyph-name="periodcentered" unicode="&#x2219;" horiz-adv-x="508" 
 />
    <glyph glyph-name="cedilla" unicode="&#xb8;" horiz-adv-x="427" 
d="M206 -21h30q31 -11 31 -62v-10l-10 -10v-10q91 -51 91 -122q0 -89 -132 -102q-224 56 -224 102v20h20q51 -37 143 -61q71 20 71 92l-71 91q26 66 51 72z" />
    <glyph glyph-name="uni00B9" unicode="&#xb9;" 
 />
    <glyph glyph-name="ordmasculine" unicode="&#xba;" horiz-adv-x="718" 
 />
    <glyph glyph-name="guillemotright" unicode="&#xbb;" horiz-adv-x="1026" 
d="M407 734h8q36 -47 167 -63h8l8 23l142 -142l222 -88l8 -7v-8q-200 -193 -341 -389l-55 -55l-135 -8l-16 16q-11 -33 -39 -48h-8v8q216 293 444 444q-99 87 -135 87q0 -13 48 -32v-8h-16q-137 48 -310 254v16zM43 686h8q0 -22 158 -39q69 -154 262 -309v-16l-262 -294
q-27 0 -47 -23l-40 -8h-8v8h16v8h-8l-24 -8l8 -8v-8l-95 -32v24q47 73 333 317q-301 289 -301 388zM138 639v-8l24 -8v16h-24zM851 464v-7q0 -19 40 -24l8 8v8zM693 187l-32 -48v-8l40 56h-8zM154 36l-16 -23h8l24 7z" />
    <glyph glyph-name="onequarter" unicode="&#xbc;" horiz-adv-x="1708" 
 />
    <glyph glyph-name="onehalf" unicode="&#xbd;" horiz-adv-x="1964" 
 />
    <glyph glyph-name="threequarters" unicode="&#xbe;" horiz-adv-x="1708" 
 />
    <glyph glyph-name="questiondown" unicode="&#xbf;" horiz-adv-x="705" 
d="M-58 -760l-26 3q-248 78 -220 276l8 53q24 171 342 407q4 29 49 55q239 251 259 391l75 3q38 -14 37 -25l-8 -54q-25 -81 -360 -390q-211 -288 -226 -397l-7 -53q-31 -220 102 -239q240 -34 348 108q49 59 61 141l10 73q8 58 150 149l7 -1q17 -67 19 -153
q-28 -112 -149 -237q-222 -145 -471 -110zM-175 -676l1 7l-14 43l-7 1l-11 -33l6 -1l18 -16zM-191 -545l7 47l-7 1l-10 -26l4 -21zM466 552q-93 13 -84 73l3 27l8 6l-6 7l1 7q53 101 148 88q43 -36 35 -93q-34 -125 -105 -115zM466 600l10 19l2 13l-7 1l-10 -26l-1 -6z
M524 626l30 63l-4 21l-13 2l5 -7l-3 -20l-20 -52l-1 -6zM506 642l13 39l2 20l-6 1l-15 -53v-6z" />
    <glyph glyph-name="Agrave" unicode="&#xc0;" horiz-adv-x="2772" 
d="M2702 1620h20v-14q-61 0 -61 -34l-7 7h-7l-103 -55q-67 -5 -390 -322q-33 -15 -199 -233q-94 -128 -308 -376l48 6h123l110 -13q190 327 390 548q302 296 302 411h7l13 -21v-34h-13v-7l6 -27l-6 -21l-7 7h-7l-41 -75h13v-7q-280 -371 -280 -391q-206 -272 -206 -376
l-34 -35v-13q56 0 178 -48l144 -14h185q40 0 68 27l14 -13h7q94 0 192 48l6 -7v-7q-113 -69 -212 -69q-24 -48 -185 -48h-27q-217 0 -391 89h-6q-52 -39 -137 -287v-7h-14v34h-7l-89 -185h7q183 35 281 35q325 0 431 -247l21 -123q-16 -2 -62 -158q-20 0 -103 -116
q-205 -157 -493 -172q-261 0 -281 233l7 213q14 0 14 20q0 98 20 240h-6q-30 -21 -151 -55q-351 -179 -569 -322l7 -7l-445 -198q-210 -62 -322 -62v14h55v13h27q59 0 137 35l7 -7h7q240 52 1034 527q37 0 233 110q89 254 240 493l14 14v7q-160 34 -274 34
q-177 -181 -288 -247q-227 -171 -302 -171q-271 -158 -568 -158q-243 0 -397 281l6 7v7l-6 27l89 -157q128 -130 253 -130h34v13h76l61 14v-7q218 76 528 247q194 113 651 596l54 75l-7 7v14l28 7l-7 6v7q252 310 329 350q213 158 315 185h7l7 -7q173 75 212 75zM1202 1572
q282 0 363 -240l14 -75q0 -282 -411 -603q-141 -89 -172 -89q203 109 336 267q135 143 158 315v21q27 0 27 103l-21 82h14q0 62 -55 89q0 27 -34 27q41 -68 69 -150l-7 -41h-14v20q-33 247 -247 247h-48q-200 0 -411 -130l-6 6h-7l-69 -34v-7h7l62 35h7l-7 -7v-7h13v-14
q-51 -4 -102 -48l-7 7h-7q-27 -7 -123 -96l7 7h20q-73 -36 -226 -212v6l7 7v7h-14l206 206h-7q-266 -228 -349 -418q-103 -150 -103 -308h-14l-7 -117h14v-7l14 -89l-7 -27q-41 27 -48 219q0 459 671 897q281 151 514 151zM647 1339v-7l-27 -27h-7zM599 1298h7l-14 -14h-7z
M1476 1250h14v-27h-14v27zM1496 1113l-6 -20v-14h6l7 27v7h-7zM325 1045v-7l-14 -14v7zM2188 928l-20 -41v-7h7l20 41v7h-7zM168 908l-83 -158h14q0 25 75 151v7h-6zM2140 846l-7 -7v-14h7l7 21h-7zM2106 812l-14 -28v-7h7l14 28v7h-7zM1681 757l-20 -27h7l20 27h-7zM44 593
v-28h7v28h-7zM1901 380l-7 -20h7l6 7v13h-6zM1195 257q0 -14 -21 -14v-7h14q0 14 21 14v7h-14zM147 216l55 -55h-7l-48 48v7zM2017 72v-14h-7q-233 0 -233 -41q-123 -298 -123 -500q20 -181 150 -213l69 -6q135 20 254 41v7h-21q0 14 34 14q145 43 219 191q35 60 69 172h7
v96q-28 0 -28 68q-72 171 -260 171l-41 7v7h-89zM2394 -31v-7q41 -57 41 -75h7v7q0 34 -48 75zM1640 -72v-34h7l7 34h-14zM2476 -161v-7l7 -75h7v48l-7 34h-7zM2455 -181v-96h7v96h-7zM2448 -284v-28h7v28h-7zM2442 -318v-28h6v28h-6zM2435 -353l-14 -48v-7h7l14 48v7h-7z
M10 -647h82l34 -7v-7l-48 -7l-68 7v14zM2545 2038h7l100 -247l54 -60l-20 -34h26l-13 -13h-47q-45 0 -73 47l-7 6v7h-7l-6 -7h-7l-20 127z" />
    <glyph glyph-name="Aacute" unicode="&#xc1;" horiz-adv-x="2772" 
d="M2702 1620h20v-14q-61 0 -61 -34l-7 7h-7l-103 -55q-67 -5 -390 -322q-33 -15 -199 -233q-94 -128 -308 -376l48 6h123l110 -13q190 327 390 548q302 296 302 411h7l13 -21v-34h-13v-7l6 -27l-6 -21l-7 7h-7l-41 -75h13v-7q-280 -371 -280 -391q-206 -272 -206 -376
l-34 -35v-13q56 0 178 -48l144 -14h185q40 0 68 27l14 -13h7q94 0 192 48l6 -7v-7q-113 -69 -212 -69q-24 -48 -185 -48h-27q-217 0 -391 89h-6q-52 -39 -137 -287v-7h-14v34h-7l-89 -185h7q183 35 281 35q325 0 431 -247l21 -123q-16 -2 -62 -158q-20 0 -103 -116
q-205 -157 -493 -172q-261 0 -281 233l7 213q14 0 14 20q0 98 20 240h-6q-30 -21 -151 -55q-351 -179 -569 -322l7 -7l-445 -198q-210 -62 -322 -62v14h55v13h27q59 0 137 35l7 -7h7q240 52 1034 527q37 0 233 110q89 254 240 493l14 14v7q-160 34 -274 34
q-177 -181 -288 -247q-227 -171 -302 -171q-271 -158 -568 -158q-243 0 -397 281l6 7v7l-6 27l89 -157q128 -130 253 -130h34v13h76l61 14v-7q218 76 528 247q194 113 651 596l54 75l-7 7v14l28 7l-7 6v7q252 310 329 350q213 158 315 185h7l7 -7q173 75 212 75zM1202 1572
q282 0 363 -240l14 -75q0 -282 -411 -603q-141 -89 -172 -89q203 109 336 267q135 143 158 315v21q27 0 27 103l-21 82h14q0 62 -55 89q0 27 -34 27q41 -68 69 -150l-7 -41h-14v20q-33 247 -247 247h-48q-200 0 -411 -130l-6 6h-7l-69 -34v-7h7l62 35h7l-7 -7v-7h13v-14
q-51 -4 -102 -48l-7 7h-7q-27 -7 -123 -96l7 7h20q-73 -36 -226 -212v6l7 7v7h-14l206 206h-7q-266 -228 -349 -418q-103 -150 -103 -308h-14l-7 -117h14v-7l14 -89l-7 -27q-41 27 -48 219q0 459 671 897q281 151 514 151zM647 1339v-7l-27 -27h-7zM599 1298h7l-14 -14h-7z
M1476 1250h14v-27h-14v27zM1496 1113l-6 -20v-14h6l7 27v7h-7zM325 1045v-7l-14 -14v7zM2188 928l-20 -41v-7h7l20 41v7h-7zM168 908l-83 -158h14q0 25 75 151v7h-6zM2140 846l-7 -7v-14h7l7 21h-7zM2106 812l-14 -28v-7h7l14 28v7h-7zM1681 757l-20 -27h7l20 27h-7zM44 593
v-28h7v28h-7zM1901 380l-7 -20h7l6 7v13h-6zM1195 257q0 -14 -21 -14v-7h14q0 14 21 14v7h-14zM147 216l55 -55h-7l-48 48v7zM2017 72v-14h-7q-233 0 -233 -41q-123 -298 -123 -500q20 -181 150 -213l69 -6q135 20 254 41v7h-21q0 14 34 14q145 43 219 191q35 60 69 172h7
v96q-28 0 -28 68q-72 171 -260 171l-41 7v7h-89zM2394 -31v-7q41 -57 41 -75h7v7q0 34 -48 75zM1640 -72v-34h7l7 34h-14zM2476 -161v-7l7 -75h7v48l-7 34h-7zM2455 -181v-96h7v96h-7zM2448 -284v-28h7v28h-7zM2442 -318v-28h6v28h-6zM2435 -353l-14 -48v-7h7l14 48v7h-7z
M10 -647h82l34 -7v-7l-48 -7l-68 7v14zM2745 1926h6q21 0 38 -89v-6q0 -80 -108 -108l-6 6h-6l-64 -6v13h-63q6 17 82 44q87 91 121 146z" />
    <glyph glyph-name="Acircumflex" unicode="&#xc2;" horiz-adv-x="2772" 
d="M2702 1620h20v-14q-61 0 -61 -34l-7 7h-7l-103 -55q-67 -5 -390 -322q-33 -15 -199 -233q-94 -128 -308 -376l48 6h123l110 -13q190 327 390 548q302 296 302 411h7l13 -21v-34h-13v-7l6 -27l-6 -21l-7 7h-7l-41 -75h13v-7q-280 -371 -280 -391q-206 -272 -206 -376
l-34 -35v-13q56 0 178 -48l144 -14h185q40 0 68 27l14 -13h7q94 0 192 48l6 -7v-7q-113 -69 -212 -69q-24 -48 -185 -48h-27q-217 0 -391 89h-6q-52 -39 -137 -287v-7h-14v34h-7l-89 -185h7q183 35 281 35q325 0 431 -247l21 -123q-16 -2 -62 -158q-20 0 -103 -116
q-205 -157 -493 -172q-261 0 -281 233l7 213q14 0 14 20q0 98 20 240h-6q-30 -21 -151 -55q-351 -179 -569 -322l7 -7l-445 -198q-210 -62 -322 -62v14h55v13h27q59 0 137 35l7 -7h7q240 52 1034 527q37 0 233 110q89 254 240 493l14 14v7q-160 34 -274 34
q-177 -181 -288 -247q-227 -171 -302 -171q-271 -158 -568 -158q-243 0 -397 281l6 7v7l-6 27l89 -157q128 -130 253 -130h34v13h76l61 14v-7q218 76 528 247q194 113 651 596l54 75l-7 7v14l28 7l-7 6v7q252 310 329 350q213 158 315 185h7l7 -7q173 75 212 75zM1202 1572
q282 0 363 -240l14 -75q0 -282 -411 -603q-141 -89 -172 -89q203 109 336 267q135 143 158 315v21q27 0 27 103l-21 82h14q0 62 -55 89q0 27 -34 27q41 -68 69 -150l-7 -41h-14v20q-33 247 -247 247h-48q-200 0 -411 -130l-6 6h-7l-69 -34v-7h7l62 35h7l-7 -7v-7h13v-14
q-51 -4 -102 -48l-7 7h-7q-27 -7 -123 -96l7 7h20q-73 -36 -226 -212v6l7 7v7h-14l206 206h-7q-266 -228 -349 -418q-103 -150 -103 -308h-14l-7 -117h14v-7l14 -89l-7 -27q-41 27 -48 219q0 459 671 897q281 151 514 151zM647 1339v-7l-27 -27h-7zM599 1298h7l-14 -14h-7z
M1476 1250h14v-27h-14v27zM1496 1113l-6 -20v-14h6l7 27v7h-7zM325 1045v-7l-14 -14v7zM2188 928l-20 -41v-7h7l20 41v7h-7zM168 908l-83 -158h14q0 25 75 151v7h-6zM2140 846l-7 -7v-14h7l7 21h-7zM2106 812l-14 -28v-7h7l14 28v7h-7zM1681 757l-20 -27h7l20 27h-7zM44 593
v-28h7v28h-7zM1901 380l-7 -20h7l6 7v13h-6zM1195 257q0 -14 -21 -14v-7h14q0 14 21 14v7h-14zM147 216l55 -55h-7l-48 48v7zM2017 72v-14h-7q-233 0 -233 -41q-123 -298 -123 -500q20 -181 150 -213l69 -6q135 20 254 41v7h-21q0 14 34 14q145 43 219 191q35 60 69 172h7
v96q-28 0 -28 68q-72 171 -260 171l-41 7v7h-89zM2394 -31v-7q41 -57 41 -75h7v7q0 34 -48 75zM1640 -72v-34h7l7 34h-14zM2476 -161v-7l7 -75h7v48l-7 34h-7zM2455 -181v-96h7v96h-7zM2448 -284v-28h7v28h-7zM2442 -318v-28h6v28h-6zM2435 -353l-14 -48v-7h7l14 48v7h-7z
M10 -647h82l34 -7v-7l-48 -7l-68 7v14zM2764 2003q46 0 46 -46q33 -193 119 -297l33 -33v-13l-125 13l-27 -6q-32 0 -46 256q-68 -79 -158 -131l-6 6l-33 -6h-20v6q217 170 217 251z" />
    <glyph glyph-name="Atilde" unicode="&#xc3;" horiz-adv-x="2772" 
d="M2702 1620h20v-14q-61 0 -61 -34l-7 7h-7l-103 -55q-67 -5 -390 -322q-33 -15 -199 -233q-94 -128 -308 -376l48 6h123l110 -13q190 327 390 548q302 296 302 411h7l13 -21v-34h-13v-7l6 -27l-6 -21l-7 7h-7l-41 -75h13v-7q-280 -371 -280 -391q-206 -272 -206 -376
l-34 -35v-13q56 0 178 -48l144 -14h185q40 0 68 27l14 -13h7q94 0 192 48l6 -7v-7q-113 -69 -212 -69q-24 -48 -185 -48h-27q-217 0 -391 89h-6q-52 -39 -137 -287v-7h-14v34h-7l-89 -185h7q183 35 281 35q325 0 431 -247l21 -123q-16 -2 -62 -158q-20 0 -103 -116
q-205 -157 -493 -172q-261 0 -281 233l7 213q14 0 14 20q0 98 20 240h-6q-30 -21 -151 -55q-351 -179 -569 -322l7 -7l-445 -198q-210 -62 -322 -62v14h55v13h27q59 0 137 35l7 -7h7q240 52 1034 527q37 0 233 110q89 254 240 493l14 14v7q-160 34 -274 34
q-177 -181 -288 -247q-227 -171 -302 -171q-271 -158 -568 -158q-243 0 -397 281l6 7v7l-6 27l89 -157q128 -130 253 -130h34v13h76l61 14v-7q218 76 528 247q194 113 651 596l54 75l-7 7v14l28 7l-7 6v7q252 310 329 350q213 158 315 185h7l7 -7q173 75 212 75zM1202 1572
q282 0 363 -240l14 -75q0 -282 -411 -603q-141 -89 -172 -89q203 109 336 267q135 143 158 315v21q27 0 27 103l-21 82h14q0 62 -55 89q0 27 -34 27q41 -68 69 -150l-7 -41h-14v20q-33 247 -247 247h-48q-200 0 -411 -130l-6 6h-7l-69 -34v-7h7l62 35h7l-7 -7v-7h13v-14
q-51 -4 -102 -48l-7 7h-7q-27 -7 -123 -96l7 7h20q-73 -36 -226 -212v6l7 7v7h-14l206 206h-7q-266 -228 -349 -418q-103 -150 -103 -308h-14l-7 -117h14v-7l14 -89l-7 -27q-41 27 -48 219q0 459 671 897q281 151 514 151zM647 1339v-7l-27 -27h-7zM599 1298h7l-14 -14h-7z
M1476 1250h14v-27h-14v27zM1496 1113l-6 -20v-14h6l7 27v7h-7zM325 1045v-7l-14 -14v7zM2188 928l-20 -41v-7h7l20 41v7h-7zM168 908l-83 -158h14q0 25 75 151v7h-6zM2140 846l-7 -7v-14h7l7 21h-7zM2106 812l-14 -28v-7h7l14 28v7h-7zM1681 757l-20 -27h7l20 27h-7zM44 593
v-28h7v28h-7zM1901 380l-7 -20h7l6 7v13h-6zM1195 257q0 -14 -21 -14v-7h14q0 14 21 14v7h-14zM147 216l55 -55h-7l-48 48v7zM2017 72v-14h-7q-233 0 -233 -41q-123 -298 -123 -500q20 -181 150 -213l69 -6q135 20 254 41v7h-21q0 14 34 14q145 43 219 191q35 60 69 172h7
v96q-28 0 -28 68q-72 171 -260 171l-41 7v7h-89zM2394 -31v-7q41 -57 41 -75h7v7q0 34 -48 75zM1640 -72v-34h7l7 34h-14zM2476 -161v-7l7 -75h7v48l-7 34h-7zM2455 -181v-96h7v96h-7zM2448 -284v-28h7v28h-7zM2442 -318v-28h6v28h-6zM2435 -353l-14 -48v-7h7l14 48v7h-7z
M10 -647h82l34 -7v-7l-48 -7l-68 7v14zM2421 1998h7q62 0 172 -135q88 -67 172 -67h7q56 0 232 172l7 -8v-7q-37 -111 -202 -254q-29 -15 -82 -15h-30q-40 0 -179 149l-97 38q-134 0 -224 -97l-60 -53l-7 8v7l112 150q26 52 164 104z" />
    <glyph glyph-name="Adieresis" unicode="&#xc4;" horiz-adv-x="2772" 
d="M2702 1620h20v-14q-61 0 -61 -34l-7 7h-7l-103 -55q-67 -5 -390 -322q-33 -15 -199 -233q-94 -128 -308 -376l48 6h123l110 -13q190 327 390 548q302 296 302 411h7l13 -21v-34h-13v-7l6 -27l-6 -21l-7 7h-7l-41 -75h13v-7q-280 -371 -280 -391q-206 -272 -206 -376
l-34 -35v-13q56 0 178 -48l144 -14h185q40 0 68 27l14 -13h7q94 0 192 48l6 -7v-7q-113 -69 -212 -69q-24 -48 -185 -48h-27q-217 0 -391 89h-6q-52 -39 -137 -287v-7h-14v34h-7l-89 -185h7q183 35 281 35q325 0 431 -247l21 -123q-16 -2 -62 -158q-20 0 -103 -116
q-205 -157 -493 -172q-261 0 -281 233l7 213q14 0 14 20q0 98 20 240h-6q-30 -21 -151 -55q-351 -179 -569 -322l7 -7l-445 -198q-210 -62 -322 -62v14h55v13h27q59 0 137 35l7 -7h7q240 52 1034 527q37 0 233 110q89 254 240 493l14 14v7q-160 34 -274 34
q-177 -181 -288 -247q-227 -171 -302 -171q-271 -158 -568 -158q-243 0 -397 281l6 7v7l-6 27l89 -157q128 -130 253 -130h34v13h76l61 14v-7q218 76 528 247q194 113 651 596l54 75l-7 7v14l28 7l-7 6v7q252 310 329 350q213 158 315 185h7l7 -7q173 75 212 75zM1202 1572
q282 0 363 -240l14 -75q0 -282 -411 -603q-141 -89 -172 -89q203 109 336 267q135 143 158 315v21q27 0 27 103l-21 82h14q0 62 -55 89q0 27 -34 27q41 -68 69 -150l-7 -41h-14v20q-33 247 -247 247h-48q-200 0 -411 -130l-6 6h-7l-69 -34v-7h7l62 35h7l-7 -7v-7h13v-14
q-51 -4 -102 -48l-7 7h-7q-27 -7 -123 -96l7 7h20q-73 -36 -226 -212v6l7 7v7h-14l206 206h-7q-266 -228 -349 -418q-103 -150 -103 -308h-14l-7 -117h14v-7l14 -89l-7 -27q-41 27 -48 219q0 459 671 897q281 151 514 151zM647 1339v-7l-27 -27h-7zM599 1298h7l-14 -14h-7z
M1476 1250h14v-27h-14v27zM1496 1113l-6 -20v-14h6l7 27v7h-7zM325 1045v-7l-14 -14v7zM2188 928l-20 -41v-7h7l20 41v7h-7zM168 908l-83 -158h14q0 25 75 151v7h-6zM2140 846l-7 -7v-14h7l7 21h-7zM2106 812l-14 -28v-7h7l14 28v7h-7zM1681 757l-20 -27h7l20 27h-7zM44 593
v-28h7v28h-7zM1901 380l-7 -20h7l6 7v13h-6zM1195 257q0 -14 -21 -14v-7h14q0 14 21 14v7h-14zM147 216l55 -55h-7l-48 48v7zM2017 72v-14h-7q-233 0 -233 -41q-123 -298 -123 -500q20 -181 150 -213l69 -6q135 20 254 41v7h-21q0 14 34 14q145 43 219 191q35 60 69 172h7
v96q-28 0 -28 68q-72 171 -260 171l-41 7v7h-89zM2394 -31v-7q41 -57 41 -75h7v7q0 34 -48 75zM1640 -72v-34h7l7 34h-14zM2476 -161v-7l7 -75h7v48l-7 34h-7zM2455 -181v-96h7v96h-7zM2448 -284v-28h7v28h-7zM2442 -318v-28h6v28h-6zM2435 -353l-14 -48v-7h7l14 48v7h-7z
M10 -647h82l34 -7v-7l-48 -7l-68 7v14zM2524 1924h35q41 -31 41 -71q-15 -94 -82 -94h-12q-46 0 -59 71q25 94 77 94zM2806 1912h6q52 0 59 -76q0 -60 -88 -83h-24q-35 21 -35 59q32 100 82 100z" />
    <glyph glyph-name="Aring" unicode="&#xc5;" horiz-adv-x="2772" 
d="M2702 1620h20v-14q-61 0 -61 -34l-7 7h-7l-103 -55q-67 -5 -390 -322q-33 -15 -199 -233q-94 -128 -308 -376l48 6h123l110 -13q190 327 390 548q302 296 302 411h7l13 -21v-34h-13v-7l6 -27l-6 -21l-7 7h-7l-41 -75h13v-7q-280 -371 -280 -391q-206 -272 -206 -376
l-34 -35v-13q56 0 178 -48l144 -14h185q40 0 68 27l14 -13h7q94 0 192 48l6 -7v-7q-113 -69 -212 -69q-24 -48 -185 -48h-27q-217 0 -391 89h-6q-52 -39 -137 -287v-7h-14v34h-7l-89 -185h7q183 35 281 35q325 0 431 -247l21 -123q-16 -2 -62 -158q-20 0 -103 -116
q-205 -157 -493 -172q-261 0 -281 233l7 213q14 0 14 20q0 98 20 240h-6q-30 -21 -151 -55q-351 -179 -569 -322l7 -7l-445 -198q-210 -62 -322 -62v14h55v13h27q59 0 137 35l7 -7h7q240 52 1034 527q37 0 233 110q89 254 240 493l14 14v7q-160 34 -274 34
q-177 -181 -288 -247q-227 -171 -302 -171q-271 -158 -568 -158q-243 0 -397 281l6 7v7l-6 27l89 -157q128 -130 253 -130h34v13h76l61 14v-7q218 76 528 247q194 113 651 596l54 75l-7 7v14l28 7l-7 6v7q252 310 329 350q213 158 315 185h7l7 -7q173 75 212 75zM1202 1572
q282 0 363 -240l14 -75q0 -282 -411 -603q-141 -89 -172 -89q203 109 336 267q135 143 158 315v21q27 0 27 103l-21 82h14q0 62 -55 89q0 27 -34 27q41 -68 69 -150l-7 -41h-14v20q-33 247 -247 247h-48q-200 0 -411 -130l-6 6h-7l-69 -34v-7h7l62 35h7l-7 -7v-7h13v-14
q-51 -4 -102 -48l-7 7h-7q-27 -7 -123 -96l7 7h20q-73 -36 -226 -212v6l7 7v7h-14l206 206h-7q-266 -228 -349 -418q-103 -150 -103 -308h-14l-7 -117h14v-7l14 -89l-7 -27q-41 27 -48 219q0 459 671 897q281 151 514 151zM647 1339v-7l-27 -27h-7zM599 1298h7l-14 -14h-7z
M1476 1250h14v-27h-14v27zM1496 1113l-6 -20v-14h6l7 27v7h-7zM325 1045v-7l-14 -14v7zM2188 928l-20 -41v-7h7l20 41v7h-7zM168 908l-83 -158h14q0 25 75 151v7h-6zM2140 846l-7 -7v-14h7l7 21h-7zM2106 812l-14 -28v-7h7l14 28v7h-7zM1681 757l-20 -27h7l20 27h-7zM44 593
v-28h7v28h-7zM1901 380l-7 -20h7l6 7v13h-6zM1195 257q0 -14 -21 -14v-7h14q0 14 21 14v7h-14zM147 216l55 -55h-7l-48 48v7zM2017 72v-14h-7q-233 0 -233 -41q-123 -298 -123 -500q20 -181 150 -213l69 -6q135 20 254 41v7h-21q0 14 34 14q145 43 219 191q35 60 69 172h7
v96q-28 0 -28 68q-72 171 -260 171l-41 7v7h-89zM2394 -31v-7q41 -57 41 -75h7v7q0 34 -48 75zM1640 -72v-34h7l7 34h-14zM2476 -161v-7l7 -75h7v48l-7 34h-7zM2455 -181v-96h7v96h-7zM2448 -284v-28h7v28h-7zM2442 -318v-28h6v28h-6zM2435 -353l-14 -48v-7h7l14 48v7h-7z
M10 -647h82l34 -7v-7l-48 -7l-68 7v14zM2800 1986q98 -57 87 -134l1 -34l-1 -5q-21 -148 -126 -187l-91 -15q-152 21 -121 238q90 159 213 142zM2639 1772l-7 -51q-7 -51 55 -71h5q93 14 117 188q9 61 -23 87l-19 8l1 5l5 4l1 5l-5 1q-91 13 -130 -176zM2891 1898l-1 -12
l3 -19l6 -1l2 12l-4 19zM2903 1803l-6 -42l6 -1l6 42zM2774 1597h7l19 3l1 12l-6 1z" />
    <glyph glyph-name="AE" unicode="&#xc6;" horiz-adv-x="4155" 
d="M2497 1620h20v-14q-61 0 -61 -34l-7 7h-7l-103 -55q-67 -5 -390 -322q-33 -15 -199 -233q-94 -128 -308 -376l48 6h123l110 -13q190 327 390 548q302 296 302 411h7l13 -21v-34h-13v-7l6 -27l-6 -21l-7 7h-7l-41 -75h13v-7q-280 -371 -280 -391q-206 -272 -206 -376
l-34 -35v-13q56 0 178 -48l144 -14h185q40 0 68 27l14 -13h7q94 0 192 48l6 -7v-7q-113 -69 -212 -69q-24 -48 -185 -48h-27q-217 0 -391 89h-6q-52 -39 -137 -287v-7h-14v34h-7l-89 -185h7q183 35 281 35q325 0 431 -247l21 -123q-16 -2 -62 -158q-20 0 -103 -116
q-205 -157 -493 -172q-261 0 -281 233l7 213q14 0 14 20q0 98 20 240h-6q-30 -21 -151 -55q-351 -179 -569 -322l7 -7l-445 -198q-210 -62 -322 -62v14h55v13h27q59 0 137 35l7 -7h7q240 52 1034 527q37 0 233 110q89 254 240 493l14 14v7q-160 34 -274 34
q-177 -181 -288 -247q-227 -171 -302 -171q-271 -158 -568 -158q-243 0 -397 281l6 7v7l-6 27l89 -157q128 -130 253 -130h34v13h76l61 14v-7q218 76 528 247q194 113 651 596l54 75l-7 7v14l28 7l-7 6v7q252 310 329 350q213 158 315 185h7l7 -7q173 75 212 75zM997 1572
q282 0 363 -240l14 -75q0 -282 -411 -603q-141 -89 -172 -89q203 109 336 267q135 143 158 315v21q27 0 27 103l-21 82h14q0 62 -55 89q0 27 -34 27q41 -68 69 -150l-7 -41h-14v20q-33 247 -247 247h-48q-200 0 -411 -130l-6 6h-7l-69 -34v-7h7l62 35h7l-7 -7v-7h13v-14
q-51 -4 -102 -48l-7 7h-7q-27 -7 -123 -96l7 7h20q-73 -36 -226 -212v6l7 7v7h-14l206 206h-7q-266 -228 -349 -418q-103 -150 -103 -308h-14l-7 -117h14v-7l14 -89l-7 -27q-41 27 -48 219q0 459 671 897q281 151 514 151zM442 1339v-7l-27 -27h-7zM394 1298h7l-14 -14h-7z
M1271 1250h14v-27h-14v27zM1291 1113l-6 -20v-14h6l7 27v7h-7zM120 1045v-7l-14 -14v7zM1983 928l-20 -41v-7h7l20 41v7h-7zM-37 908l-83 -158h14q0 25 75 151v7h-6zM1935 846l-7 -7v-14h7l7 21h-7zM1901 812l-14 -28v-7h7l14 28v7h-7zM1476 757l-20 -27h7l20 27h-7z
M-161 593v-28h7v28h-7zM1696 380l-7 -20h7l6 7v13h-6zM990 257q0 -14 -21 -14v-7h14q0 14 21 14v7h-14zM-58 216l55 -55h-7l-48 48v7zM1812 72v-14h-7q-233 0 -233 -41q-123 -298 -123 -500q20 -181 150 -213l69 -6q135 20 254 41v7h-21q0 14 34 14q145 43 219 191
q35 60 69 172h7v96q-28 0 -28 68q-72 171 -260 171l-41 7v7h-89zM2189 -31v-7q41 -57 41 -75h7v7q0 34 -48 75zM1435 -72v-34h7l7 34h-14zM2271 -161v-7l7 -75h7v48l-7 34h-7zM2250 -181v-96h7v96h-7zM2243 -284v-28h7v28h-7zM2237 -318v-28h6v28h-6zM2230 -353l-14 -48v-7
h7l14 48v7h-7zM-195 -647h82l34 -7v-7l-48 -7l-68 7v14zM3575 1750v-7q-4 -71 -49 -181h7q59 -39 140 -63q78 103 322 160l139 21q231 -38 231 -167v-14h-7q-42 -59 -140 -98l-42 -7h-49q-129 0 -335 56l-14 -77q11 -84 35 -84l7 7q24 -77 105 -77l35 -7v-14l-147 21l-7 7
l-21 7v-7q0 -14 -21 -14q-357 -75 -503 -230q-42 -44 -42 -63l-21 14q-131 -110 -195 -280q-5 -55 -21 -55l14 -28l-21 -91q0 -269 132 -342q110 -84 210 -84l63 7v-14h-21v-7h14q79 7 98 21l21 -7q314 81 501 207l150 136l18 -7q-108 -133 -257 -231v-7h14q0 -21 -28 -21
l-7 7h-14v-7h14q0 -21 -196 -98l-161 -28v14h-20l7 -7v-14h-14v14l-140 -35l-35 -7l-161 28h-7q0 21 -42 21h-7v-7h14v-14h-7q-123 34 -216 119v7h7l7 -7h7v7l-42 21v7l7 7v6q-48 14 -84 84q-30 39 -63 189h14l7 -49h7q0 340 266 538l90 91v7l-63 35q-128 -104 -405 -259
l-104 -70l-21 7q-404 -247 -678 -475q-405 -361 -405 -566q0 -170 202 -216l126 -14h70v-14l-140 -7h-14l-7 7l-42 -14l-139 35h-21v7l7 7v7l-98 49v7l7 -7h7v7q-28 31 -28 126h-7v-28h-14v7q0 224 489 656q272 196 719 475h-6q-233 -77 -413 -77h-56q-106 0 -125 91v14
q0 161 433 321l7 -7q97 21 279 35q201 0 350 -76q331 245 426 433l28 49q0 12 -91 90l-7 84q71 125 188 7zM3422 1673q35 -65 70 -76q71 147 3 161.5t-73 -85.5zM3806 1471v-14l91 -21l7 7h7l84 -14h27v-14h77q182 19 182 91l7 21q-16 97 -119 97l-56 7v14h35v7h-42
q-230 -43 -230 -104q-37 -25 -70 -77zM3813 1562h7l49 28v7h-7q-45 -19 -49 -35zM3722 1492v-7h7l70 70h-7q-63 -45 -70 -63zM3520 1548q0 -49 -154 -252q-62 -40 -147 -133l-84 -41l7 -7v-7l-63 -42v-7l56 -35h7q284 178 580 216q-77 66 -77 98h14v14l-7 -7h-7l-7 7v84
l28 49zM3680 1478l-21 -84l7 -21h7l35 98l-21 -14h-7l7 7v14h-7zM3743 1415l-7 -21l7 -49h7v70h-7zM3373 1345l-56 -63h7l56 63h-7zM3177 1163q41 19 98 84h-7zM3736 1226v-7h28v7h-28zM3429 1135v-7h7l56 21v7h-7zM2053 919l-7 7h-7l-56 -77v-7h7q5 35 21 35h7v-7l-21 -56
v-42q26 -49 111 -49h21q445 0 888 343v7q-115 69 -287 69h-63q-332 0 -517 -146q-23 0 -97 -77zM3254 1073q0 -14 -21 -14v-7h14q0 14 21 14v7h-14zM3003 877h7l132 119h-7q-88 -65 -132 -119zM3184 975h7l14 14h-7zM3058 856v-7l119 112v7q-53 0 -119 -112zM3003 856
l-91 -91l7 -7v-14q-91 -188 -91 -335v-21l7 -35h7l-7 35v7q1 70 14 70l-7 21q58 177 147 321h-7l-14 -14v7l42 56h-7zM1976 835v-49h7v49h-7zM3031 765l-35 -84v-7h7l35 84v7h-7zM2884 723l-49 -111v-7h7l49 111v7h-7zM2891 346v-28h7v28h-7zM2814 290v-14q10 -29 35 -42v7
q-24 49 -35 49zM4008 220v-7l-13 -14h-7zM3981 199h7l-21 -21h-7zM1668 137l-14 -21h7l14 21h-7zM3121 81v-7l21 -7h7v7l-21 7h-7zM3247 4v-7l84 -7h21l35 7v7h-140zM1459 -122l-14 -28h14l7 21v7h-7zM1403 -394v-28q23 -49 56 -49l7 7v7l-35 35v-7l7 -21h-7q-21 4 -21 56
h-7zM1857 -527h21v-14h-21v14z" />
    <glyph glyph-name="Ccedilla" unicode="&#xc7;" horiz-adv-x="1447" 
d="M1389 1532l102 -32l32 7h12l83 -77l-7 -6q23 -57 39 -57v-19q0 -130 -242 -146l-146 -6q-152 0 -514 50q-242 -207 -387 -450q-63 -163 -63 -292v-152h12q0 22 210 234l184 115q212 82 304 82h58q195 0 266 -171l13 -57v-51q0 -113 -76 -241q-42 -97 -191 -191
q-256 -133 -552 -133l-95 19h-6v-6q38 -7 38 -19h-7l-70 6v13h13v6q-67 0 -158 133q-13 0 -13 -19q0 -14 76 -82h-6l-77 63h-6l-44 -203v-76q0 -110 108 -222l-7 -7v-6q20 -82 260 -82h20q145 0 336 63q0 -34 -298 -76l-77 -6q-346 0 -406 304l-6 70q0 127 76 324
q-70 190 -70 330v63q3 129 102 349q159 248 387 394q-147 44 -413 44v-12h-19l-31 6q-159 -22 -318 -95q-412 -213 -520 -514q-32 -140 -32 -216q0 -171 114 -254l51 -6q244 0 489 253q82 112 82 172v32q0 108 -127 139h-6v13h6q159 -35 159 -178q0 -74 -57 -152
q-13 0 -13 -32q-277 -279 -539 -279q-44 0 -114 38l-7 -6q-95 99 -95 209v6q0 519 704 832q127 38 337 70q117 0 381 -51q335 208 514 222l95 13h19l25 -7zM780 1259q325 -44 476 -44h70q229 0 260 133l6 19q0 133 -241 133q-246 0 -571 -235v-6zM431 1107v-7l13 13v6z
M386 986h13q64 52 76 108q-81 -78 -89 -108zM310 288v-13q0 -34 89 -152l-6 -6v-7l70 -50q101 -40 101 -51h45l177 12l26 -6q63 0 355 152l32 39v6h-6q0 -12 -70 -64h-7v7q140 127 140 171l6 26l7 6h6v-13h6l7 19v7h-7v-13h-6v13q32 96 32 139v32h12v-13h7v13l-26 95l-6 -6
h-6q0 112 -254 133h-6q-228 0 -508 -216q0 -21 -76 -76q-75 -81 -134 -184zM234 643l-6 -19v-6h6l7 19v6h-7zM-750 624l-6 -44v-6h6l7 25v25h-7zM1300 586h13v-19h-13v19zM-699 282v-7l19 -12v6zM164 212v-13l19 -51h7v19l-19 45h-7zM2227 123h19q298 0 394 -241l6 -57v-19
h-13q-32 158 -89 158q-80 134 -317 134h-32q-375 0 -730 -223q158 147 515 223q99 25 247 25zM355 2v-6l57 -19q0 17 -51 25h-6zM488 2v-6l70 -13h19v7l-76 12h-13zM748 -4v-6h26v6h-26zM590 -17v-6h38l44 6v7h-25zM704 -10v-7h38v7h-38zM342 -36h13l12 -12h-12zM221 -429
v-13l45 -38v6q-22 45 -32 45l-6 -6zM279 -455h6q53 -38 70 -38v-12q-70 27 -76 50zM907 -467h13l-13 -13h-13zM635 -105h30q31 -11 31 -62v-10l-10 -10v-10q91 -51 91 -122q0 -89 -132 -102q-224 56 -224 102v20h20q51 -37 143 -61q71 20 71 92l-71 91q26 66 51 72z" />
    <glyph glyph-name="Egrave" unicode="&#xc8;" horiz-adv-x="1450" 
d="M870 1750v-7q-4 -71 -49 -181h7q59 -39 140 -63q78 103 322 160l139 21q231 -38 231 -167v-14h-7q-42 -59 -140 -98l-42 -7h-49q-129 0 -335 56l-14 -77q11 -84 35 -84l7 7q24 -77 105 -77l35 -7v-14l-147 21l-7 7l-21 7v-7q0 -14 -21 -14q-357 -75 -503 -230
q-42 -44 -42 -63l-21 14q-131 -110 -195 -280q-5 -55 -21 -55l14 -28l-21 -91q0 -269 132 -342q110 -84 210 -84l63 7v-14h-21v-7h14q79 7 98 21l21 -7q314 81 501 207l150 136l18 -7q-108 -133 -257 -231v-7h14q0 -21 -28 -21l-7 7h-14v-7h14q0 -21 -196 -98l-161 -28v14
h-20l7 -7v-14h-14v14l-140 -35l-35 -7l-161 28h-7q0 21 -42 21h-7v-7h14v-14h-7q-123 34 -216 119v7h7l7 -7h7v7l-42 21v7l7 7v6q-48 14 -84 84q-30 39 -63 189h14l7 -49h7q0 340 266 538l90 91v7l-63 35q-128 -104 -405 -259l-104 -70l-21 7q-404 -247 -678 -475
q-405 -361 -405 -566q0 -170 202 -216l126 -14h70v-14l-140 -7h-14l-7 7l-42 -14l-139 35h-21v7l7 7v7l-98 49v7l7 -7h7v7q-28 31 -28 126h-7v-28h-14v7q0 224 489 656q272 196 719 475h-6q-233 -77 -413 -77h-56q-106 0 -125 91v14q0 161 433 321l7 -7q97 21 279 35
q201 0 350 -76q331 245 426 433l28 49q0 12 -91 90l-7 84q71 125 188 7zM717 1673q35 -65 70 -76q71 147 3 161.5t-73 -85.5zM1101 1471v-14l91 -21l7 7h7l84 -14h27v-14h77q182 19 182 91l7 21q-16 97 -119 97l-56 7v14h35v7h-42q-230 -43 -230 -104q-37 -25 -70 -77z
M1108 1562h7l49 28v7h-7q-45 -19 -49 -35zM1017 1492v-7h7l70 70h-7q-63 -45 -70 -63zM815 1548q0 -49 -154 -252q-62 -40 -147 -133l-84 -41l7 -7v-7l-63 -42v-7l56 -35h7q284 178 580 216q-77 66 -77 98h14v14l-7 -7h-7l-7 7v84l28 49zM975 1478l-21 -84l7 -21h7l35 98
l-21 -14h-7l7 7v14h-7zM1038 1415l-7 -21l7 -49h7v70h-7zM668 1345l-56 -63h7l56 63h-7zM472 1163q41 19 98 84h-7zM1031 1226v-7h28v7h-28zM724 1135v-7h7l56 21v7h-7zM-652 919l-7 7h-7l-56 -77v-7h7q5 35 21 35h7v-7l-21 -56v-42q26 -49 111 -49h21q445 0 888 343v7
q-115 69 -287 69h-63q-332 0 -517 -146q-23 0 -97 -77zM549 1073q0 -14 -21 -14v-7h14q0 14 21 14v7h-14zM298 877h7l132 119h-7q-88 -65 -132 -119zM479 975h7l14 14h-7zM353 856v-7l119 112v7q-53 0 -119 -112zM298 856l-91 -91l7 -7v-14q-91 -188 -91 -335v-21l7 -35h7
l-7 35v7q1 70 14 70l-7 21q58 177 147 321h-7l-14 -14v7l42 56h-7zM-729 835v-49h7v49h-7zM326 765l-35 -84v-7h7l35 84v7h-7zM179 723l-49 -111v-7h7l49 111v7h-7zM186 346v-28h7v28h-7zM109 290v-14q10 -29 35 -42v7q-24 49 -35 49zM1303 220v-7l-13 -14h-7zM1276 199h7
l-21 -21h-7zM-1037 137l-14 -21h7l14 21h-7zM416 81v-7l21 -7h7v7l-21 7h-7zM542 4v-7l84 -7h21l35 7v7h-140zM-1246 -122l-14 -28h14l7 21v7h-7zM-1302 -394v-28q23 -49 56 -49l7 7v7l-35 35v-7l7 -21h-7q-21 4 -21 56h-7zM-848 -527h21v-14h-21v14zM1411 2042h7l100 -247
l54 -60l-20 -34h26l-13 -13h-47q-45 0 -73 47l-7 6v7h-7l-6 -7h-7l-20 127z" />
    <glyph glyph-name="Eacute" unicode="&#xc9;" horiz-adv-x="1450" 
d="M870 1750v-7q-4 -71 -49 -181h7q59 -39 140 -63q78 103 322 160l139 21q231 -38 231 -167v-14h-7q-42 -59 -140 -98l-42 -7h-49q-129 0 -335 56l-14 -77q11 -84 35 -84l7 7q24 -77 105 -77l35 -7v-14l-147 21l-7 7l-21 7v-7q0 -14 -21 -14q-357 -75 -503 -230
q-42 -44 -42 -63l-21 14q-131 -110 -195 -280q-5 -55 -21 -55l14 -28l-21 -91q0 -269 132 -342q110 -84 210 -84l63 7v-14h-21v-7h14q79 7 98 21l21 -7q314 81 501 207l150 136l18 -7q-108 -133 -257 -231v-7h14q0 -21 -28 -21l-7 7h-14v-7h14q0 -21 -196 -98l-161 -28v14
h-20l7 -7v-14h-14v14l-140 -35l-35 -7l-161 28h-7q0 21 -42 21h-7v-7h14v-14h-7q-123 34 -216 119v7h7l7 -7h7v7l-42 21v7l7 7v6q-48 14 -84 84q-30 39 -63 189h14l7 -49h7q0 340 266 538l90 91v7l-63 35q-128 -104 -405 -259l-104 -70l-21 7q-404 -247 -678 -475
q-405 -361 -405 -566q0 -170 202 -216l126 -14h70v-14l-140 -7h-14l-7 7l-42 -14l-139 35h-21v7l7 7v7l-98 49v7l7 -7h7v7q-28 31 -28 126h-7v-28h-14v7q0 224 489 656q272 196 719 475h-6q-233 -77 -413 -77h-56q-106 0 -125 91v14q0 161 433 321l7 -7q97 21 279 35
q201 0 350 -76q331 245 426 433l28 49q0 12 -91 90l-7 84q71 125 188 7zM717 1673q35 -65 70 -76q71 147 3 161.5t-73 -85.5zM1101 1471v-14l91 -21l7 7h7l84 -14h27v-14h77q182 19 182 91l7 21q-16 97 -119 97l-56 7v14h35v7h-42q-230 -43 -230 -104q-37 -25 -70 -77z
M1108 1562h7l49 28v7h-7q-45 -19 -49 -35zM1017 1492v-7h7l70 70h-7q-63 -45 -70 -63zM815 1548q0 -49 -154 -252q-62 -40 -147 -133l-84 -41l7 -7v-7l-63 -42v-7l56 -35h7q284 178 580 216q-77 66 -77 98h14v14l-7 -7h-7l-7 7v84l28 49zM975 1478l-21 -84l7 -21h7l35 98
l-21 -14h-7l7 7v14h-7zM1038 1415l-7 -21l7 -49h7v70h-7zM668 1345l-56 -63h7l56 63h-7zM472 1163q41 19 98 84h-7zM1031 1226v-7h28v7h-28zM724 1135v-7h7l56 21v7h-7zM-652 919l-7 7h-7l-56 -77v-7h7q5 35 21 35h7v-7l-21 -56v-42q26 -49 111 -49h21q445 0 888 343v7
q-115 69 -287 69h-63q-332 0 -517 -146q-23 0 -97 -77zM549 1073q0 -14 -21 -14v-7h14q0 14 21 14v7h-14zM298 877h7l132 119h-7q-88 -65 -132 -119zM479 975h7l14 14h-7zM353 856v-7l119 112v7q-53 0 -119 -112zM298 856l-91 -91l7 -7v-14q-91 -188 -91 -335v-21l7 -35h7
l-7 35v7q1 70 14 70l-7 21q58 177 147 321h-7l-14 -14v7l42 56h-7zM-729 835v-49h7v49h-7zM326 765l-35 -84v-7h7l35 84v7h-7zM179 723l-49 -111v-7h7l49 111v7h-7zM186 346v-28h7v28h-7zM109 290v-14q10 -29 35 -42v7q-24 49 -35 49zM1303 220v-7l-13 -14h-7zM1276 199h7
l-21 -21h-7zM-1037 137l-14 -21h7l14 21h-7zM416 81v-7l21 -7h7v7l-21 7h-7zM542 4v-7l84 -7h21l35 7v7h-140zM-1246 -122l-14 -28h14l7 21v7h-7zM-1302 -394v-28q23 -49 56 -49l7 7v7l-35 35v-7l7 -21h-7q-21 4 -21 56h-7zM-848 -527h21v-14h-21v14zM1564 1969h6
q21 0 38 -89v-6q0 -80 -108 -108l-6 6h-6l-64 -6v13h-63q6 17 82 44q87 91 121 146z" />
    <glyph glyph-name="Ecircumflex" unicode="&#xca;" horiz-adv-x="1450" 
d="M870 1750v-7q-4 -71 -49 -181h7q59 -39 140 -63q78 103 322 160l139 21q231 -38 231 -167v-14h-7q-42 -59 -140 -98l-42 -7h-49q-129 0 -335 56l-14 -77q11 -84 35 -84l7 7q24 -77 105 -77l35 -7v-14l-147 21l-7 7l-21 7v-7q0 -14 -21 -14q-357 -75 -503 -230
q-42 -44 -42 -63l-21 14q-131 -110 -195 -280q-5 -55 -21 -55l14 -28l-21 -91q0 -269 132 -342q110 -84 210 -84l63 7v-14h-21v-7h14q79 7 98 21l21 -7q314 81 501 207l150 136l18 -7q-108 -133 -257 -231v-7h14q0 -21 -28 -21l-7 7h-14v-7h14q0 -21 -196 -98l-161 -28v14
h-20l7 -7v-14h-14v14l-140 -35l-35 -7l-161 28h-7q0 21 -42 21h-7v-7h14v-14h-7q-123 34 -216 119v7h7l7 -7h7v7l-42 21v7l7 7v6q-48 14 -84 84q-30 39 -63 189h14l7 -49h7q0 340 266 538l90 91v7l-63 35q-128 -104 -405 -259l-104 -70l-21 7q-404 -247 -678 -475
q-405 -361 -405 -566q0 -170 202 -216l126 -14h70v-14l-140 -7h-14l-7 7l-42 -14l-139 35h-21v7l7 7v7l-98 49v7l7 -7h7v7q-28 31 -28 126h-7v-28h-14v7q0 224 489 656q272 196 719 475h-6q-233 -77 -413 -77h-56q-106 0 -125 91v14q0 161 433 321l7 -7q97 21 279 35
q201 0 350 -76q331 245 426 433l28 49q0 12 -91 90l-7 84q71 125 188 7zM717 1673q35 -65 70 -76q71 147 3 161.5t-73 -85.5zM1101 1471v-14l91 -21l7 7h7l84 -14h27v-14h77q182 19 182 91l7 21q-16 97 -119 97l-56 7v14h35v7h-42q-230 -43 -230 -104q-37 -25 -70 -77z
M1108 1562h7l49 28v7h-7q-45 -19 -49 -35zM1017 1492v-7h7l70 70h-7q-63 -45 -70 -63zM815 1548q0 -49 -154 -252q-62 -40 -147 -133l-84 -41l7 -7v-7l-63 -42v-7l56 -35h7q284 178 580 216q-77 66 -77 98h14v14l-7 -7h-7l-7 7v84l28 49zM975 1478l-21 -84l7 -21h7l35 98
l-21 -14h-7l7 7v14h-7zM1038 1415l-7 -21l7 -49h7v70h-7zM668 1345l-56 -63h7l56 63h-7zM472 1163q41 19 98 84h-7zM1031 1226v-7h28v7h-28zM724 1135v-7h7l56 21v7h-7zM-652 919l-7 7h-7l-56 -77v-7h7q5 35 21 35h7v-7l-21 -56v-42q26 -49 111 -49h21q445 0 888 343v7
q-115 69 -287 69h-63q-332 0 -517 -146q-23 0 -97 -77zM549 1073q0 -14 -21 -14v-7h14q0 14 21 14v7h-14zM298 877h7l132 119h-7q-88 -65 -132 -119zM479 975h7l14 14h-7zM353 856v-7l119 112v7q-53 0 -119 -112zM298 856l-91 -91l7 -7v-14q-91 -188 -91 -335v-21l7 -35h7
l-7 35v7q1 70 14 70l-7 21q58 177 147 321h-7l-14 -14v7l42 56h-7zM-729 835v-49h7v49h-7zM326 765l-35 -84v-7h7l35 84v7h-7zM179 723l-49 -111v-7h7l49 111v7h-7zM186 346v-28h7v28h-7zM109 290v-14q10 -29 35 -42v7q-24 49 -35 49zM1303 220v-7l-13 -14h-7zM1276 199h7
l-21 -21h-7zM-1037 137l-14 -21h7l14 21h-7zM416 81v-7l21 -7h7v7l-21 7h-7zM542 4v-7l84 -7h21l35 7v7h-140zM-1246 -122l-14 -28h14l7 21v7h-7zM-1302 -394v-28q23 -49 56 -49l7 7v7l-35 35v-7l7 -21h-7q-21 4 -21 56h-7zM-848 -527h21v-14h-21v14zM1528 2027q46 0 46 -46
q33 -193 119 -297l33 -33v-13l-125 13l-27 -6q-32 0 -46 256q-68 -79 -158 -131l-6 6l-33 -6h-20v6q217 170 217 251z" />
    <glyph glyph-name="Edieresis" unicode="&#xcb;" horiz-adv-x="1450" 
d="M870 1750v-7q-4 -71 -49 -181h7q59 -39 140 -63q78 103 322 160l139 21q231 -38 231 -167v-14h-7q-42 -59 -140 -98l-42 -7h-49q-129 0 -335 56l-14 -77q11 -84 35 -84l7 7q24 -77 105 -77l35 -7v-14l-147 21l-7 7l-21 7v-7q0 -14 -21 -14q-357 -75 -503 -230
q-42 -44 -42 -63l-21 14q-131 -110 -195 -280q-5 -55 -21 -55l14 -28l-21 -91q0 -269 132 -342q110 -84 210 -84l63 7v-14h-21v-7h14q79 7 98 21l21 -7q314 81 501 207l150 136l18 -7q-108 -133 -257 -231v-7h14q0 -21 -28 -21l-7 7h-14v-7h14q0 -21 -196 -98l-161 -28v14
h-20l7 -7v-14h-14v14l-140 -35l-35 -7l-161 28h-7q0 21 -42 21h-7v-7h14v-14h-7q-123 34 -216 119v7h7l7 -7h7v7l-42 21v7l7 7v6q-48 14 -84 84q-30 39 -63 189h14l7 -49h7q0 340 266 538l90 91v7l-63 35q-128 -104 -405 -259l-104 -70l-21 7q-404 -247 -678 -475
q-405 -361 -405 -566q0 -170 202 -216l126 -14h70v-14l-140 -7h-14l-7 7l-42 -14l-139 35h-21v7l7 7v7l-98 49v7l7 -7h7v7q-28 31 -28 126h-7v-28h-14v7q0 224 489 656q272 196 719 475h-6q-233 -77 -413 -77h-56q-106 0 -125 91v14q0 161 433 321l7 -7q97 21 279 35
q201 0 350 -76q331 245 426 433l28 49q0 12 -91 90l-7 84q71 125 188 7zM717 1673q35 -65 70 -76q71 147 3 161.5t-73 -85.5zM1101 1471v-14l91 -21l7 7h7l84 -14h27v-14h77q182 19 182 91l7 21q-16 97 -119 97l-56 7v14h35v7h-42q-230 -43 -230 -104q-37 -25 -70 -77z
M1108 1562h7l49 28v7h-7q-45 -19 -49 -35zM1017 1492v-7h7l70 70h-7q-63 -45 -70 -63zM815 1548q0 -49 -154 -252q-62 -40 -147 -133l-84 -41l7 -7v-7l-63 -42v-7l56 -35h7q284 178 580 216q-77 66 -77 98h14v14l-7 -7h-7l-7 7v84l28 49zM975 1478l-21 -84l7 -21h7l35 98
l-21 -14h-7l7 7v14h-7zM1038 1415l-7 -21l7 -49h7v70h-7zM668 1345l-56 -63h7l56 63h-7zM472 1163q41 19 98 84h-7zM1031 1226v-7h28v7h-28zM724 1135v-7h7l56 21v7h-7zM-652 919l-7 7h-7l-56 -77v-7h7q5 35 21 35h7v-7l-21 -56v-42q26 -49 111 -49h21q445 0 888 343v7
q-115 69 -287 69h-63q-332 0 -517 -146q-23 0 -97 -77zM549 1073q0 -14 -21 -14v-7h14q0 14 21 14v7h-14zM298 877h7l132 119h-7q-88 -65 -132 -119zM479 975h7l14 14h-7zM353 856v-7l119 112v7q-53 0 -119 -112zM298 856l-91 -91l7 -7v-14q-91 -188 -91 -335v-21l7 -35h7
l-7 35v7q1 70 14 70l-7 21q58 177 147 321h-7l-14 -14v7l42 56h-7zM-729 835v-49h7v49h-7zM326 765l-35 -84v-7h7l35 84v7h-7zM179 723l-49 -111v-7h7l49 111v7h-7zM186 346v-28h7v28h-7zM109 290v-14q10 -29 35 -42v7q-24 49 -35 49zM1303 220v-7l-13 -14h-7zM1276 199h7
l-21 -21h-7zM-1037 137l-14 -21h7l14 21h-7zM416 81v-7l21 -7h7v7l-21 7h-7zM542 4v-7l84 -7h21l35 7v7h-140zM-1246 -122l-14 -28h14l7 21v7h-7zM-1302 -394v-28q23 -49 56 -49l7 7v7l-35 35v-7l7 -21h-7q-21 4 -21 56h-7zM-848 -527h21v-14h-21v14zM1265 1992h35
q41 -31 41 -71q-15 -94 -82 -94h-12q-46 0 -59 71q25 94 77 94zM1547 1980h6q52 0 59 -76q0 -60 -88 -83h-24q-35 21 -35 59q32 100 82 100z" />
    <glyph glyph-name="Igrave" unicode="&#xcc;" horiz-adv-x="2403" 
d="M2440 1752q224 0 354 -89l-7 -7q-77 22 -273 44l-59 -7l-52 7l7 -7v-7l-7 -8h-15l-52 8v-15l-7 7h-15q0 -22 -74 -37q-260 -199 -361 -480l-45 -81l207 -59l7 7v-14h8l7 7h8q353 -103 516 -103h15v-8l-7 -7v-8l221 -22q300 0 436 148q66 94 66 155h15v-7q0 -37 -37 -111
h8q37 60 37 125l-8 37l8 23l-23 103q60 -76 60 -163q0 -132 -96 -228h-15q0 11 29 22l8 7v22h-8l-103 -81h7l30 7q-1 -12 -177 -73l-15 14l-207 -22h-7q-329 0 -1004 207l-296 -591q-35 -26 -74 -140q-37 -54 -118 -244l310 30q436 0 739 -133l37 -30h-15q-198 89 -473 89
q-399 0 -886 -111l-317 -22v7q0 10 -59 15h-15v-7h37v-15q-261 0 -554 266q-96 125 -96 347q0 282 229 465q125 157 436 251q194 37 273 37q171 0 686 -148l23 8l-8 -8v-7h8q20 0 133 244q45 51 155 229h-8q-417 -67 -531 -67q-222 9 -222 30v7h59v15l89 -8q86 0 199 30v-15
q305 59 687 155l74 8h81zM2019 1590h7l15 14h-7zM1347 1553v-8h59v8h-59zM3274 1412l15 -14v-8l-15 15v7zM1827 1287l-81 -163v-14q14 0 88 169v8h-7zM845 1250v-7h52v7h-52zM978 1235v-7q165 -49 258 -177q87 -163 89 -222q-24 -35 -30 -81l8 -8v-7q-10 -47 -104 -207h-7
l-7 8h-8q-5 -52 -88 -111v7q162 195 162 436v7q0 159 -192 296q-81 37 -140 37h-52q-377 0 -657 -451q-67 -156 -67 -280v-23q0 -417 539 -509l59 7l52 -7q236 0 451 317q0 18 59 82l81 118q45 130 184 362h-7l-133 -215h-7l266 480v8q-155 29 -355 96l-7 -8v15l-30 -7
q-215 44 -310 44h-7zM1642 1147h15l15 -15h-15zM143 822l-37 -111v-8h8l37 111v8h-8zM70 622l-8 -51v-30h8l7 66v15h-7zM1399 578h22l-15 -15l-7 8v7zM99 534v-45l7 -51h8v14l-8 82h-7zM1620 91v-8h67v8h-67zM1888 2059h7l100 -247l54 -60l-20 -34h26l-13 -13h-47
q-45 0 -73 47l-7 6v7h-7l-6 -7h-7l-20 127z" />
    <glyph glyph-name="Iacute" unicode="&#xcd;" horiz-adv-x="2403" 
d="M2440 1752q224 0 354 -89l-7 -7q-77 22 -273 44l-59 -7l-52 7l7 -7v-7l-7 -8h-15l-52 8v-15l-7 7h-15q0 -22 -74 -37q-260 -199 -361 -480l-45 -81l207 -59l7 7v-14h8l7 7h8q353 -103 516 -103h15v-8l-7 -7v-8l221 -22q300 0 436 148q66 94 66 155h15v-7q0 -37 -37 -111
h8q37 60 37 125l-8 37l8 23l-23 103q60 -76 60 -163q0 -132 -96 -228h-15q0 11 29 22l8 7v22h-8l-103 -81h7l30 7q-1 -12 -177 -73l-15 14l-207 -22h-7q-329 0 -1004 207l-296 -591q-35 -26 -74 -140q-37 -54 -118 -244l310 30q436 0 739 -133l37 -30h-15q-198 89 -473 89
q-399 0 -886 -111l-317 -22v7q0 10 -59 15h-15v-7h37v-15q-261 0 -554 266q-96 125 -96 347q0 282 229 465q125 157 436 251q194 37 273 37q171 0 686 -148l23 8l-8 -8v-7h8q20 0 133 244q45 51 155 229h-8q-417 -67 -531 -67q-222 9 -222 30v7h59v15l89 -8q86 0 199 30v-15
q305 59 687 155l74 8h81zM2019 1590h7l15 14h-7zM1347 1553v-8h59v8h-59zM3274 1412l15 -14v-8l-15 15v7zM1827 1287l-81 -163v-14q14 0 88 169v8h-7zM845 1250v-7h52v7h-52zM978 1235v-7q165 -49 258 -177q87 -163 89 -222q-24 -35 -30 -81l8 -8v-7q-10 -47 -104 -207h-7
l-7 8h-8q-5 -52 -88 -111v7q162 195 162 436v7q0 159 -192 296q-81 37 -140 37h-52q-377 0 -657 -451q-67 -156 -67 -280v-23q0 -417 539 -509l59 7l52 -7q236 0 451 317q0 18 59 82l81 118q45 130 184 362h-7l-133 -215h-7l266 480v8q-155 29 -355 96l-7 -8v15l-30 -7
q-215 44 -310 44h-7zM1642 1147h15l15 -15h-15zM143 822l-37 -111v-8h8l37 111v8h-8zM70 622l-8 -51v-30h8l7 66v15h-7zM1399 578h22l-15 -15l-7 8v7zM99 534v-45l7 -51h8v14l-8 82h-7zM1620 91v-8h67v8h-67zM2157 1986h6q21 0 38 -89v-6q0 -80 -108 -108l-6 6h-6l-64 -6v13
h-63q6 17 82 44q87 91 121 146z" />
    <glyph glyph-name="Icircumflex" unicode="&#xce;" horiz-adv-x="2403" 
d="M2440 1752q224 0 354 -89l-7 -7q-77 22 -273 44l-59 -7l-52 7l7 -7v-7l-7 -8h-15l-52 8v-15l-7 7h-15q0 -22 -74 -37q-260 -199 -361 -480l-45 -81l207 -59l7 7v-14h8l7 7h8q353 -103 516 -103h15v-8l-7 -7v-8l221 -22q300 0 436 148q66 94 66 155h15v-7q0 -37 -37 -111
h8q37 60 37 125l-8 37l8 23l-23 103q60 -76 60 -163q0 -132 -96 -228h-15q0 11 29 22l8 7v22h-8l-103 -81h7l30 7q-1 -12 -177 -73l-15 14l-207 -22h-7q-329 0 -1004 207l-296 -591q-35 -26 -74 -140q-37 -54 -118 -244l310 30q436 0 739 -133l37 -30h-15q-198 89 -473 89
q-399 0 -886 -111l-317 -22v7q0 10 -59 15h-15v-7h37v-15q-261 0 -554 266q-96 125 -96 347q0 282 229 465q125 157 436 251q194 37 273 37q171 0 686 -148l23 8l-8 -8v-7h8q20 0 133 244q45 51 155 229h-8q-417 -67 -531 -67q-222 9 -222 30v7h59v15l89 -8q86 0 199 30v-15
q305 59 687 155l74 8h81zM2019 1590h7l15 14h-7zM1347 1553v-8h59v8h-59zM3274 1412l15 -14v-8l-15 15v7zM1827 1287l-81 -163v-14q14 0 88 169v8h-7zM845 1250v-7h52v7h-52zM978 1235v-7q165 -49 258 -177q87 -163 89 -222q-24 -35 -30 -81l8 -8v-7q-10 -47 -104 -207h-7
l-7 8h-8q-5 -52 -88 -111v7q162 195 162 436v7q0 159 -192 296q-81 37 -140 37h-52q-377 0 -657 -451q-67 -156 -67 -280v-23q0 -417 539 -509l59 7l52 -7q236 0 451 317q0 18 59 82l81 118q45 130 184 362h-7l-133 -215h-7l266 480v8q-155 29 -355 96l-7 -8v15l-30 -7
q-215 44 -310 44h-7zM1642 1147h15l15 -15h-15zM143 822l-37 -111v-8h8l37 111v8h-8zM70 622l-8 -51v-30h8l7 66v15h-7zM1399 578h22l-15 -15l-7 8v7zM99 534v-45l7 -51h8v14l-8 82h-7zM1620 91v-8h67v8h-67zM2122 2031q46 0 46 -46q33 -193 119 -297l33 -33v-13l-125 13
l-27 -6q-32 0 -46 256q-68 -79 -158 -131l-6 6l-33 -6h-20v6q217 170 217 251z" />
    <glyph glyph-name="Idieresis" unicode="&#xcf;" horiz-adv-x="2403" 
d="M2440 1752q224 0 354 -89l-7 -7q-77 22 -273 44l-59 -7l-52 7l7 -7v-7l-7 -8h-15l-52 8v-15l-7 7h-15q0 -22 -74 -37q-260 -199 -361 -480l-45 -81l207 -59l7 7v-14h8l7 7h8q353 -103 516 -103h15v-8l-7 -7v-8l221 -22q300 0 436 148q66 94 66 155h15v-7q0 -37 -37 -111
h8q37 60 37 125l-8 37l8 23l-23 103q60 -76 60 -163q0 -132 -96 -228h-15q0 11 29 22l8 7v22h-8l-103 -81h7l30 7q-1 -12 -177 -73l-15 14l-207 -22h-7q-329 0 -1004 207l-296 -591q-35 -26 -74 -140q-37 -54 -118 -244l310 30q436 0 739 -133l37 -30h-15q-198 89 -473 89
q-399 0 -886 -111l-317 -22v7q0 10 -59 15h-15v-7h37v-15q-261 0 -554 266q-96 125 -96 347q0 282 229 465q125 157 436 251q194 37 273 37q171 0 686 -148l23 8l-8 -8v-7h8q20 0 133 244q45 51 155 229h-8q-417 -67 -531 -67q-222 9 -222 30v7h59v15l89 -8q86 0 199 30v-15
q305 59 687 155l74 8h81zM2019 1590h7l15 14h-7zM1347 1553v-8h59v8h-59zM3274 1412l15 -14v-8l-15 15v7zM1827 1287l-81 -163v-14q14 0 88 169v8h-7zM845 1250v-7h52v7h-52zM978 1235v-7q165 -49 258 -177q87 -163 89 -222q-24 -35 -30 -81l8 -8v-7q-10 -47 -104 -207h-7
l-7 8h-8q-5 -52 -88 -111v7q162 195 162 436v7q0 159 -192 296q-81 37 -140 37h-52q-377 0 -657 -451q-67 -156 -67 -280v-23q0 -417 539 -509l59 7l52 -7q236 0 451 317q0 18 59 82l81 118q45 130 184 362h-7l-133 -215h-7l266 480v8q-155 29 -355 96l-7 -8v15l-30 -7
q-215 44 -310 44h-7zM1642 1147h15l15 -15h-15zM143 822l-37 -111v-8h8l37 111v8h-8zM70 622l-8 -51v-30h8l7 66v15h-7zM1399 578h22l-15 -15l-7 8v7zM99 534v-45l7 -51h8v14l-8 82h-7zM1620 91v-8h67v8h-67zM1987 2017h35q41 -31 41 -71q-15 -94 -82 -94h-12q-46 0 -59 71
q25 94 77 94zM2269 2005h6q52 0 59 -76q0 -60 -88 -83h-24q-35 21 -35 59q32 100 82 100z" />
    <glyph glyph-name="Eth" unicode="&#xd0;" horiz-adv-x="1518" 
 />
    <glyph glyph-name="Ntilde" unicode="&#xd1;" horiz-adv-x="2428" 
d="M4034 1838h123q281 -33 281 -185l7 -48q0 -184 -405 -453q-404 -225 -548 -267q48 34 267 130q239 130 425 281q145 203 145 384v14q0 67 -124 82l-219 42q-262 -42 -481 -158q-330 -146 -405 -233l-295 -268q-210 -178 -377 -384l7 -7v-7q-29 0 -165 -185
q-80 -79 -103 -144q-280 -390 -315 -419l-144 -82h-21v7q22 36 103 89q44 0 117 439l27 199l-7 7v7q0 31 83 274v7q-162 -212 -487 -514q-229 -181 -426 -302h-14q0 10 55 34v7h-6q-61 -26 -62 -41h13v-7q-113 -68 -260 -96l-7 -7h-14l-20 7v-7q0 -21 -213 -21
q-494 0 -494 261q0 356 645 741q242 114 412 123q134 0 219 -61h-7q-157 48 -212 48q-320 -52 -488 -179q-218 -131 -322 -308l-75 -158l-42 -137q23 -224 83 -234v-6h-21l21 -21h20l-7 7v7h14q79 -39 130 -42h186q59 0 398 145q314 225 404 308q509 516 536 638
q206 285 288 446l157 83l199 96v-7q-232 -201 -247 -295q-106 -127 -267 -535q-21 -46 -21 -96l7 -7v-7q-20 0 -55 -206q-34 -81 -61 -274v-7h6q207 330 597 748q331 291 625 466q537 288 837 288zM2709 1811v-14l-75 -34l-7 7v6q31 35 82 35zM4370 1708v-41l13 -14l7 34
l-7 21h-13zM4363 1529l-14 -48v-6h7l14 48v6h-7zM2346 1488l-48 -75q34 32 55 75h-7zM4315 1481l-14 -48v-6h7l14 48v6h-7zM4239 1351v-7l21 21h-7zM2181 1358l-75 -110v-7h7l75 110v7h-7zM2037 1166l-7 -7v-14h7l7 21h-7zM2003 1118l-165 -206h7l165 206h-7zM1365 1070h14
l13 -14h-13zM3485 885q0 -16 -55 -28v14zM1824 809l-68 -82v-7h7l68 89h-7zM445 775h7v-7l-61 -69v7zM1680 734l-109 -117h6l110 117h-7zM384 693v-7l-14 -14v7zM1468 432h7q46 48 61 48v14zM157 480l-41 -131l7 7l7 -7h14l13 42v7h-7q0 -21 -13 -21v14q27 47 27 82v7h-7z
M109 274v-7q0 -64 55 -116h7l-34 75q0 55 27 55v20l-41 -27h-14zM1083 185v-7h7l35 14v7h-7zM768 82v-7h14l27 7v7h-14zM3091 2035h7q62 0 172 -135q88 -67 172 -67h7q56 0 232 172l7 -8v-7q-37 -111 -202 -254q-29 -15 -82 -15h-30q-40 0 -179 149l-97 38q-134 0 -224 -97
l-60 -53l-7 8v7l112 150q26 52 164 104z" />
    <glyph glyph-name="Ograve" unicode="&#xd2;" horiz-adv-x="2173" 
d="M1428 1812h134q582 -30 637 -149q58 -70 92 -198q42 -100 42 -134q330 85 467 85q398 0 573 -219v-15q-84 119 -354 184l-162 14h-71l-106 -7v-7h240v-14h-162q-120 0 -213 -21v14h-28v-7h14v-14h-21v14h-28v-7h14v-14h-21v14h-29v-7h15v-14q-121 -14 -121 -36l-14 -247
q-18 0 -28 -92q-80 -238 -234 -410q0 -20 -99 -128q-170 -198 -198 -198l7 -7v-7q-69 -57 -91 -57v8l7 7v7h-15v7q-81 -57 -374 -135l-135 -21h-35q-240 0 -297 191q-29 66 -29 120v29q0 138 29 233l-29 -21h-7v14h-7l-35 -7l-7 7v7q71 0 71 85q58 246 304 594
q346 333 452 347q132 85 389 134v7h-21l-7 -7v14h-21v-14h-7q-21 0 -21 21h-14v-14h-15l-14 14l7 7h-28v-14q-205 29 -460 29q-326 0 -622 -128q-205 -66 -354 -170l-85 -56l7 -7v-14q-109 -33 -254 -297q-50 -95 -50 -220v-35q0 -92 64 -219q111 -85 191 -99v-7l-7 -7
l134 -15l99 7v-14l-141 -7h-57q262 -226 262 -396q-50 -198 -156 -198h-7v14q40 0 92 106l14 106v50l7 7v7q-16 0 -49 106q-18 0 -85 99l-113 92h14v7h-7l-21 -7l-198 78q-156 117 -156 283q0 393 714 792q458 177 828 177zM1965 1713v-7l57 -7h28v7l-70 7h-15zM989 666h7
l290 163q420 258 920 459q35 0 35 92v64q0 30 -28 71q0 153 -255 177h-7q-90 0 -212 -99q-113 -49 -410 -375q-138 -165 -219 -333q-121 -171 -121 -219zM1400 1409h7l78 70q-48 -21 -85 -70zM1378 1465l-42 -42h7l50 35v7h-15zM1110 1175h7l162 191h-7q-151 -151 -162 -191
zM1230 1239h7l99 113v7q-91 -80 -106 -120zM2963 1359h42v-14h-42v14zM2206 1246v-14h-7l-7 7h-7l-446 -198v7q-21 0 -21 -21l-7 7l-651 -375l-49 -14l-22 7l7 -7v-7q-44 0 -91 -283v-85q0 -61 28 -142l-7 -7v-7l7 -21h7v14l-7 7h7q72 -77 155 -77q384 0 708 374h-7l-43 -35
h-7q161 165 318 474q163 328 163 396h-21zM2277 1211l-7 -57v-35h7l7 78v14h-7zM3380 1175l14 -14v-14l-14 14v14zM2227 1161l-7 -35v-21h7l7 49v7h-7zM1230 1147l-28 -50h7l28 50h-7zM975 949h-7v14h-7l-49 -113h14l-21 -42v-8h7q98 190 191 319v7q-26 0 -128 -177z
M-22 1076l-14 -35v-7h7l14 35v7h-7zM1088 1034q-106 -163 -106 -191v-7h7q26 68 106 191v7h-7zM1060 942l-14 -28v-7h7l14 28v7h-7zM-43 928l-7 -36v-21l14 14v43h-7zM2206 928l-64 -142q14 0 71 135v7h-7zM968 751v-14h7l21 63q-11 0 -28 -49zM954 793l-28 -92v-7h7l28 92
v7h-7zM-72 779v-14l8 -42h7v14l-7 42h-8zM883 758l-21 -71v-7h7l21 71v7h-7zM2093 631h7q71 95 71 113q-13 -3 -78 -113zM-1 659v-7l14 -35l7 7h7l22 -15v15l-36 49zM890 595l-42 -177l14 -91h7v148l28 113v7h-7zM84 581v-14l57 -21l-50 35h-7zM2050 539l-70 -92h7l70 92h-7
zM791 532h14v-36h-14v36zM530 100v-42h-7l-8 7h-7v-21h15l-8 -7v-15h8l14 50v28h-7zM480 -27l-7 -7v-14h7l7 21h-7zM438 -70v-7l21 22h-7zM317 -98h57v-14h-57v14zM2138 2021h7l100 -247l54 -60l-20 -34h26l-13 -13h-47q-45 0 -73 47l-7 6v7h-7l-6 -7h-7l-20 127z" />
    <glyph glyph-name="Oacute" unicode="&#xd3;" horiz-adv-x="2173" 
d="M1428 1812h134q582 -30 637 -149q58 -70 92 -198q42 -100 42 -134q330 85 467 85q398 0 573 -219v-15q-84 119 -354 184l-162 14h-71l-106 -7v-7h240v-14h-162q-120 0 -213 -21v14h-28v-7h14v-14h-21v14h-28v-7h14v-14h-21v14h-29v-7h15v-14q-121 -14 -121 -36l-14 -247
q-18 0 -28 -92q-80 -238 -234 -410q0 -20 -99 -128q-170 -198 -198 -198l7 -7v-7q-69 -57 -91 -57v8l7 7v7h-15v7q-81 -57 -374 -135l-135 -21h-35q-240 0 -297 191q-29 66 -29 120v29q0 138 29 233l-29 -21h-7v14h-7l-35 -7l-7 7v7q71 0 71 85q58 246 304 594
q346 333 452 347q132 85 389 134v7h-21l-7 -7v14h-21v-14h-7q-21 0 -21 21h-14v-14h-15l-14 14l7 7h-28v-14q-205 29 -460 29q-326 0 -622 -128q-205 -66 -354 -170l-85 -56l7 -7v-14q-109 -33 -254 -297q-50 -95 -50 -220v-35q0 -92 64 -219q111 -85 191 -99v-7l-7 -7
l134 -15l99 7v-14l-141 -7h-57q262 -226 262 -396q-50 -198 -156 -198h-7v14q40 0 92 106l14 106v50l7 7v7q-16 0 -49 106q-18 0 -85 99l-113 92h14v7h-7l-21 -7l-198 78q-156 117 -156 283q0 393 714 792q458 177 828 177zM1965 1713v-7l57 -7h28v7l-70 7h-15zM989 666h7
l290 163q420 258 920 459q35 0 35 92v64q0 30 -28 71q0 153 -255 177h-7q-90 0 -212 -99q-113 -49 -410 -375q-138 -165 -219 -333q-121 -171 -121 -219zM1400 1409h7l78 70q-48 -21 -85 -70zM1378 1465l-42 -42h7l50 35v7h-15zM1110 1175h7l162 191h-7q-151 -151 -162 -191
zM1230 1239h7l99 113v7q-91 -80 -106 -120zM2963 1359h42v-14h-42v14zM2206 1246v-14h-7l-7 7h-7l-446 -198v7q-21 0 -21 -21l-7 7l-651 -375l-49 -14l-22 7l7 -7v-7q-44 0 -91 -283v-85q0 -61 28 -142l-7 -7v-7l7 -21h7v14l-7 7h7q72 -77 155 -77q384 0 708 374h-7l-43 -35
h-7q161 165 318 474q163 328 163 396h-21zM2277 1211l-7 -57v-35h7l7 78v14h-7zM3380 1175l14 -14v-14l-14 14v14zM2227 1161l-7 -35v-21h7l7 49v7h-7zM1230 1147l-28 -50h7l28 50h-7zM975 949h-7v14h-7l-49 -113h14l-21 -42v-8h7q98 190 191 319v7q-26 0 -128 -177z
M-22 1076l-14 -35v-7h7l14 35v7h-7zM1088 1034q-106 -163 -106 -191v-7h7q26 68 106 191v7h-7zM1060 942l-14 -28v-7h7l14 28v7h-7zM-43 928l-7 -36v-21l14 14v43h-7zM2206 928l-64 -142q14 0 71 135v7h-7zM968 751v-14h7l21 63q-11 0 -28 -49zM954 793l-28 -92v-7h7l28 92
v7h-7zM-72 779v-14l8 -42h7v14l-7 42h-8zM883 758l-21 -71v-7h7l21 71v7h-7zM2093 631h7q71 95 71 113q-13 -3 -78 -113zM-1 659v-7l14 -35l7 7h7l22 -15v15l-36 49zM890 595l-42 -177l14 -91h7v148l28 113v7h-7zM84 581v-14l57 -21l-50 35h-7zM2050 539l-70 -92h7l70 92h-7
zM791 532h14v-36h-14v36zM530 100v-42h-7l-8 7h-7v-21h15l-8 -7v-15h8l14 50v28h-7zM480 -27l-7 -7v-14h7l7 21h-7zM438 -70v-7l21 22h-7zM317 -98h57v-14h-57v14zM2190 1994h6q21 0 38 -89v-6q0 -80 -108 -108l-6 6h-6l-64 -6v13h-63q6 17 82 44q87 91 121 146z" />
    <glyph glyph-name="Ocircumflex" unicode="&#xd4;" horiz-adv-x="2173" 
d="M1428 1812h134q582 -30 637 -149q58 -70 92 -198q42 -100 42 -134q330 85 467 85q398 0 573 -219v-15q-84 119 -354 184l-162 14h-71l-106 -7v-7h240v-14h-162q-120 0 -213 -21v14h-28v-7h14v-14h-21v14h-28v-7h14v-14h-21v14h-29v-7h15v-14q-121 -14 -121 -36l-14 -247
q-18 0 -28 -92q-80 -238 -234 -410q0 -20 -99 -128q-170 -198 -198 -198l7 -7v-7q-69 -57 -91 -57v8l7 7v7h-15v7q-81 -57 -374 -135l-135 -21h-35q-240 0 -297 191q-29 66 -29 120v29q0 138 29 233l-29 -21h-7v14h-7l-35 -7l-7 7v7q71 0 71 85q58 246 304 594
q346 333 452 347q132 85 389 134v7h-21l-7 -7v14h-21v-14h-7q-21 0 -21 21h-14v-14h-15l-14 14l7 7h-28v-14q-205 29 -460 29q-326 0 -622 -128q-205 -66 -354 -170l-85 -56l7 -7v-14q-109 -33 -254 -297q-50 -95 -50 -220v-35q0 -92 64 -219q111 -85 191 -99v-7l-7 -7
l134 -15l99 7v-14l-141 -7h-57q262 -226 262 -396q-50 -198 -156 -198h-7v14q40 0 92 106l14 106v50l7 7v7q-16 0 -49 106q-18 0 -85 99l-113 92h14v7h-7l-21 -7l-198 78q-156 117 -156 283q0 393 714 792q458 177 828 177zM1965 1713v-7l57 -7h28v7l-70 7h-15zM989 666h7
l290 163q420 258 920 459q35 0 35 92v64q0 30 -28 71q0 153 -255 177h-7q-90 0 -212 -99q-113 -49 -410 -375q-138 -165 -219 -333q-121 -171 -121 -219zM1400 1409h7l78 70q-48 -21 -85 -70zM1378 1465l-42 -42h7l50 35v7h-15zM1110 1175h7l162 191h-7q-151 -151 -162 -191
zM1230 1239h7l99 113v7q-91 -80 -106 -120zM2963 1359h42v-14h-42v14zM2206 1246v-14h-7l-7 7h-7l-446 -198v7q-21 0 -21 -21l-7 7l-651 -375l-49 -14l-22 7l7 -7v-7q-44 0 -91 -283v-85q0 -61 28 -142l-7 -7v-7l7 -21h7v14l-7 7h7q72 -77 155 -77q384 0 708 374h-7l-43 -35
h-7q161 165 318 474q163 328 163 396h-21zM2277 1211l-7 -57v-35h7l7 78v14h-7zM3380 1175l14 -14v-14l-14 14v14zM2227 1161l-7 -35v-21h7l7 49v7h-7zM1230 1147l-28 -50h7l28 50h-7zM975 949h-7v14h-7l-49 -113h14l-21 -42v-8h7q98 190 191 319v7q-26 0 -128 -177z
M-22 1076l-14 -35v-7h7l14 35v7h-7zM1088 1034q-106 -163 -106 -191v-7h7q26 68 106 191v7h-7zM1060 942l-14 -28v-7h7l14 28v7h-7zM-43 928l-7 -36v-21l14 14v43h-7zM2206 928l-64 -142q14 0 71 135v7h-7zM968 751v-14h7l21 63q-11 0 -28 -49zM954 793l-28 -92v-7h7l28 92
v7h-7zM-72 779v-14l8 -42h7v14l-7 42h-8zM883 758l-21 -71v-7h7l21 71v7h-7zM2093 631h7q71 95 71 113q-13 -3 -78 -113zM-1 659v-7l14 -35l7 7h7l22 -15v15l-36 49zM890 595l-42 -177l14 -91h7v148l28 113v7h-7zM84 581v-14l57 -21l-50 35h-7zM2050 539l-70 -92h7l70 92h-7
zM791 532h14v-36h-14v36zM530 100v-42h-7l-8 7h-7v-21h15l-8 -7v-15h8l14 50v28h-7zM480 -27l-7 -7v-14h7l7 21h-7zM438 -70v-7l21 22h-7zM317 -98h57v-14h-57v14zM2225 2035q46 0 46 -46q33 -193 119 -297l33 -33v-13l-125 13l-27 -6q-32 0 -46 256q-68 -79 -158 -131l-6 6
l-33 -6h-20v6q217 170 217 251z" />
    <glyph glyph-name="Otilde" unicode="&#xd5;" horiz-adv-x="2173" 
d="M1428 1812h134q582 -30 637 -149q58 -70 92 -198q42 -100 42 -134q330 85 467 85q398 0 573 -219v-15q-84 119 -354 184l-162 14h-71l-106 -7v-7h240v-14h-162q-120 0 -213 -21v14h-28v-7h14v-14h-21v14h-28v-7h14v-14h-21v14h-29v-7h15v-14q-121 -14 -121 -36l-14 -247
q-18 0 -28 -92q-80 -238 -234 -410q0 -20 -99 -128q-170 -198 -198 -198l7 -7v-7q-69 -57 -91 -57v8l7 7v7h-15v7q-81 -57 -374 -135l-135 -21h-35q-240 0 -297 191q-29 66 -29 120v29q0 138 29 233l-29 -21h-7v14h-7l-35 -7l-7 7v7q71 0 71 85q58 246 304 594
q346 333 452 347q132 85 389 134v7h-21l-7 -7v14h-21v-14h-7q-21 0 -21 21h-14v-14h-15l-14 14l7 7h-28v-14q-205 29 -460 29q-326 0 -622 -128q-205 -66 -354 -170l-85 -56l7 -7v-14q-109 -33 -254 -297q-50 -95 -50 -220v-35q0 -92 64 -219q111 -85 191 -99v-7l-7 -7
l134 -15l99 7v-14l-141 -7h-57q262 -226 262 -396q-50 -198 -156 -198h-7v14q40 0 92 106l14 106v50l7 7v7q-16 0 -49 106q-18 0 -85 99l-113 92h14v7h-7l-21 -7l-198 78q-156 117 -156 283q0 393 714 792q458 177 828 177zM1965 1713v-7l57 -7h28v7l-70 7h-15zM989 666h7
l290 163q420 258 920 459q35 0 35 92v64q0 30 -28 71q0 153 -255 177h-7q-90 0 -212 -99q-113 -49 -410 -375q-138 -165 -219 -333q-121 -171 -121 -219zM1400 1409h7l78 70q-48 -21 -85 -70zM1378 1465l-42 -42h7l50 35v7h-15zM1110 1175h7l162 191h-7q-151 -151 -162 -191
zM1230 1239h7l99 113v7q-91 -80 -106 -120zM2963 1359h42v-14h-42v14zM2206 1246v-14h-7l-7 7h-7l-446 -198v7q-21 0 -21 -21l-7 7l-651 -375l-49 -14l-22 7l7 -7v-7q-44 0 -91 -283v-85q0 -61 28 -142l-7 -7v-7l7 -21h7v14l-7 7h7q72 -77 155 -77q384 0 708 374h-7l-43 -35
h-7q161 165 318 474q163 328 163 396h-21zM2277 1211l-7 -57v-35h7l7 78v14h-7zM3380 1175l14 -14v-14l-14 14v14zM2227 1161l-7 -35v-21h7l7 49v7h-7zM1230 1147l-28 -50h7l28 50h-7zM975 949h-7v14h-7l-49 -113h14l-21 -42v-8h7q98 190 191 319v7q-26 0 -128 -177z
M-22 1076l-14 -35v-7h7l14 35v7h-7zM1088 1034q-106 -163 -106 -191v-7h7q26 68 106 191v7h-7zM1060 942l-14 -28v-7h7l14 28v7h-7zM-43 928l-7 -36v-21l14 14v43h-7zM2206 928l-64 -142q14 0 71 135v7h-7zM968 751v-14h7l21 63q-11 0 -28 -49zM954 793l-28 -92v-7h7l28 92
v7h-7zM-72 779v-14l8 -42h7v14l-7 42h-8zM883 758l-21 -71v-7h7l21 71v7h-7zM2093 631h7q71 95 71 113q-13 -3 -78 -113zM-1 659v-7l14 -35l7 7h7l22 -15v15l-36 49zM890 595l-42 -177l14 -91h7v148l28 113v7h-7zM84 581v-14l57 -21l-50 35h-7zM2050 539l-70 -92h7l70 92h-7
zM791 532h14v-36h-14v36zM530 100v-42h-7l-8 7h-7v-21h15l-8 -7v-15h8l14 50v28h-7zM480 -27l-7 -7v-14h7l7 21h-7zM438 -70v-7l21 22h-7zM317 -98h57v-14h-57v14zM2084 2031h7q62 0 172 -135q88 -67 172 -67h7q56 0 232 172l7 -8v-7q-37 -111 -202 -254q-29 -15 -82 -15
h-30q-40 0 -179 149l-97 38q-134 0 -224 -97l-60 -53l-7 8v7l112 150q26 52 164 104z" />
    <glyph glyph-name="Odieresis" unicode="&#xd6;" horiz-adv-x="2173" 
d="M1428 1812h134q582 -30 637 -149q58 -70 92 -198q42 -100 42 -134q330 85 467 85q398 0 573 -219v-15q-84 119 -354 184l-162 14h-71l-106 -7v-7h240v-14h-162q-120 0 -213 -21v14h-28v-7h14v-14h-21v14h-28v-7h14v-14h-21v14h-29v-7h15v-14q-121 -14 -121 -36l-14 -247
q-18 0 -28 -92q-80 -238 -234 -410q0 -20 -99 -128q-170 -198 -198 -198l7 -7v-7q-69 -57 -91 -57v8l7 7v7h-15v7q-81 -57 -374 -135l-135 -21h-35q-240 0 -297 191q-29 66 -29 120v29q0 138 29 233l-29 -21h-7v14h-7l-35 -7l-7 7v7q71 0 71 85q58 246 304 594
q346 333 452 347q132 85 389 134v7h-21l-7 -7v14h-21v-14h-7q-21 0 -21 21h-14v-14h-15l-14 14l7 7h-28v-14q-205 29 -460 29q-326 0 -622 -128q-205 -66 -354 -170l-85 -56l7 -7v-14q-109 -33 -254 -297q-50 -95 -50 -220v-35q0 -92 64 -219q111 -85 191 -99v-7l-7 -7
l134 -15l99 7v-14l-141 -7h-57q262 -226 262 -396q-50 -198 -156 -198h-7v14q40 0 92 106l14 106v50l7 7v7q-16 0 -49 106q-18 0 -85 99l-113 92h14v7h-7l-21 -7l-198 78q-156 117 -156 283q0 393 714 792q458 177 828 177zM1965 1713v-7l57 -7h28v7l-70 7h-15zM989 666h7
l290 163q420 258 920 459q35 0 35 92v64q0 30 -28 71q0 153 -255 177h-7q-90 0 -212 -99q-113 -49 -410 -375q-138 -165 -219 -333q-121 -171 -121 -219zM1400 1409h7l78 70q-48 -21 -85 -70zM1378 1465l-42 -42h7l50 35v7h-15zM1110 1175h7l162 191h-7q-151 -151 -162 -191
zM1230 1239h7l99 113v7q-91 -80 -106 -120zM2963 1359h42v-14h-42v14zM2206 1246v-14h-7l-7 7h-7l-446 -198v7q-21 0 -21 -21l-7 7l-651 -375l-49 -14l-22 7l7 -7v-7q-44 0 -91 -283v-85q0 -61 28 -142l-7 -7v-7l7 -21h7v14l-7 7h7q72 -77 155 -77q384 0 708 374h-7l-43 -35
h-7q161 165 318 474q163 328 163 396h-21zM2277 1211l-7 -57v-35h7l7 78v14h-7zM3380 1175l14 -14v-14l-14 14v14zM2227 1161l-7 -35v-21h7l7 49v7h-7zM1230 1147l-28 -50h7l28 50h-7zM975 949h-7v14h-7l-49 -113h14l-21 -42v-8h7q98 190 191 319v7q-26 0 -128 -177z
M-22 1076l-14 -35v-7h7l14 35v7h-7zM1088 1034q-106 -163 -106 -191v-7h7q26 68 106 191v7h-7zM1060 942l-14 -28v-7h7l14 28v7h-7zM-43 928l-7 -36v-21l14 14v43h-7zM2206 928l-64 -142q14 0 71 135v7h-7zM968 751v-14h7l21 63q-11 0 -28 -49zM954 793l-28 -92v-7h7l28 92
v7h-7zM-72 779v-14l8 -42h7v14l-7 42h-8zM883 758l-21 -71v-7h7l21 71v7h-7zM2093 631h7q71 95 71 113q-13 -3 -78 -113zM-1 659v-7l14 -35l7 7h7l22 -15v15l-36 49zM890 595l-42 -177l14 -91h7v148l28 113v7h-7zM84 581v-14l57 -21l-50 35h-7zM2050 539l-70 -92h7l70 92h-7
zM791 532h14v-36h-14v36zM530 100v-42h-7l-8 7h-7v-21h15l-8 -7v-15h8l14 50v28h-7zM480 -27l-7 -7v-14h7l7 21h-7zM438 -70v-7l21 22h-7zM317 -98h57v-14h-57v14zM2007 2025h35q41 -31 41 -71q-15 -94 -82 -94h-12q-46 0 -59 71q25 94 77 94zM2289 2013h6q52 0 59 -76
q0 -60 -88 -83h-24q-35 21 -35 59q32 100 82 100z" />
    <glyph glyph-name="multiply" unicode="&#xd7;" 
 />
    <glyph glyph-name="Oslash" unicode="&#xd8;" horiz-adv-x="2173" 
d="M1428 1812h134q582 -30 637 -149q58 -70 92 -198q42 -100 42 -134q330 85 467 85q398 0 573 -219v-15q-84 119 -354 184l-162 14h-71l-106 -7v-7h240v-14h-162q-120 0 -213 -21v14h-28v-7h14v-14h-21v14h-28v-7h14v-14h-21v14h-29v-7h15v-14q-121 -14 -121 -36l-14 -247
q-18 0 -28 -92q-80 -238 -234 -410q0 -20 -99 -128q-170 -198 -198 -198l7 -7v-7q-69 -57 -91 -57v8l7 7v7h-15v7q-81 -57 -374 -135l-135 -21h-35q-240 0 -297 191q-29 66 -29 120v29q0 138 29 233l-29 -21h-7v14h-7l-35 -7l-7 7v7q71 0 71 85q58 246 304 594
q346 333 452 347q132 85 389 134v7h-21l-7 -7v14h-21v-14h-7q-21 0 -21 21h-14v-14h-15l-14 14l7 7h-28v-14q-205 29 -460 29q-326 0 -622 -128q-205 -66 -354 -170l-85 -56l7 -7v-14q-109 -33 -254 -297q-50 -95 -50 -220v-35q0 -92 64 -219q111 -85 191 -99v-7l-7 -7
l134 -15l99 7v-14l-141 -7h-57q262 -226 262 -396q-50 -198 -156 -198h-7v14q40 0 92 106l14 106v50l7 7v7q-16 0 -49 106q-18 0 -85 99l-113 92h14v7h-7l-21 -7l-198 78q-156 117 -156 283q0 393 714 792q458 177 828 177zM1965 1713v-7l57 -7h28v7l-70 7h-15zM989 666h7
l290 163q420 258 920 459q35 0 35 92v64q0 30 -28 71q0 153 -255 177h-7q-90 0 -212 -99q-113 -49 -410 -375q-138 -165 -219 -333q-121 -171 -121 -219zM1400 1409h7l78 70q-48 -21 -85 -70zM1378 1465l-42 -42h7l50 35v7h-15zM1110 1175h7l162 191h-7q-151 -151 -162 -191
zM1230 1239h7l99 113v7q-91 -80 -106 -120zM2963 1359h42v-14h-42v14zM2206 1246v-14h-7l-7 7h-7l-446 -198v7q-21 0 -21 -21l-7 7l-651 -375l-49 -14l-22 7l7 -7v-7q-44 0 -91 -283v-85q0 -61 28 -142l-7 -7v-7l7 -21h7v14l-7 7h7q72 -77 155 -77q384 0 708 374h-7l-43 -35
h-7q161 165 318 474q163 328 163 396h-21zM2277 1211l-7 -57v-35h7l7 78v14h-7zM3380 1175l14 -14v-14l-14 14v14zM2227 1161l-7 -35v-21h7l7 49v7h-7zM1230 1147l-28 -50h7l28 50h-7zM975 949h-7v14h-7l-49 -113h14l-21 -42v-8h7q98 190 191 319v7q-26 0 -128 -177z
M-22 1076l-14 -35v-7h7l14 35v7h-7zM1088 1034q-106 -163 -106 -191v-7h7q26 68 106 191v7h-7zM1060 942l-14 -28v-7h7l14 28v7h-7zM-43 928l-7 -36v-21l14 14v43h-7zM2206 928l-64 -142q14 0 71 135v7h-7zM968 751v-14h7l21 63q-11 0 -28 -49zM954 793l-28 -92v-7h7l28 92
v7h-7zM-72 779v-14l8 -42h7v14l-7 42h-8zM883 758l-21 -71v-7h7l21 71v7h-7zM2093 631h7q71 95 71 113q-13 -3 -78 -113zM-1 659v-7l14 -35l7 7h7l22 -15v15l-36 49zM890 595l-42 -177l14 -91h7v148l28 113v7h-7zM84 581v-14l57 -21l-50 35h-7zM2050 539l-70 -92h7l70 92h-7
zM791 532h14v-36h-14v36zM530 100v-42h-7l-8 7h-7v-21h15l-8 -7v-15h8l14 50v28h-7zM480 -27l-7 -7v-14h7l7 21h-7zM438 -70v-7l21 22h-7zM317 -98h57v-14h-57v14zM2100 1424h15v15h7l8 -7h7l29 7v-15l-103 -140v8l8 7v7h-8l-66 -103l7 -29l-22 -15v15l-81 -111v-7l8 7h7v-7
q-232 -325 -560 -891h-7l-8 7q0 -66 -36 -81v15h-8l-51 -104q22 0 22 -14l-8 -8l-7 8h-22l-22 -15l-96 15v14l37 15l-8 8v7l303 457v-8l-30 -51h7l192 302v7h-7q0 -19 -59 -88v14l147 214l-7 7v8q81 145 117 169l8 -7q96 155 155 287h7v-15l-22 -51q74 118 96 118h7v15h-15
l-37 -8l-7 8v7q29 22 103 22v-15zM2085 1410q0 -22 -44 -89v-7h8l59 96h-23zM2063 1284v-7l-14 -15v8zM1901 1159v-7h8l59 95v8zM2049 1262v-7l-15 -15v7zM2034 1240v-7l-15 -15v7zM2019 1218v-7l-15 -15v7zM1982 1159v-15q-53 -81 -66 -81v8zM1710 805v-7l29 37v7z
M1540 643v-14l-44 -59v14q33 59 44 59zM1496 570v-8q-39 -72 -51 -73v14q31 58 51 67zM1356 268l-59 -96v-7h8l58 95v8h-7zM1260 179l-14 -51q12 0 29 44l-7 7h-8z" />
    <glyph glyph-name="Ugrave" unicode="&#xd9;" horiz-adv-x="1347" 
d="M438 1795q260 0 366 -155q12 -24 12 -68v-50q0 -102 -173 -291q-39 -69 -112 -117q-327 -395 -371 -744v-148q11 -137 86 -137l62 -18h19v12h6q140 0 297 143q106 65 174 204l62 124q56 62 56 130l272 427q19 68 130 199q84 167 192 167l6 6h7l6 -6h6l37 12h13l18 -18
q-91 -139 -272 -372q-116 -196 -372 -688q-22 0 -68 -260v-31q0 -52 37 -74h43q86 0 350 325l19 -13q-257 -374 -424 -374q-109 0 -143 50l-31 99v43l6 74q-356 -260 -532 -260q-254 0 -254 260q0 391 582 1016q161 228 161 347q0 108 -136 155l-68 6h-62v-12h-31l-69 -19
l-18 6q0 -12 -130 -49q-406 -167 -570 -471q-68 -131 -68 -279q28 -136 74 -167q35 -37 50 -37v-12h-7l-68 43q-35 0 -93 105l-12 81q0 117 81 260q0 32 192 241q26 43 247 180q142 91 415 155zM730 1634v-68h12v-6l-6 -25v-6h6l6 31v18h-12l6 37l-6 19h-6zM723 1473
l-24 -56v-6h6l25 56v6h-7zM668 1399l-7 -19v-6h7l6 18v7h-6zM1324 1231v-6h6q0 12 50 62v6q-41 -31 -56 -62zM1361 1219v-6l38 43v6q-12 0 -38 -43zM1343 1200q-112 -163 -112 -192v-6h6l112 198h-6zM1268 1163l-12 -31v-6h6l19 37h-13zM1219 1095l-25 -56h6q14 0 25 50v6
h-6zM519 1070v-6l-19 -19v7zM-466 1014v-43h6v43h-6zM476 1021v-7l-13 -12v6zM451 990v-6l-13 -13v6zM-460 953v-44l6 -43l-6 -19l6 6h7q14 -37 24 -37v6q-31 60 -31 131h-6zM426 959v-6l-12 -13v6zM197 730l-6 -19v-6h6l6 18v7h-6zM160 581l-13 -43v-7h6l13 44v6h-6z
M934 469l-19 -55v-7h7l18 56v6h-6zM141 451l-6 -56v-25h6l6 62v19h-6zM872 414l-25 -69v-6h6l25 68v7h-6zM54 407l-6 -55v-7h6l7 38v24h-7zM816 228v-6h6l25 99q-20 0 -31 -93zM1367 414h6v-6l-25 -25h-6v6zM878 215v-24h6v24h-6zM11 191v-44h6v44h-6zM122 191v-25l7 -25h6
v6l-6 44h-7zM841 184l-12 -37l6 -31h6l6 56v12h-6zM23 135v-19l13 -12v12l-6 19h-7zM73 116v-12l6 -19h6v7l-6 24h-6zM67 85v-6q8 -25 31 -37h6l-31 43h-6zM853 61v-19l25 -25v6q-12 38 -25 38zM314 48v-12h13l25 12v6h-7zM847 30v-19h19zM228 23v-6h25v6h-25zM1062 2029h7
l100 -247l54 -60l-20 -34h26l-13 -13h-47q-45 0 -73 47l-7 6v7h-7l-6 -7h-7l-20 127z" />
    <glyph glyph-name="Uacute" unicode="&#xda;" horiz-adv-x="1347" 
d="M438 1795q260 0 366 -155q12 -24 12 -68v-50q0 -102 -173 -291q-39 -69 -112 -117q-327 -395 -371 -744v-148q11 -137 86 -137l62 -18h19v12h6q140 0 297 143q106 65 174 204l62 124q56 62 56 130l272 427q19 68 130 199q84 167 192 167l6 6h7l6 -6h6l37 12h13l18 -18
q-91 -139 -272 -372q-116 -196 -372 -688q-22 0 -68 -260v-31q0 -52 37 -74h43q86 0 350 325l19 -13q-257 -374 -424 -374q-109 0 -143 50l-31 99v43l6 74q-356 -260 -532 -260q-254 0 -254 260q0 391 582 1016q161 228 161 347q0 108 -136 155l-68 6h-62v-12h-31l-69 -19
l-18 6q0 -12 -130 -49q-406 -167 -570 -471q-68 -131 -68 -279q28 -136 74 -167q35 -37 50 -37v-12h-7l-68 43q-35 0 -93 105l-12 81q0 117 81 260q0 32 192 241q26 43 247 180q142 91 415 155zM730 1634v-68h12v-6l-6 -25v-6h6l6 31v18h-12l6 37l-6 19h-6zM723 1473
l-24 -56v-6h6l25 56v6h-7zM668 1399l-7 -19v-6h7l6 18v7h-6zM1324 1231v-6h6q0 12 50 62v6q-41 -31 -56 -62zM1361 1219v-6l38 43v6q-12 0 -38 -43zM1343 1200q-112 -163 -112 -192v-6h6l112 198h-6zM1268 1163l-12 -31v-6h6l19 37h-13zM1219 1095l-25 -56h6q14 0 25 50v6
h-6zM519 1070v-6l-19 -19v7zM-466 1014v-43h6v43h-6zM476 1021v-7l-13 -12v6zM451 990v-6l-13 -13v6zM-460 953v-44l6 -43l-6 -19l6 6h7q14 -37 24 -37v6q-31 60 -31 131h-6zM426 959v-6l-12 -13v6zM197 730l-6 -19v-6h6l6 18v7h-6zM160 581l-13 -43v-7h6l13 44v6h-6z
M934 469l-19 -55v-7h7l18 56v6h-6zM141 451l-6 -56v-25h6l6 62v19h-6zM872 414l-25 -69v-6h6l25 68v7h-6zM54 407l-6 -55v-7h6l7 38v24h-7zM816 228v-6h6l25 99q-20 0 -31 -93zM1367 414h6v-6l-25 -25h-6v6zM878 215v-24h6v24h-6zM11 191v-44h6v44h-6zM122 191v-25l7 -25h6
v6l-6 44h-7zM841 184l-12 -37l6 -31h6l6 56v12h-6zM23 135v-19l13 -12v12l-6 19h-7zM73 116v-12l6 -19h6v7l-6 24h-6zM67 85v-6q8 -25 31 -37h6l-31 43h-6zM853 61v-19l25 -25v6q-12 38 -25 38zM314 48v-12h13l25 12v6h-7zM847 30v-19h19zM228 23v-6h25v6h-25zM1328 1952h6
q21 0 38 -89v-6q0 -80 -108 -108l-6 6h-6l-64 -6v13h-63q6 17 82 44q87 91 121 146z" />
    <glyph glyph-name="Ucircumflex" unicode="&#xdb;" horiz-adv-x="1347" 
d="M438 1795q260 0 366 -155q12 -24 12 -68v-50q0 -102 -173 -291q-39 -69 -112 -117q-327 -395 -371 -744v-148q11 -137 86 -137l62 -18h19v12h6q140 0 297 143q106 65 174 204l62 124q56 62 56 130l272 427q19 68 130 199q84 167 192 167l6 6h7l6 -6h6l37 12h13l18 -18
q-91 -139 -272 -372q-116 -196 -372 -688q-22 0 -68 -260v-31q0 -52 37 -74h43q86 0 350 325l19 -13q-257 -374 -424 -374q-109 0 -143 50l-31 99v43l6 74q-356 -260 -532 -260q-254 0 -254 260q0 391 582 1016q161 228 161 347q0 108 -136 155l-68 6h-62v-12h-31l-69 -19
l-18 6q0 -12 -130 -49q-406 -167 -570 -471q-68 -131 -68 -279q28 -136 74 -167q35 -37 50 -37v-12h-7l-68 43q-35 0 -93 105l-12 81q0 117 81 260q0 32 192 241q26 43 247 180q142 91 415 155zM730 1634v-68h12v-6l-6 -25v-6h6l6 31v18h-12l6 37l-6 19h-6zM723 1473
l-24 -56v-6h6l25 56v6h-7zM668 1399l-7 -19v-6h7l6 18v7h-6zM1324 1231v-6h6q0 12 50 62v6q-41 -31 -56 -62zM1361 1219v-6l38 43v6q-12 0 -38 -43zM1343 1200q-112 -163 -112 -192v-6h6l112 198h-6zM1268 1163l-12 -31v-6h6l19 37h-13zM1219 1095l-25 -56h6q14 0 25 50v6
h-6zM519 1070v-6l-19 -19v7zM-466 1014v-43h6v43h-6zM476 1021v-7l-13 -12v6zM451 990v-6l-13 -13v6zM-460 953v-44l6 -43l-6 -19l6 6h7q14 -37 24 -37v6q-31 60 -31 131h-6zM426 959v-6l-12 -13v6zM197 730l-6 -19v-6h6l6 18v7h-6zM160 581l-13 -43v-7h6l13 44v6h-6z
M934 469l-19 -55v-7h7l18 56v6h-6zM141 451l-6 -56v-25h6l6 62v19h-6zM872 414l-25 -69v-6h6l25 68v7h-6zM54 407l-6 -55v-7h6l7 38v24h-7zM816 228v-6h6l25 99q-20 0 -31 -93zM1367 414h6v-6l-25 -25h-6v6zM878 215v-24h6v24h-6zM11 191v-44h6v44h-6zM122 191v-25l7 -25h6
v6l-6 44h-7zM841 184l-12 -37l6 -31h6l6 56v12h-6zM23 135v-19l13 -12v12l-6 19h-7zM73 116v-12l6 -19h6v7l-6 24h-6zM67 85v-6q8 -25 31 -37h6l-31 43h-6zM853 61v-19l25 -25v6q-12 38 -25 38zM314 48v-12h13l25 12v6h-7zM847 30v-19h19zM228 23v-6h25v6h-25zM1233 2023
q46 0 46 -46q33 -193 119 -297l33 -33v-13l-125 13l-27 -6q-32 0 -46 256q-68 -79 -158 -131l-6 6l-33 -6h-20v6q217 170 217 251z" />
    <glyph glyph-name="Udieresis" unicode="&#xdc;" horiz-adv-x="1347" 
d="M438 1795q260 0 366 -155q12 -24 12 -68v-50q0 -102 -173 -291q-39 -69 -112 -117q-327 -395 -371 -744v-148q11 -137 86 -137l62 -18h19v12h6q140 0 297 143q106 65 174 204l62 124q56 62 56 130l272 427q19 68 130 199q84 167 192 167l6 6h7l6 -6h6l37 12h13l18 -18
q-91 -139 -272 -372q-116 -196 -372 -688q-22 0 -68 -260v-31q0 -52 37 -74h43q86 0 350 325l19 -13q-257 -374 -424 -374q-109 0 -143 50l-31 99v43l6 74q-356 -260 -532 -260q-254 0 -254 260q0 391 582 1016q161 228 161 347q0 108 -136 155l-68 6h-62v-12h-31l-69 -19
l-18 6q0 -12 -130 -49q-406 -167 -570 -471q-68 -131 -68 -279q28 -136 74 -167q35 -37 50 -37v-12h-7l-68 43q-35 0 -93 105l-12 81q0 117 81 260q0 32 192 241q26 43 247 180q142 91 415 155zM730 1634v-68h12v-6l-6 -25v-6h6l6 31v18h-12l6 37l-6 19h-6zM723 1473
l-24 -56v-6h6l25 56v6h-7zM668 1399l-7 -19v-6h7l6 18v7h-6zM1324 1231v-6h6q0 12 50 62v6q-41 -31 -56 -62zM1361 1219v-6l38 43v6q-12 0 -38 -43zM1343 1200q-112 -163 -112 -192v-6h6l112 198h-6zM1268 1163l-12 -31v-6h6l19 37h-13zM1219 1095l-25 -56h6q14 0 25 50v6
h-6zM519 1070v-6l-19 -19v7zM-466 1014v-43h6v43h-6zM476 1021v-7l-13 -12v6zM451 990v-6l-13 -13v6zM-460 953v-44l6 -43l-6 -19l6 6h7q14 -37 24 -37v6q-31 60 -31 131h-6zM426 959v-6l-12 -13v6zM197 730l-6 -19v-6h6l6 18v7h-6zM160 581l-13 -43v-7h6l13 44v6h-6z
M934 469l-19 -55v-7h7l18 56v6h-6zM141 451l-6 -56v-25h6l6 62v19h-6zM872 414l-25 -69v-6h6l25 68v7h-6zM54 407l-6 -55v-7h6l7 38v24h-7zM816 228v-6h6l25 99q-20 0 -31 -93zM1367 414h6v-6l-25 -25h-6v6zM878 215v-24h6v24h-6zM11 191v-44h6v44h-6zM122 191v-25l7 -25h6
v6l-6 44h-7zM841 184l-12 -37l6 -31h6l6 56v12h-6zM23 135v-19l13 -12v12l-6 19h-7zM73 116v-12l6 -19h6v7l-6 24h-6zM67 85v-6q8 -25 31 -37h6l-31 43h-6zM853 61v-19l25 -25v6q-12 38 -25 38zM314 48v-12h13l25 12v6h-7zM847 30v-19h19zM228 23v-6h25v6h-25zM1084 1929h35
q41 -31 41 -71q-15 -94 -82 -94h-12q-46 0 -59 71q25 94 77 94zM1366 1917h6q52 0 59 -76q0 -60 -88 -83h-24q-35 21 -35 59q32 100 82 100z" />
    <glyph glyph-name="Yacute" unicode="&#xdd;" horiz-adv-x="1233" 
d="M1750 1749l7 -7v-7q-134 -55 -166 -104q-62 0 -180 -270q-70 -109 -160 -437v-14h-14v-7l7 -21h-7q-107 -374 -263 -645q-106 -205 -139 -242l-7 7h-7q-80 -149 -312 -306q-71 -41 -152 -41h-111v-14q-246 33 -326 104q-79 93 -97 166v21q131 -242 374 -242
q249 0 416 242q217 297 291 527q39 68 70 174q-211 -139 -354 -139q-249 56 -249 111l-35 48q0 152 173 382q208 289 208 527q-24 138 -138 138l-91 7h-27q-310 0 -701 -221l-138 -111q-175 -170 -243 -451l-7 -70q0 -163 125 -228l69 -7h42q304 0 659 333q117 149 117 215
h14l7 -21q-55 -174 -312 -375q-288 -180 -506 -180q-244 0 -312 194l-7 56q0 225 305 527l-7 7l243 173q41 0 48 35l7 -7h7q248 152 534 152h90q335 0 382 -194q0 -209 -326 -652l-56 -187h-7q0 -124 125 -153h28q374 63 374 202q47 116 111 346l132 333q16 0 28 63
q70 141 360 249zM398 1319h14v-7l-7 -132h-14zM384 -324v-7h14l28 7v7h-14zM1233 2006h6q21 0 38 -89v-6q0 -80 -108 -108l-6 6h-6l-64 -6v13h-63q6 17 82 44q87 91 121 146z" />
    <glyph glyph-name="Thorn" unicode="&#xde;" horiz-adv-x="1120" 
 />
    <glyph glyph-name="germandbls" unicode="&#xdf;" horiz-adv-x="1362" 
d="M1184 1425q131 -7 164 -97l12 -41l-1 -20q-9 -159 -270 -250q-71 -51 -77 -178l122 -121q87 -135 85 -187l4 -48l-3 -47q-12 -239 -318 -402l-130 -34l-6 7q-89 -9 -237 -1l-13 1q1 20 -66 30v14l14 -1l6 -7l7 6l155 -14q159 -9 263 114q152 196 159 336l8 20
q10 187 -126 311l-24 55q4 68 173 201q128 116 135 249q2 50 -65 65q-126 6 -351 -259l-399 -648q-63 -217 -578 -720q-314 -231 -446 -247q-87 0 -88 -15q-201 37 -193 192l3 47q5 101 201 233l83 29q113 -23 110 -86l-21 -13l-44 63l-61 3q-49 0 -112 -88
q-53 -105 -57 -173q-8 -162 113 -168q148 20 199 64q241 177 333 287l335 468q117 202 243 380l201 340q82 188 264 270q197 85 294 80zM1307 1188v-6l7 -1l23 60q-9 0 -30 -53zM498 832l-8 -20v-6l7 -1l7 20l1 7h-7zM1084 660l-1 -7l30 -198h7l3 61l14 -1l1 -108l7 -1l8 40
v122l-13 1l1 20l-24 62h-7v-6l10 -55h-6q-14 1 -24 69zM1171 527l-4 -75h7l4 74zM1050 405l-24 -73l-1 -7l7 -1l24 73l1 7zM108 231l-44 -65l7 -1l44 59v7h-7zM136 121l-15 -26v-7h7l22 33h-14zM-868 -218l-16 -46l-1 -14h7l16 53l1 7h-7zM-360 -326h7l21 19l-7 1z" />
    <glyph glyph-name="agrave" unicode="&#xe0;" horiz-adv-x="1067" 
d="M508 703q102 0 165 -55q13 37 27 37h9q67 0 109 -55l-45 -55q45 -52 45 -91h-18l-36 73q-81 -75 -192 -346l-9 -64q7 -31 55 -55h9q219 35 219 91q30 0 218 222h9v-9q-120 -252 -346 -368q-39 0 -54 -27q-210 11 -210 82l-9 45v64l-19 19q-257 -198 -355 -210l-9 -9v-10
l-46 10h-9l27 -37l-9 -9h-9q-137 89 -137 128l-9 100q12 49 100 173q0 85 265 292q160 55 264 64zM299 621l9 -9v-9l-9 -9h9q140 63 200 63v10l-36 9q-49 0 -173 -55zM508 630v-18h-36q-145 0 -338 -219l-73 -110l-36 -127q0 -44 46 -91h27q57 0 255 173v-9
q-132 -137 -164 -137v-9h9q61 0 301 292q52 121 137 246v9h-128zM61 448h10l100 109v9q-110 -97 -110 -118zM517 448h10v-9l-28 -28h-9v9zM554 384l-9 -28v-9h9l9 28v9h-9zM426 238h19v18q27 0 27 18v9zM499 229l-18 -73l27 -37h9l-9 110h-9zM-21 211q0 -28 -18 -28v-45
l9 -64h9v45l-9 46h18v46h-9zM508 74l19 -19h9l-19 19h-9zM512 1177h7l100 -247l54 -60l-20 -34h26l-13 -13h-47q-45 0 -73 47l-7 6v7h-7l-6 -7h-7l-20 127z" />
    <glyph glyph-name="aacute" unicode="&#xe1;" horiz-adv-x="1067" 
d="M508 703q102 0 165 -55q13 37 27 37h9q67 0 109 -55l-45 -55q45 -52 45 -91h-18l-36 73q-81 -75 -192 -346l-9 -64q7 -31 55 -55h9q219 35 219 91q30 0 218 222h9v-9q-120 -252 -346 -368q-39 0 -54 -27q-210 11 -210 82l-9 45v64l-19 19q-257 -198 -355 -210l-9 -9v-10
l-46 10h-9l27 -37l-9 -9h-9q-137 89 -137 128l-9 100q12 49 100 173q0 85 265 292q160 55 264 64zM299 621l9 -9v-9l-9 -9h9q140 63 200 63v10l-36 9q-49 0 -173 -55zM508 630v-18h-36q-145 0 -338 -219l-73 -110l-36 -127q0 -44 46 -91h27q57 0 255 173v-9
q-132 -137 -164 -137v-9h9q61 0 301 292q52 121 137 246v9h-128zM61 448h10l100 109v9q-110 -97 -110 -118zM517 448h10v-9l-28 -28h-9v9zM554 384l-9 -28v-9h9l9 28v9h-9zM426 238h19v18q27 0 27 18v9zM499 229l-18 -73l27 -37h9l-9 110h-9zM-21 211q0 -28 -18 -28v-45
l9 -64h9v45l-9 46h18v46h-9zM508 74l19 -19h9l-19 19h-9zM685 1032h6q21 0 38 -89v-6q0 -80 -108 -108l-6 6h-6l-64 -6v13h-63q6 17 82 44q87 91 121 146z" />
    <glyph glyph-name="acircumflex" unicode="&#xe2;" horiz-adv-x="1067" 
d="M508 703q102 0 165 -55q13 37 27 37h9q67 0 109 -55l-45 -55q45 -52 45 -91h-18l-36 73q-81 -75 -192 -346l-9 -64q7 -31 55 -55h9q219 35 219 91q30 0 218 222h9v-9q-120 -252 -346 -368q-39 0 -54 -27q-210 11 -210 82l-9 45v64l-19 19q-257 -198 -355 -210l-9 -9v-10
l-46 10h-9l27 -37l-9 -9h-9q-137 89 -137 128l-9 100q12 49 100 173q0 85 265 292q160 55 264 64zM299 621l9 -9v-9l-9 -9h9q140 63 200 63v10l-36 9q-49 0 -173 -55zM508 630v-18h-36q-145 0 -338 -219l-73 -110l-36 -127q0 -44 46 -91h27q57 0 255 173v-9
q-132 -137 -164 -137v-9h9q61 0 301 292q52 121 137 246v9h-128zM61 448h10l100 109v9q-110 -97 -110 -118zM517 448h10v-9l-28 -28h-9v9zM554 384l-9 -28v-9h9l9 28v9h-9zM426 238h19v18q27 0 27 18v9zM499 229l-18 -73l27 -37h9l-9 110h-9zM-21 211q0 -28 -18 -28v-45
l9 -64h9v45l-9 46h18v46h-9zM508 74l19 -19h9l-19 19h-9zM633 1153q46 0 46 -46q33 -193 119 -297l33 -33v-13l-125 13l-27 -6q-32 0 -46 256q-68 -79 -158 -131l-6 6l-33 -6h-20v6q217 170 217 251z" />
    <glyph glyph-name="atilde" unicode="&#xe3;" horiz-adv-x="1067" 
d="M508 703q102 0 165 -55q13 37 27 37h9q67 0 109 -55l-45 -55q45 -52 45 -91h-18l-36 73q-81 -75 -192 -346l-9 -64q7 -31 55 -55h9q219 35 219 91q30 0 218 222h9v-9q-120 -252 -346 -368q-39 0 -54 -27q-210 11 -210 82l-9 45v64l-19 19q-257 -198 -355 -210l-9 -9v-10
l-46 10h-9l27 -37l-9 -9h-9q-137 89 -137 128l-9 100q12 49 100 173q0 85 265 292q160 55 264 64zM299 621l9 -9v-9l-9 -9h9q140 63 200 63v10l-36 9q-49 0 -173 -55zM508 630v-18h-36q-145 0 -338 -219l-73 -110l-36 -127q0 -44 46 -91h27q57 0 255 173v-9
q-132 -137 -164 -137v-9h9q61 0 301 292q52 121 137 246v9h-128zM61 448h10l100 109v9q-110 -97 -110 -118zM517 448h10v-9l-28 -28h-9v9zM554 384l-9 -28v-9h9l9 28v9h-9zM426 238h19v18q27 0 27 18v9zM499 229l-18 -73l27 -37h9l-9 110h-9zM-21 211q0 -28 -18 -28v-45
l9 -64h9v45l-9 46h18v46h-9zM508 74l19 -19h9l-19 19h-9zM421 1141h7q62 0 172 -135q88 -67 172 -67h7q56 0 232 172l7 -8v-7q-37 -111 -202 -254q-29 -15 -82 -15h-30q-40 0 -179 149l-97 38q-134 0 -224 -97l-60 -53l-7 8v7l112 150q26 52 164 104z" />
    <glyph glyph-name="adieresis" unicode="&#xe4;" horiz-adv-x="1067" 
d="M508 703q102 0 165 -55q13 37 27 37h9q67 0 109 -55l-45 -55q45 -52 45 -91h-18l-36 73q-81 -75 -192 -346l-9 -64q7 -31 55 -55h9q219 35 219 91q30 0 218 222h9v-9q-120 -252 -346 -368q-39 0 -54 -27q-210 11 -210 82l-9 45v64l-19 19q-257 -198 -355 -210l-9 -9v-10
l-46 10h-9l27 -37l-9 -9h-9q-137 89 -137 128l-9 100q12 49 100 173q0 85 265 292q160 55 264 64zM299 621l9 -9v-9l-9 -9h9q140 63 200 63v10l-36 9q-49 0 -173 -55zM508 630v-18h-36q-145 0 -338 -219l-73 -110l-36 -127q0 -44 46 -91h27q57 0 255 173v-9
q-132 -137 -164 -137v-9h9q61 0 301 292q52 121 137 246v9h-128zM61 448h10l100 109v9q-110 -97 -110 -118zM517 448h10v-9l-28 -28h-9v9zM554 384l-9 -28v-9h9l9 28v9h-9zM426 238h19v18q27 0 27 18v9zM499 229l-18 -73l27 -37h9l-9 110h-9zM-21 211q0 -28 -18 -28v-45
l9 -64h9v45l-9 46h18v46h-9zM508 74l19 -19h9l-19 19h-9zM500 1055h35q41 -31 41 -71q-15 -94 -82 -94h-12q-46 0 -59 71q25 94 77 94zM782 1043h6q52 0 59 -76q0 -60 -88 -83h-24q-35 21 -35 59q32 100 82 100z" />
    <glyph glyph-name="aring" unicode="&#xe5;" horiz-adv-x="1067" 
d="M508 703q102 0 165 -55q13 37 27 37h9q67 0 109 -55l-45 -55q45 -52 45 -91h-18l-36 73q-81 -75 -192 -346l-9 -64q7 -31 55 -55h9q219 35 219 91q30 0 218 222h9v-9q-120 -252 -346 -368q-39 0 -54 -27q-210 11 -210 82l-9 45v64l-19 19q-257 -198 -355 -210l-9 -9v-10
l-46 10h-9l27 -37l-9 -9h-9q-137 89 -137 128l-9 100q12 49 100 173q0 85 265 292q160 55 264 64zM299 621l9 -9v-9l-9 -9h9q140 63 200 63v10l-36 9q-49 0 -173 -55zM508 630v-18h-36q-145 0 -338 -219l-73 -110l-36 -127q0 -44 46 -91h27q57 0 255 173v-9
q-132 -137 -164 -137v-9h9q61 0 301 292q52 121 137 246v9h-128zM61 448h10l100 109v9q-110 -97 -110 -118zM517 448h10v-9l-28 -28h-9v9zM554 384l-9 -28v-9h9l9 28v9h-9zM426 238h19v18q27 0 27 18v9zM499 229l-18 -73l27 -37h9l-9 110h-9zM-21 211q0 -28 -18 -28v-45
l9 -64h9v45l-9 46h18v46h-9zM508 74l19 -19h9l-19 19h-9zM685 1107q98 -57 87 -134l1 -34l-1 -5q-21 -148 -126 -187l-91 -15q-152 21 -121 238q90 159 213 142zM524 893l-7 -51q-7 -51 55 -71h5q93 14 117 188q9 61 -23 87l-19 8l1 5l5 4l1 5l-5 1q-91 13 -130 -176z
M776 1019l-1 -12l3 -19l6 -1l2 12l-4 19zM788 924l-6 -42l6 -1l6 42zM659 718h7l19 3l1 12l-6 1z" />
    <glyph glyph-name="ae" unicode="&#xe6;" horiz-adv-x="1209" 
d="M520 703q102 0 165 -55q13 37 27 37h9q67 0 109 -55l-45 -55q45 -52 45 -91h-18l-36 73q-81 -75 -192 -346q-109 -199 -109 -128l-9 45v64l-19 19q-257 -198 -355 -210l-9 -9v-10l-46 10h-9l27 -37l-9 -9h-9q-137 89 -137 128l-9 100q12 49 100 173q0 85 265 292
q160 55 264 64zM311 621l9 -9v-9l-9 -9h9q140 63 200 63v10l-36 9q-49 0 -173 -55zM520 630v-18h-36q-145 0 -338 -219l-73 -110l-36 -127q0 -44 46 -91h27q57 0 255 173v-9q-132 -137 -164 -137v-9h9q61 0 301 292q52 121 137 246v9h-128zM73 448h10l100 109v9
q-110 -97 -110 -118zM529 448h10v-9l-28 -28h-9v9zM566 384l-9 -28v-9h9l9 28v9h-9zM438 238h19v18q27 0 27 18v9zM511 229l-18 -73l27 -37h9l-9 110h-9zM-9 211q0 -28 -18 -28v-45l9 -64h9v45l-9 46h18v46h-9zM520 74l19 -19h9l-19 19h-9zM1024 716q97 -9 119 -37
q0 -130 -156 -219l-137 -110l-212 -120l-17 -99q0 -83 129 -101q202 0 484 320l9 -9v-9q-146 -241 -411 -348l-82 -18q-210 31 -266 110l-18 36q0 327 494 586q64 0 64 18zM1042 698l-9 -9v-10q15 0 37 -54h9l9 9v27q-4 19 -46 37zM648 294l257 148q85 50 119 137l-9 9v9
l9 9q-12 55 -28 55q-161 -59 -320 -283zM585 332l-37 -101v-64h9q10 98 37 156v9h-9z" />
    <glyph glyph-name="ccedilla" unicode="&#xe7;" horiz-adv-x="748" 
d="M528 700q80 -9 80 -35h-18v-18h18q0 -84 -168 -160l-9 9l17 53q0 80 -62 80q0 -19 -71 -35v9l-132 -71v-9h17q0 13 36 26v-8q-169 -163 -169 -266h-17v17h-9q0 -53 -18 -53q34 -186 151 -186h88q168 0 445 296q12 37 44 53l18 -18q-148 -194 -356 -340l-239 -44l-98 27
l-9 -9h-9q-159 67 -159 177v18q0 195 416 425q153 62 213 62zM510 673v-8h36v8h-36zM537 567h9l35 44v9q-32 -16 -44 -53zM181 -54h30q31 -11 31 -62v-10l-10 -10v-10q91 -51 91 -122q0 -89 -132 -102q-224 56 -224 102v20h20q51 -37 143 -61q71 20 71 92l-71 91
q26 66 51 72z" />
    <glyph glyph-name="egrave" unicode="&#xe8;" horiz-adv-x="675" 
d="M451 750q97 -9 119 -37q0 -130 -156 -219l-137 -110l-212 -120l-17 -99q0 -83 129 -101q202 0 484 320l9 -9v-9q-146 -241 -411 -348l-82 -18q-210 31 -266 110l-18 36q0 327 494 586q64 0 64 18zM469 732l-9 -9v-10q15 0 37 -54h9l9 9v27q-4 19 -46 37zM75 328l257 148
q85 50 119 137l-9 9v9l9 9q-12 55 -28 55q-161 -59 -320 -283zM12 366l-37 -101v-64h9q10 98 37 156v9h-9zM267 1194h7l100 -247l54 -60l-20 -34h26l-13 -13h-47q-45 0 -73 47l-7 6v7h-7l-6 -7h-7l-20 127z" />
    <glyph glyph-name="eacute" unicode="&#xe9;" horiz-adv-x="675" 
d="M451 750q97 -9 119 -37q0 -130 -156 -219l-137 -110l-212 -120l-17 -99q0 -83 129 -101q202 0 484 320l9 -9v-9q-146 -241 -411 -348l-82 -18q-210 31 -266 110l-18 36q0 327 494 586q64 0 64 18zM469 732l-9 -9v-10q15 0 37 -54h9l9 9v27q-4 19 -46 37zM75 328l257 148
q85 50 119 137l-9 9v9l9 9q-12 55 -28 55q-161 -59 -320 -283zM12 366l-37 -101v-64h9q10 98 37 156v9h-9zM394 1016h6q21 0 38 -89v-6q0 -80 -108 -108l-6 6h-6l-64 -6v13h-63q6 17 82 44q87 91 121 146z" />
    <glyph glyph-name="ecircumflex" unicode="&#xea;" horiz-adv-x="675" 
d="M451 750q97 -9 119 -37q0 -130 -156 -219l-137 -110l-212 -120l-17 -99q0 -83 129 -101q202 0 484 320l9 -9v-9q-146 -241 -411 -348l-82 -18q-210 31 -266 110l-18 36q0 327 494 586q64 0 64 18zM469 732l-9 -9v-10q15 0 37 -54h9l9 9v27q-4 19 -46 37zM75 328l257 148
q85 50 119 137l-9 9v9l9 9q-12 55 -28 55q-161 -59 -320 -283zM12 366l-37 -101v-64h9q10 98 37 156v9h-9zM447 1246q46 0 46 -46q33 -193 119 -297l33 -33v-13l-125 13l-27 -6q-32 0 -46 256q-68 -79 -158 -131l-6 6l-33 -6h-20v6q217 170 217 251z" />
    <glyph glyph-name="edieresis" unicode="&#xeb;" horiz-adv-x="675" 
d="M451 750q97 -9 119 -37q0 -130 -156 -219l-137 -110l-212 -120l-17 -99q0 -83 129 -101q202 0 484 320l9 -9v-9q-146 -241 -411 -348l-82 -18q-210 31 -266 110l-18 36q0 327 494 586q64 0 64 18zM469 732l-9 -9v-10q15 0 37 -54h9l9 9v27q-4 19 -46 37zM75 328l257 148
q85 50 119 137l-9 9v9l9 9q-12 55 -28 55q-161 -59 -320 -283zM12 366l-37 -101v-64h9q10 98 37 156v9h-9zM172 1026h35q41 -31 41 -71q-15 -94 -82 -94h-12q-46 0 -59 71q25 94 77 94zM454 1014h6q52 0 59 -76q0 -60 -88 -83h-24q-35 21 -35 59q32 100 82 100z" />
    <glyph glyph-name="igrave" unicode="&#xec;" horiz-adv-x="438" 
d="M150 676l8 -8l39 8h16q46 -5 46 -23v-8l-62 16q0 -16 47 -16q0 -25 -203 -369q-13 -124 -24 -124h-8v-55l8 8h8q18 -47 62 -47q138 69 317 301q23 0 23 23l8 8h16q-200 -311 -387 -386l-47 -8l-23 8v-16q-75 0 -117 109v47h16v-16h7v31h-15q0 83 250 509l8 8h7zM-14 308
l-8 -32v-7h8l8 23v16h-8zM-53 128l8 -46h16v23zM-29 58q7 -23 46 -23h8v8q-31 0 -31 31h-8zM154 1172h7l100 -247l54 -60l-20 -34h26l-13 -13h-47q-45 0 -73 47l-7 6v7h-7l-6 -7h-7l-20 127z" />
    <glyph glyph-name="iacute" unicode="&#xed;" horiz-adv-x="438" 
d="M150 676l8 -8l39 8h16q46 -5 46 -23v-8l-62 16q0 -16 47 -16q0 -25 -203 -369q-13 -124 -24 -124h-8v-55l8 8h8q18 -47 62 -47q138 69 317 301q23 0 23 23l8 8h16q-200 -311 -387 -386l-47 -8l-23 8v-16q-75 0 -117 109v47h16v-16h7v31h-15q0 83 250 509l8 8h7zM-14 308
l-8 -32v-7h8l8 23v16h-8zM-53 128l8 -46h16v23zM-29 58q7 -23 46 -23h8v8q-31 0 -31 31h-8zM381 1015h6q21 0 38 -89v-6q0 -80 -108 -108l-6 6h-6l-64 -6v13h-63q6 17 82 44q87 91 121 146z" />
    <glyph glyph-name="icircumflex" unicode="&#xee;" horiz-adv-x="438" 
d="M150 676l8 -8l39 8h16q46 -5 46 -23v-8l-62 16q0 -16 47 -16q0 -25 -203 -369q-13 -124 -24 -124h-8v-55l8 8h8q18 -47 62 -47q138 69 317 301q23 0 23 23l8 8h16q-200 -311 -387 -386l-47 -8l-23 8v-16q-75 0 -117 109v47h16v-16h7v31h-15q0 83 250 509l8 8h7zM-14 308
l-8 -32v-7h8l8 23v16h-8zM-53 128l8 -46h16v23zM-29 58q7 -23 46 -23h8v8q-31 0 -31 31h-8zM296 1154q46 0 46 -46q33 -193 119 -297l33 -33v-13l-125 13l-27 -6q-32 0 -46 256q-68 -79 -158 -131l-6 6l-33 -6h-20v6q217 170 217 251z" />
    <glyph glyph-name="idieresis" unicode="&#xef;" horiz-adv-x="438" 
d="M150 676l8 -8l39 8h16q46 -5 46 -23v-8l-62 16q0 -16 47 -16q0 -25 -203 -369q-13 -124 -24 -124h-8v-55l8 8h8q18 -47 62 -47q138 69 317 301q23 0 23 23l8 8h16q-200 -311 -387 -386l-47 -8l-23 8v-16q-75 0 -117 109v47h16v-16h7v31h-15q0 83 250 509l8 8h7zM-14 308
l-8 -32v-7h8l8 23v16h-8zM-53 128l8 -46h16v23zM-29 58q7 -23 46 -23h8v8q-31 0 -31 31h-8zM189 1072h35q41 -31 41 -71q-15 -94 -82 -94h-12q-46 0 -59 71q25 94 77 94zM471 1060h6q52 0 59 -76q0 -60 -88 -83h-24q-35 21 -35 59q32 100 82 100z" />
    <glyph glyph-name="eth" unicode="&#xf0;" horiz-adv-x="1139" 
 />
    <glyph glyph-name="ntilde" unicode="&#xf1;" horiz-adv-x="917" 
d="M314 776h9v-9q-126 -136 -126 -198q179 144 270 144q86 0 144 -135v-36q-18 -170 -72 -234q-63 -107 -78 -207l54 -27h27q96 0 376 334h18q-285 -442 -529 -415h-9q-90 12 -90 81v18q0 97 97 247l53 167q-11 112 -54 153v9h27q5 -36 27 -36v9l-9 9v9l9 27h-9
q-37 0 -90 -36q-234 -110 -234 -261l-27 -27v18l9 9v18h-9q-120 -231 -238 -407l-134 -16l-9 9v9q96 117 210 297q24 0 81 144l-9 36q36 9 36 54l-126 -36q187 102 315 225zM485 686v-9l9 -27h9l9 27l-9 9h-18zM548 650v-144h9l9 99l-9 45h-9zM305 1108h7q62 0 172 -135
q88 -67 172 -67h7q56 0 232 172l7 -8v-7q-37 -111 -202 -254q-29 -15 -82 -15h-30q-40 0 -179 149l-97 38q-134 0 -224 -97l-60 -53l-7 8v7l112 150q26 52 164 104z" />
    <glyph glyph-name="ograve" unicode="&#xf2;" horiz-adv-x="788" 
d="M358 703q169 -45 248 -180l17 -60v-69q0 -226 -171 -325q-77 -69 -197 -69h-112q-188 37 -188 171l-9 60q0 255 326 446zM212 514h8q-8 -37 -43 -42l-68 -181l-17 -68l8 -69h-17v-34l9 9h8l35 -60l-9 -9l51 -26q173 0 292 283l26 180v26q0 86 -26 86l-51 25
q-88 0 -206 -120zM220 574h9l34 18v17q-39 -17 -43 -35zM503 592l9 -69h8v43l-8 26h-9zM-11 247q0 -100 43 -161l7 7h7l7 -7h7v7l-7 24l-7 -8h-14l-22 77v54q22 0 22 69q14 0 14 23l7 8h7v-16l-21 -77v-15h7l43 139l-8 -8h-7v15l57 93v7l-42 -46h-8v8l50 62v7
q-75 -46 -142 -262zM520 334q-11 -111 -51 -111v-9l17 -17l43 112v25h-9zM340 51h9q46 0 86 69v9q-77 -49 -95 -78zM417 1139h7l100 -247l54 -60l-20 -34h26l-13 -13h-47q-45 0 -73 47l-7 6v7h-7l-6 -7h-7l-20 127z" />
    <glyph glyph-name="oacute" unicode="&#xf3;" horiz-adv-x="788" 
d="M358 703q169 -45 248 -180l17 -60v-69q0 -226 -171 -325q-77 -69 -197 -69h-112q-188 37 -188 171l-9 60q0 255 326 446zM212 514h8q-8 -37 -43 -42l-68 -181l-17 -68l8 -69h-17v-34l9 9h8l35 -60l-9 -9l51 -26q173 0 292 283l26 180v26q0 86 -26 86l-51 25
q-88 0 -206 -120zM220 574h9l34 18v17q-39 -17 -43 -35zM503 592l9 -69h8v43l-8 26h-9zM-11 247q0 -100 43 -161l7 7h7l7 -7h7v7l-7 24l-7 -8h-14l-22 77v54q22 0 22 69q14 0 14 23l7 8h7v-16l-21 -77v-15h7l43 139l-8 -8h-7v15l57 93v7l-42 -46h-8v8l50 62v7
q-75 -46 -142 -262zM520 334q-11 -111 -51 -111v-9l17 -17l43 112v25h-9zM340 51h9q46 0 86 69v9q-77 -49 -95 -78zM476 1003h6q21 0 38 -89v-6q0 -80 -108 -108l-6 6h-6l-64 -6v13h-63q6 17 82 44q87 91 121 146z" />
    <glyph glyph-name="ocircumflex" unicode="&#xf4;" horiz-adv-x="788" 
d="M358 703q169 -45 248 -180l17 -60v-69q0 -226 -171 -325q-77 -69 -197 -69h-112q-188 37 -188 171l-9 60q0 255 326 446zM212 514h8q-8 -37 -43 -42l-68 -181l-17 -68l8 -69h-17v-34l9 9h8l35 -60l-9 -9l51 -26q173 0 292 283l26 180v26q0 86 -26 86l-51 25
q-88 0 -206 -120zM220 574h9l34 18v17q-39 -17 -43 -35zM503 592l9 -69h8v43l-8 26h-9zM-11 247q0 -100 43 -161l7 7h7l7 -7h7v7l-7 24l-7 -8h-14l-22 77v54q22 0 22 69q14 0 14 23l7 8h7v-16l-21 -77v-15h7l43 139l-8 -8h-7v15l57 93v7l-42 -46h-8v8l50 62v7
q-75 -46 -142 -262zM520 334q-11 -111 -51 -111v-9l17 -17l43 112v25h-9zM340 51h9q46 0 86 69v9q-77 -49 -95 -78zM478 1167q46 0 46 -46q33 -193 119 -297l33 -33v-13l-125 13l-27 -6q-32 0 -46 256q-68 -79 -158 -131l-6 6l-33 -6h-20v6q217 170 217 251z" />
    <glyph glyph-name="otilde" unicode="&#xf5;" horiz-adv-x="788" 
d="M358 703q169 -45 248 -180l17 -60v-69q0 -226 -171 -325q-77 -69 -197 -69h-112q-188 37 -188 171l-9 60q0 255 326 446zM212 514h8q-8 -37 -43 -42l-68 -181l-17 -68l8 -69h-17v-34l9 9h8l35 -60l-9 -9l51 -26q173 0 292 283l26 180v26q0 86 -26 86l-51 25
q-88 0 -206 -120zM220 574h9l34 18v17q-39 -17 -43 -35zM503 592l9 -69h8v43l-8 26h-9zM-11 247q0 -100 43 -161l7 7h7l7 -7h7v7l-7 24l-7 -8h-14l-22 77v54q22 0 22 69q14 0 14 23l7 8h7v-16l-21 -77v-15h7l43 139l-8 -8h-7v15l57 93v7l-42 -46h-8v8l50 62v7
q-75 -46 -142 -262zM520 334q-11 -111 -51 -111v-9l17 -17l43 112v25h-9zM340 51h9q46 0 86 69v9q-77 -49 -95 -78zM322 1145h7q62 0 172 -135q88 -67 172 -67h7q56 0 232 172l7 -8v-7q-37 -111 -202 -254q-29 -15 -82 -15h-30q-40 0 -179 149l-97 38q-134 0 -224 -97
l-60 -53l-7 8v7l112 150q26 52 164 104z" />
    <glyph glyph-name="odieresis" unicode="&#xf6;" horiz-adv-x="788" 
d="M358 703q169 -45 248 -180l17 -60v-69q0 -226 -171 -325q-77 -69 -197 -69h-112q-188 37 -188 171l-9 60q0 255 326 446zM212 514h8q-8 -37 -43 -42l-68 -181l-17 -68l8 -69h-17v-34l9 9h8l35 -60l-9 -9l51 -26q173 0 292 283l26 180v26q0 86 -26 86l-51 25
q-88 0 -206 -120zM220 574h9l34 18v17q-39 -17 -43 -35zM503 592l9 -69h8v43l-8 26h-9zM-11 247q0 -100 43 -161l7 7h7l7 -7h7v7l-7 24l-7 -8h-14l-22 77v54q22 0 22 69q14 0 14 23l7 8h7v-16l-21 -77v-15h7l43 139l-8 -8h-7v15l57 93v7l-42 -46h-8v8l50 62v7
q-75 -46 -142 -262zM520 334q-11 -111 -51 -111v-9l17 -17l43 112v25h-9zM340 51h9q46 0 86 69v9q-77 -49 -95 -78zM323 1026h35q41 -31 41 -71q-15 -94 -82 -94h-12q-46 0 -59 71q25 94 77 94zM605 1014h6q52 0 59 -76q0 -60 -88 -83h-24q-35 21 -35 59q32 100 82 100z" />
    <glyph glyph-name="divide" unicode="&#xf7;" 
 />
    <glyph glyph-name="oslash" unicode="&#xf8;" horiz-adv-x="788" 
d="M358 703q169 -45 248 -180l17 -60v-69q0 -226 -171 -325q-77 -69 -197 -69h-112q-188 37 -188 171l-9 60q0 255 326 446zM212 514h8q-8 -37 -43 -42l-68 -181l-17 -68l8 -69h-17v-34l9 9h8l35 -60l-9 -9l51 -26q173 0 292 283l26 180v26q0 86 -26 86l-51 25
q-88 0 -206 -120zM220 574h9l34 18v17q-39 -17 -43 -35zM503 592l9 -69h8v43l-8 26h-9zM-11 247q0 -100 43 -161l7 7h7l7 -7h7v7l-7 24l-7 -8h-14l-22 77v54q22 0 22 69q14 0 14 23l7 8h7v-16l-21 -77v-15h7l43 139l-8 -8h-7v15l57 93v7l-42 -46h-8v8l50 62v7
q-75 -46 -142 -262zM520 334q-11 -111 -51 -111v-9l17 -17l43 112v25h-9zM340 51h9q46 0 86 69v9q-77 -49 -95 -78zM829 1180h15v15h7l8 -7h7l29 7v-15l-103 -140v8l8 7v7h-8l-66 -103l7 -29l-22 -15v15l-81 -111v-7l8 7h7v-7q-232 -325 -560 -891h-7l-8 7q0 -66 -36 -81v15
h-8l-51 -104q22 0 22 -14l-8 -8l-7 8h-22l-22 -15l-96 15v14l37 15l-8 8v7l303 457v-8l-30 -51h7l192 302v7h-7q0 -19 -59 -88v14l147 214l-7 7v8q81 145 117 169l8 -7q96 155 155 287h7v-15l-22 -51q74 118 96 118h7v15h-15l-37 -8l-7 8v7q29 22 103 22v-15zM814 1166
q0 -22 -44 -89v-7h8l59 96h-23zM792 1040v-7l-14 -15v8zM630 915v-7h8l59 95v8zM778 1018v-7l-15 -15v7zM763 996v-7l-15 -15v7zM748 974v-7l-15 -15v7zM711 915v-15q-53 -81 -66 -81v8zM439 561v-7l29 37v7zM269 399v-14l-44 -59v14q33 59 44 59zM225 326v-8
q-39 -72 -51 -73v14q31 58 51 67zM85 24l-59 -96v-7h8l58 95v8h-7zM-11 -65l-14 -51q12 0 29 44l-7 7h-8z" />
    <glyph glyph-name="ugrave" unicode="&#xf9;" horiz-adv-x="834" 
d="M313 699v-9q-294 -364 -294 -500v-69q0 -49 61 -61q195 118 354 363q93 204 164 267l8 -8l9 8h78l17 -17q-268 -362 -268 -535q0 -52 61 -52q89 32 314 324h8l9 -9h8q-268 -392 -426 -392q-86 33 -86 129l26 121q-204 -221 -337 -259h-25q-104 0 -104 129q0 177 224 492
q58 78 199 78zM218 656l-52 -61h9l52 61h-9zM-24 293l-26 -112v-8q18 -20 18 -61h8v43l-8 43h17l-9 52l9 35v8h-9zM398 1165h7l100 -247l54 -60l-20 -34h26l-13 -13h-47q-45 0 -73 47l-7 6v7h-7l-6 -7h-7l-20 127z" />
    <glyph glyph-name="uacute" unicode="&#xfa;" horiz-adv-x="834" 
d="M313 699v-9q-294 -364 -294 -500v-69q0 -49 61 -61q195 118 354 363q93 204 164 267l8 -8l9 8h78l17 -17q-268 -362 -268 -535q0 -52 61 -52q89 32 314 324h8l9 -9h8q-268 -392 -426 -392q-86 33 -86 129l26 121q-204 -221 -337 -259h-25q-104 0 -104 129q0 177 224 492
q58 78 199 78zM218 656l-52 -61h9l52 61h-9zM-24 293l-26 -112v-8q18 -20 18 -61h8v43l-8 43h17l-9 52l9 35v8h-9zM575 1019h6q21 0 38 -89v-6q0 -80 -108 -108l-6 6h-6l-64 -6v13h-63q6 17 82 44q87 91 121 146z" />
    <glyph glyph-name="ucircumflex" unicode="&#xfb;" horiz-adv-x="834" 
d="M313 699v-9q-294 -364 -294 -500v-69q0 -49 61 -61q195 118 354 363q93 204 164 267l8 -8l9 8h78l17 -17q-268 -362 -268 -535q0 -52 61 -52q89 32 314 324h8l9 -9h8q-268 -392 -426 -392q-86 33 -86 129l26 121q-204 -221 -337 -259h-25q-104 0 -104 129q0 177 224 492
q58 78 199 78zM218 656l-52 -61h9l52 61h-9zM-24 293l-26 -112v-8q18 -20 18 -61h8v43l-8 43h17l-9 52l9 35v8h-9zM544 1225q46 0 46 -46q33 -193 119 -297l33 -33v-13l-125 13l-27 -6q-32 0 -46 256q-68 -79 -158 -131l-6 6l-33 -6h-20v6q217 170 217 251z" />
    <glyph glyph-name="udieresis" unicode="&#xfc;" horiz-adv-x="834" 
d="M313 699v-9q-294 -364 -294 -500v-69q0 -49 61 -61q195 118 354 363q93 204 164 267l8 -8l9 8h78l17 -17q-268 -362 -268 -535q0 -52 61 -52q89 32 314 324h8l9 -9h8q-268 -392 -426 -392q-86 33 -86 129l26 121q-204 -221 -337 -259h-25q-104 0 -104 129q0 177 224 492
q58 78 199 78zM218 656l-52 -61h9l52 61h-9zM-24 293l-26 -112v-8q18 -20 18 -61h8v43l-8 43h17l-9 52l9 35v8h-9zM399 1043h35q41 -31 41 -71q-15 -94 -82 -94h-12q-46 0 -59 71q25 94 77 94zM681 1031h6q52 0 59 -76q0 -60 -88 -83h-24q-35 21 -35 59q32 100 82 100z" />
    <glyph glyph-name="yacute" unicode="&#xfd;" horiz-adv-x="803" 
d="M220 746l100 -17l9 9l8 -9v-8q-320 -435 -320 -581v-34q0 -67 51 -84l8 9h25l9 -9q155 53 243 227q255 402 261 489h8l126 8v-8l8 8h9l16 -17q-22 -15 -117 -218q-274 -533 -514 -999q-172 -302 -319 -302l-76 -25v8l-92 -17q-183 46 -318 185q-142 133 -253.5 302.5
t-281.5 201.5h-8q0 23 -59 33q-165 0 -327 -75q-27 -34 -92 -34l-25 -25l8 -8q-106 -61 -260 -227v17q244 377 830 377q224 -8 439.5 -345.5t262.5 -342.5l67 -17h93q122 89 201 218q203 300 329 586l8 34h-8l-126 -50l-67 -9h-25q-147 0 -168 109q0 170 236 523
q41 41 75 109zM605 654v-25l34 33v9zM344 98l-16 -50v-9h8l17 42v17h-9zM7 -480l-25 -42v-8h8l25 50h-8zM-77 -648v-8h9q0 17 41 50v17zM622 1120h6q21 0 38 -89v-6q0 -80 -108 -108l-6 6h-6l-64 -6v13h-63q6 17 82 44q87 91 121 146z" />
    <glyph glyph-name="thorn" unicode="&#xfe;" horiz-adv-x="1010" 
 />
    <glyph glyph-name="ydieresis" unicode="&#xff;" horiz-adv-x="803" 
d="M220 746l100 -17l9 9l8 -9v-8q-320 -435 -320 -581v-34q0 -67 51 -84l8 9h25l9 -9q155 53 243 227q255 402 261 489h8l126 8v-8l8 8h9l16 -17q-22 -15 -117 -218q-274 -533 -514 -999q-172 -302 -319 -302l-76 -25v8l-92 -17q-183 46 -318 185q-142 133 -253.5 302.5
t-281.5 201.5h-8q0 23 -59 33q-165 0 -327 -75q-27 -34 -92 -34l-25 -25l8 -8q-106 -61 -260 -227v17q244 377 830 377q224 -8 439.5 -345.5t262.5 -342.5l67 -17h93q122 89 201 218q203 300 329 586l8 34h-8l-126 -50l-67 -9h-25q-147 0 -168 109q0 170 236 523
q41 41 75 109zM605 654v-25l34 33v9zM344 98l-16 -50v-9h8l17 42v17h-9zM7 -480l-25 -42v-8h8l25 50h-8zM-77 -648v-8h9q0 17 41 50v17zM442 1143h35q41 -31 41 -71q-15 -94 -82 -94h-12q-46 0 -59 71q25 94 77 94zM724 1131h6q52 0 59 -76q0 -60 -88 -83h-24q-35 21 -35 59
q32 100 82 100z" />
    <glyph glyph-name="dotlessi" unicode="&#x131;" horiz-adv-x="438" 
d="M150 676l8 -8l39 8h16q46 -5 46 -23v-8l-62 16q0 -16 47 -16q0 -25 -203 -369q-13 -124 -24 -124h-8v-55l8 8h8q18 -47 62 -47q138 69 317 301q23 0 23 23l8 8h16q-200 -311 -387 -386l-47 -8l-23 8v-16q-75 0 -117 109v47h16v-16h7v31h-15q0 83 250 509l8 8h7zM-14 308
l-8 -32v-7h8l8 23v16h-8zM-53 128l8 -46h16v23zM-29 58q7 -23 46 -23h8v8q-31 0 -31 31h-8z" />
    <glyph glyph-name="circumflex" unicode="&#x2c6;" horiz-adv-x="626" 
d="M315 1137q46 0 46 -46q33 -193 119 -297l33 -33v-13l-125 13l-27 -6q-32 0 -46 256q-68 -79 -158 -131l-6 6l-33 -6h-20v6q217 170 217 251z" />
    <glyph glyph-name="caron" unicode="&#x2c7;" horiz-adv-x="1024" 
 />
    <glyph glyph-name="uni02C9" unicode="&#x2c9;" horiz-adv-x="1024" 
 />
    <glyph glyph-name="breve" unicode="&#x2d8;" horiz-adv-x="1024" 
 />
    <glyph glyph-name="dotaccent" unicode="&#x2d9;" horiz-adv-x="1024" 
 />
    <glyph glyph-name="ring" unicode="&#x2da;" horiz-adv-x="584" 
d="M393 1091q98 -57 87 -134l1 -34l-1 -5q-21 -148 -126 -187l-91 -15q-152 21 -121 238q90 159 213 142zM232 877l-7 -51q-7 -51 55 -71h5q93 14 117 188q9 61 -23 87l-19 8l1 5l5 4l1 5l-5 1q-91 13 -130 -176zM484 1003l-1 -12l3 -19l6 -1l2 12l-4 19zM496 908l-6 -42
l6 -1l6 42zM367 702h7l19 3l1 12l-6 1z" />
    <glyph glyph-name="ogonek" unicode="&#x2db;" horiz-adv-x="1024" 
 />
    <glyph glyph-name="tilde" unicode="&#x2dc;" horiz-adv-x="1024" 
d="M370 1019h7q62 0 172 -135q88 -67 172 -67h7q56 0 232 172l7 -8v-7q-37 -111 -202 -254q-29 -15 -82 -15h-30q-40 0 -179 149l-97 38q-134 0 -224 -97l-60 -53l-7 8v7l112 150q26 52 164 104z" />
    <glyph glyph-name="hungarumlaut" unicode="&#x2dd;" horiz-adv-x="1024" 
 />
    <glyph glyph-name="endash" unicode="&#x2013;" horiz-adv-x="1108" 
 />
    <glyph glyph-name="emdash" unicode="&#x2014;" horiz-adv-x="2048" 
 />
    <glyph glyph-name="quoteleft" unicode="&#x2018;" horiz-adv-x="352" 
d="M354 1097q-50 7 -60 91l5 34q13 95 129 157l22 17l13 -12l1 5l-4 6v4l6 5l5 -1q19 -38 16 -56l-1 -10q-17 3 -78 -67q85 -20 77 -79l-4 -24q-48 -81 -127 -70zM404 1139l15 37q0 24 -11 26l-13 -62zM446 1157l3 20h-5l-3 -19zM461 1229v4l-4 6l-9 1l-1 -5z" />
    <glyph glyph-name="quoteright" unicode="&#x2019;" horiz-adv-x="329" 
d="M504 1416q50 -7 60 -91l-5 -34q-13 -95 -129 -157l-22 -17l-13 12l-1 -5l4 -6v-4l-6 -4h-5q-19 38 -16 56l1 10q17 -3 78 67q-85 20 -77 79l4 24q48 81 127 70zM454 1374l-15 -37q0 -24 11 -26l13 62zM412 1356l-3 -20h5l3 19zM397 1284v-4l4 -6l9 -1l1 5z" />
    <glyph glyph-name="quotesinglbase" unicode="&#x201a;" horiz-adv-x="557" 
 />
    <glyph glyph-name="quotedblleft" unicode="&#x201c;" horiz-adv-x="910" 
 />
    <glyph glyph-name="quotedblright" unicode="&#x201d;" horiz-adv-x="910" 
 />
    <glyph glyph-name="quotedblbase" unicode="&#x201e;" horiz-adv-x="910" 
 />
    <glyph glyph-name="dagger" unicode="&#x2020;" 
 />
    <glyph glyph-name="daggerdbl" unicode="&#x2021;" 
 />
    <glyph glyph-name="bullet" unicode="&#x2022;" horiz-adv-x="1024" 
 />
    <glyph glyph-name="ellipsis" unicode="&#x2026;" horiz-adv-x="2048" 
 />
    <glyph glyph-name="guilsinglleft" unicode="&#x2039;" horiz-adv-x="631" 
 />
    <glyph glyph-name="guilsinglright" unicode="&#x203a;" horiz-adv-x="631" 
 />
    <glyph glyph-name="fraction" unicode="&#x2044;" horiz-adv-x="342" 
 />
    <glyph glyph-name="fraction" unicode="&#x2215;" horiz-adv-x="342" 
 />
    <glyph glyph-name="franc" unicode="&#x20a3;" 
 />
    <glyph glyph-name="lira" unicode="&#x20a4;" horiz-adv-x="1280" 
d="M726 1576h119l47 -8l24 8v-8q175 -45 175 -174v-8q-6 -80 -48 -80q-70 0 -87 40l16 119q-42 79 -87 79h-40q-199 0 -381 -230q-71 -166 -71 -254q8 -160 31 -285l143 -56l40 -8q103 8 103 48h24v-8q-43 -111 -119 -111l-191 16v-24l-23 -135h16l222 -39q28 4 63 47h8v-24
q-1 -82 -182 -103l-96 48l-47 16l-95 -183q-31 -70 -151 -190h8q165 111 254 111v16q419 -143 571 -143l71 -8q40 0 159 119h8v-8q0 -67 -214 -214l-8 8h-8l-48 -16q-124 0 -373 135l-142 24h-24l-48 -8l-40 16l-253 -135h-32l-8 39q270 258 270 468h-64l-55 -8v16
q31 0 31 32l96 24v174h-8l-95 -15l-24 7q0 16 127 48q-72 150 -72 182h16v16q-27 0 -32 72q0 238 207 428q169 89 317 127zM432 688v-8h40v8h-40zM488 680v-8h32v8h-32zM488 410v-8l55 -8h32v8l-71 8h-16z" />
    <glyph glyph-name="peseta" unicode="&#x20a7;" horiz-adv-x="2028" 
 />
    <glyph glyph-name="Euro" unicode="&#x20ac;" horiz-adv-x="1327" 
d="M1176 1202h54q138 0 246 -139q0 -51 -139 -85v5l-5 -5h-6q-14 0 -59 155l-101 27q-259 0 -557 -316q-136 -179 -139 -257l11 -10h43q96 0 198 37q0 -27 -198 -112h-27v10h-37l-6 6h-5l-22 -118l134 -16l6 5h5l5 -5h6l48 21v-5q-56 -61 -209 -91h-16v16h-11l-5 -37
q20 -148 43 -198q64 -81 160 -81q127 0 230 43l16 -5l-5 5v6q27 0 96 58q23 0 86 81h102l10 -11l6 5h10v-5q-84 -117 -363 -198l-102 -16l-21 5l-59 -5l-43 5l-16 -5q0 11 -59 11q-251 87 -251 315v22h-54v10h-11v-10h-5q-43 0 -107 -22v11q9 18 75 37l96 59q20 7 54 118h-6
q-38 0 -176 -53h-6v5q130 134 209 134l16 -6q85 149 241 294q212 183 385 252q0 28 235 53zM1246 1181v-5l37 -6h11v6l-32 5h-16zM1412 1074v-5q10 -25 21 -27v5zM1321 1031v-10l5 -27h11l-11 37h-5zM716 999l-85 -80v-5l96 80v5h-11zM556 812l-11 -22v-5h6l10 22v5h-5z
M460 758h5l11 11v5zM438 635l-16 -48h11l11 43v5h-6zM208 544l-5 -5v-5l16 5v5h-11zM358 512l-5 -32v-5h5l5 27v10h-5zM379 464l-5 -37v-6h5l6 32v11h-6zM422 464l-16 -64h11l10 59v5h-5zM294 437l-11 -48q11 0 16 43v5h-5zM299 325l-5 -80v-32h5l5 85v27h-5zM320 288v-49
l11 -37l11 11l-16 75h-6zM374 288v-11l5 -38h6v27l-6 22h-5zM369 229v-32l5 -16h5l-5 48h-5zM1053 132v-5h6q37 18 37 27zM320 149v-6q19 -43 27 -43v11l-10 38h-17zM385 106v-6q8 -21 16 -21v5q-8 22 -16 22z" />
    <glyph glyph-name="afii61352" unicode="&#x2116;" horiz-adv-x="2271" 
 />
    <glyph glyph-name="trademark" unicode="&#x2122;" horiz-adv-x="1497" 
 />
    <glyph glyph-name="partialdiff" unicode="&#x2202;" 
 />
    <glyph glyph-name="Delta" unicode="&#x2206;" horiz-adv-x="1081" 
 />
    <glyph glyph-name="product" unicode="&#x220f;" horiz-adv-x="1515" 
 />
    <glyph glyph-name="summation" unicode="&#x2211;" horiz-adv-x="1206" 
 />
    <glyph glyph-name="minus" unicode="&#x2212;" 
 />
    <glyph glyph-name="radical" unicode="&#x221a;" 
 />
    <glyph glyph-name="infinity" unicode="&#x221e;" 
 />
    <glyph glyph-name="integral" unicode="&#x222b;" horiz-adv-x="665" 
 />
    <glyph glyph-name="approxequal" unicode="&#x2248;" 
 />
    <glyph glyph-name="lessequal" unicode="&#x2264;" 
 />
    <glyph glyph-name="greaterequal" unicode="&#x2265;" 
 />
    <glyph glyph-name="uniF001" unicode="&#xf001;" horiz-adv-x="1073" 
 />
    <glyph glyph-name="uniF001" unicode="&#xfb01;" horiz-adv-x="1073" 
 />
    <glyph glyph-name="uniF002" unicode="&#xf002;" horiz-adv-x="1081" 
 />
    <glyph glyph-name="uniF002" unicode="&#xfb02;" horiz-adv-x="1081" 
 />
  </font>
</defs>
</svg>
